%TF.GenerationSoftware,KiCad,Pcbnew,9.0.2*%
%TF.CreationDate,2025-09-10T19:31:46+05:30*%
%TF.ProjectId,ProDoc_Board1_2025-09-03,50726f44-6f63-45f4-926f-617264315f32,rev?*%
%TF.SameCoordinates,Original*%
%TF.FileFunction,Soldermask,Top*%
%TF.FilePolarity,Negative*%
%FSLAX46Y46*%
G04 Gerber Fmt 4.6, Leading zero omitted, Abs format (unit mm)*
G04 Created by KiCad (PCBNEW 9.0.2) date 2025-09-10 19:31:46*
%MOMM*%
%LPD*%
G01*
G04 APERTURE LIST*
G04 Aperture macros list*
%AMRoundRect*
0 Rectangle with rounded corners*
0 $1 Rounding radius*
0 $2 $3 $4 $5 $6 $7 $8 $9 X,Y pos of 4 corners*
0 Add a 4 corners polygon primitive as box body*
4,1,4,$2,$3,$4,$5,$6,$7,$8,$9,$2,$3,0*
0 Add four circle primitives for the rounded corners*
1,1,$1+$1,$2,$3*
1,1,$1+$1,$4,$5*
1,1,$1+$1,$6,$7*
1,1,$1+$1,$8,$9*
0 Add four rect primitives between the rounded corners*
20,1,$1+$1,$2,$3,$4,$5,0*
20,1,$1+$1,$4,$5,$6,$7,0*
20,1,$1+$1,$6,$7,$8,$9,0*
20,1,$1+$1,$8,$9,$2,$3,0*%
G04 Aperture macros list end*
%ADD10R,4.000000X6.000000*%
%ADD11RoundRect,0.150000X0.150000X0.625000X-0.150000X0.625000X-0.150000X-0.625000X0.150000X-0.625000X0*%
%ADD12RoundRect,0.250000X0.350000X0.650000X-0.350000X0.650000X-0.350000X-0.650000X0.350000X-0.650000X0*%
%ADD13RoundRect,0.150000X0.625000X-0.150000X0.625000X0.150000X-0.625000X0.150000X-0.625000X-0.150000X0*%
%ADD14RoundRect,0.250000X0.650000X-0.350000X0.650000X0.350000X-0.650000X0.350000X-0.650000X-0.350000X0*%
%ADD15R,1.575000X1.800000*%
%ADD16C,1.800000*%
%ADD17RoundRect,0.150000X-0.150000X-0.625000X0.150000X-0.625000X0.150000X0.625000X-0.150000X0.625000X0*%
%ADD18RoundRect,0.250000X-0.350000X-0.650000X0.350000X-0.650000X0.350000X0.650000X-0.350000X0.650000X0*%
%ADD19RoundRect,0.250000X-0.650000X0.350000X-0.650000X-0.350000X0.650000X-0.350000X0.650000X0.350000X0*%
%ADD20RoundRect,0.150000X-0.625000X0.150000X-0.625000X-0.150000X0.625000X-0.150000X0.625000X0.150000X0*%
%ADD21R,2.200000X1.400000*%
G04 APERTURE END LIST*
D10*
%TO.C,U4*%
X132655000Y-79090000D03*
X132655000Y-93490000D03*
X171825000Y-79090000D03*
X171825000Y-93490000D03*
%TD*%
D11*
%TO.C,CN4*%
X138740000Y-115600000D03*
X137740000Y-115600000D03*
X136740000Y-115600000D03*
X135740000Y-115600000D03*
D12*
X140040000Y-118125000D03*
X134440000Y-118125000D03*
%TD*%
D11*
%TO.C,CN2*%
X138710000Y-104210000D03*
X137710000Y-104210000D03*
X136710000Y-104210000D03*
X135710000Y-104210000D03*
D12*
X140010000Y-106735000D03*
X134410000Y-106735000D03*
%TD*%
D13*
%TO.C,J1*%
X128615000Y-109775000D03*
X128615000Y-108775000D03*
X128615000Y-107775000D03*
X128615000Y-106775000D03*
X128615000Y-105775000D03*
D14*
X126090000Y-111075000D03*
X126090000Y-104475000D03*
%TD*%
%TO.C,CN10*%
X175817400Y-85530000D03*
X175817400Y-89130000D03*
D13*
X178342400Y-86830000D03*
X178342400Y-87830000D03*
%TD*%
D15*
%TO.C,H1*%
X128110000Y-101310000D03*
D16*
X128110000Y-98770000D03*
X130650000Y-101310000D03*
X130650000Y-98770000D03*
X133190000Y-101310000D03*
X133190000Y-98770000D03*
X135730000Y-101310000D03*
X135730000Y-98770000D03*
X138270000Y-101310000D03*
X138270000Y-98770000D03*
X140810000Y-101310000D03*
X140810000Y-98770000D03*
X143350000Y-101310000D03*
X143350000Y-98770000D03*
X145890000Y-101310000D03*
X145890000Y-98770000D03*
X148430000Y-101310000D03*
X148430000Y-98770000D03*
X150970000Y-101310000D03*
X150970000Y-98770000D03*
X153510000Y-101310000D03*
X153510000Y-98770000D03*
X156050000Y-101310000D03*
X156050000Y-98770000D03*
X158590000Y-101310000D03*
X158590000Y-98770000D03*
X161130000Y-101310000D03*
X161130000Y-98770000D03*
X163670000Y-101310000D03*
X163670000Y-98770000D03*
X166210000Y-101310000D03*
X166210000Y-98770000D03*
X168750000Y-101310000D03*
X168750000Y-98770000D03*
X171290000Y-101310000D03*
X171290000Y-98770000D03*
X173830000Y-101310000D03*
X173830000Y-98770000D03*
X176370000Y-101310000D03*
X176370000Y-98770000D03*
%TD*%
D11*
%TO.C,CN7*%
X173050000Y-104540000D03*
X172050000Y-104540000D03*
X171050000Y-104540000D03*
X170050000Y-104540000D03*
X169050000Y-104540000D03*
D12*
X174350000Y-107065000D03*
X167750000Y-107065000D03*
%TD*%
D17*
%TO.C,CN8*%
X169030000Y-113070000D03*
X170030000Y-113070000D03*
D18*
X167730000Y-110545000D03*
X171330000Y-110545000D03*
%TD*%
D11*
%TO.C,CN3*%
X138700000Y-109870000D03*
X137700000Y-109870000D03*
X136700000Y-109870000D03*
X135700000Y-109870000D03*
D12*
X140000000Y-112395000D03*
X134400000Y-112395000D03*
%TD*%
D19*
%TO.C,CN9*%
X128600000Y-94965000D03*
X128600000Y-91365000D03*
D20*
X126075000Y-93665000D03*
X126075000Y-92665000D03*
%TD*%
D21*
%TO.C,U3*%
X145290000Y-104440000D03*
X145290000Y-106440000D03*
X145290000Y-108440000D03*
X145290000Y-110440000D03*
X145290000Y-112440000D03*
X145290000Y-114440000D03*
X145290000Y-116440000D03*
X145290000Y-118440000D03*
X161290000Y-118440000D03*
X161290000Y-116440000D03*
X161290000Y-114440000D03*
X161290000Y-112440000D03*
X161290000Y-110440000D03*
X161290000Y-108440000D03*
X161290000Y-106441500D03*
X161290000Y-104440000D03*
%TD*%
D14*
%TO.C,CN11*%
X175805000Y-91640000D03*
X175805000Y-95240000D03*
D13*
X178330000Y-92940000D03*
X178330000Y-93940000D03*
%TD*%
M02*
