%TF.GenerationSoftware,KiCad,Pcbnew,9.0.2*%
%TF.CreationDate,2025-09-10T19:31:46+05:30*%
%TF.ProjectId,ProDoc_Board1_2025-09-03,50726f44-6f63-45f4-926f-617264315f32,rev?*%
%TF.SameCoordinates,Original*%
%TF.FileFunction,Legend,Bot*%
%TF.FilePolarity,Positive*%
%FSLAX46Y46*%
G04 Gerber Fmt 4.6, Leading zero omitted, Abs format (unit mm)*
G04 Created by KiCad (PCBNEW 9.0.2) date 2025-09-10 19:31:46*
%MOMM*%
%LPD*%
G01*
G04 APERTURE LIST*
%ADD10C,0.150000*%
%ADD11C,0.000000*%
%ADD12C,0.152500*%
G04 APERTURE END LIST*
D10*
X158374819Y-90911905D02*
X157374819Y-90911905D01*
X157374819Y-90911905D02*
X157374819Y-91150000D01*
X157374819Y-91150000D02*
X157422438Y-91292857D01*
X157422438Y-91292857D02*
X157517676Y-91388095D01*
X157517676Y-91388095D02*
X157612914Y-91435714D01*
X157612914Y-91435714D02*
X157803390Y-91483333D01*
X157803390Y-91483333D02*
X157946247Y-91483333D01*
X157946247Y-91483333D02*
X158136723Y-91435714D01*
X158136723Y-91435714D02*
X158231961Y-91388095D01*
X158231961Y-91388095D02*
X158327200Y-91292857D01*
X158327200Y-91292857D02*
X158374819Y-91150000D01*
X158374819Y-91150000D02*
X158374819Y-90911905D01*
X157470057Y-91864286D02*
X157422438Y-91911905D01*
X157422438Y-91911905D02*
X157374819Y-92007143D01*
X157374819Y-92007143D02*
X157374819Y-92245238D01*
X157374819Y-92245238D02*
X157422438Y-92340476D01*
X157422438Y-92340476D02*
X157470057Y-92388095D01*
X157470057Y-92388095D02*
X157565295Y-92435714D01*
X157565295Y-92435714D02*
X157660533Y-92435714D01*
X157660533Y-92435714D02*
X157803390Y-92388095D01*
X157803390Y-92388095D02*
X158374819Y-91816667D01*
X158374819Y-91816667D02*
X158374819Y-92435714D01*
D11*
%TO.C,D2*%
G36*
X159360000Y-94265000D02*
G01*
X158882500Y-94265000D01*
X158882500Y-93807500D01*
X159360000Y-93807500D01*
X159360000Y-94265000D01*
G37*
G36*
X156957500Y-94252000D02*
G01*
X156480000Y-94252000D01*
X156480000Y-93795000D01*
X156957500Y-93795000D01*
X156957500Y-94252000D01*
G37*
D12*
X159283500Y-94176000D02*
X159266000Y-89491000D01*
X159283500Y-92735000D02*
X156556500Y-92735000D01*
X159190000Y-89491000D02*
X158839500Y-89491000D01*
X156556500Y-94153500D02*
X156556500Y-89485000D01*
X156556500Y-89491000D02*
X156907000Y-89491000D01*
%TD*%
M02*
