%TF.GenerationSoftware,KiCad,Pcbnew,9.0.2*%
%TF.CreationDate,2025-09-10T19:31:46+05:30*%
%TF.ProjectId,ProDoc_Board1_2025-09-03,50726f44-6f63-45f4-926f-617264315f32,rev?*%
%TF.SameCoordinates,Original*%
%TF.FileFunction,Copper,L1,Top*%
%TF.FilePolarity,Positive*%
%FSLAX46Y46*%
G04 Gerber Fmt 4.6, Leading zero omitted, Abs format (unit mm)*
G04 Created by KiCad (PCBNEW 9.0.2) date 2025-09-10 19:31:46*
%MOMM*%
%LPD*%
G01*
G04 APERTURE LIST*
G04 Aperture macros list*
%AMRoundRect*
0 Rectangle with rounded corners*
0 $1 Rounding radius*
0 $2 $3 $4 $5 $6 $7 $8 $9 X,Y pos of 4 corners*
0 Add a 4 corners polygon primitive as box body*
4,1,4,$2,$3,$4,$5,$6,$7,$8,$9,$2,$3,0*
0 Add four circle primitives for the rounded corners*
1,1,$1+$1,$2,$3*
1,1,$1+$1,$4,$5*
1,1,$1+$1,$6,$7*
1,1,$1+$1,$8,$9*
0 Add four rect primitives between the rounded corners*
20,1,$1+$1,$2,$3,$4,$5,0*
20,1,$1+$1,$4,$5,$6,$7,0*
20,1,$1+$1,$6,$7,$8,$9,0*
20,1,$1+$1,$8,$9,$2,$3,0*%
G04 Aperture macros list end*
%TA.AperFunction,SMDPad,CuDef*%
%ADD10R,4.000000X6.000000*%
%TD*%
%TA.AperFunction,SMDPad,CuDef*%
%ADD11RoundRect,0.150000X0.150000X0.625000X-0.150000X0.625000X-0.150000X-0.625000X0.150000X-0.625000X0*%
%TD*%
%TA.AperFunction,SMDPad,CuDef*%
%ADD12RoundRect,0.250000X0.350000X0.650000X-0.350000X0.650000X-0.350000X-0.650000X0.350000X-0.650000X0*%
%TD*%
%TA.AperFunction,SMDPad,CuDef*%
%ADD13RoundRect,0.150000X0.625000X-0.150000X0.625000X0.150000X-0.625000X0.150000X-0.625000X-0.150000X0*%
%TD*%
%TA.AperFunction,SMDPad,CuDef*%
%ADD14RoundRect,0.250000X0.650000X-0.350000X0.650000X0.350000X-0.650000X0.350000X-0.650000X-0.350000X0*%
%TD*%
%TA.AperFunction,ComponentPad*%
%ADD15R,1.575000X1.800000*%
%TD*%
%TA.AperFunction,ComponentPad*%
%ADD16C,1.800000*%
%TD*%
%TA.AperFunction,SMDPad,CuDef*%
%ADD17RoundRect,0.150000X-0.150000X-0.625000X0.150000X-0.625000X0.150000X0.625000X-0.150000X0.625000X0*%
%TD*%
%TA.AperFunction,SMDPad,CuDef*%
%ADD18RoundRect,0.250000X-0.350000X-0.650000X0.350000X-0.650000X0.350000X0.650000X-0.350000X0.650000X0*%
%TD*%
%TA.AperFunction,SMDPad,CuDef*%
%ADD19RoundRect,0.250000X-0.650000X0.350000X-0.650000X-0.350000X0.650000X-0.350000X0.650000X0.350000X0*%
%TD*%
%TA.AperFunction,SMDPad,CuDef*%
%ADD20RoundRect,0.150000X-0.625000X0.150000X-0.625000X-0.150000X0.625000X-0.150000X0.625000X0.150000X0*%
%TD*%
%TA.AperFunction,SMDPad,CuDef*%
%ADD21R,2.200000X1.400000*%
%TD*%
%TA.AperFunction,ViaPad*%
%ADD22C,0.600000*%
%TD*%
%TA.AperFunction,ViaPad*%
%ADD23C,1.000000*%
%TD*%
%TA.AperFunction,Conductor*%
%ADD24C,0.200000*%
%TD*%
%TA.AperFunction,Conductor*%
%ADD25C,1.000000*%
%TD*%
G04 APERTURE END LIST*
D10*
%TO.P,U4,4,OUT-*%
%TO.N,GND*%
X132655000Y-79090000D03*
%TO.P,U4,3,OUT+*%
%TO.N,Net-(U4-OUT+)*%
X132655000Y-93490000D03*
%TO.P,U4,2,IN-*%
%TO.N,GND*%
X171825000Y-79090000D03*
%TO.P,U4,1,IN+*%
%TO.N,Net-(D2-K)*%
X171825000Y-93490000D03*
%TD*%
D11*
%TO.P,CN4,1,1*%
%TO.N,GND*%
X138740000Y-115600000D03*
%TO.P,CN4,2,2*%
%TO.N,Net-(CN2-Pad2)*%
X137740000Y-115600000D03*
%TO.P,CN4,3,3*%
%TO.N,Net-(CN2-Pad3)*%
X136740000Y-115600000D03*
%TO.P,CN4,4,4*%
%TO.N,Net-(CN2-Pad4)*%
X135740000Y-115600000D03*
D12*
%TO.P,CN4,MP*%
%TO.N,N/C*%
X140040000Y-118125000D03*
X134440000Y-118125000D03*
%TD*%
D11*
%TO.P,CN2,1,1*%
%TO.N,GND*%
X138710000Y-104210000D03*
%TO.P,CN2,2,2*%
%TO.N,Net-(CN2-Pad2)*%
X137710000Y-104210000D03*
%TO.P,CN2,3,3*%
%TO.N,Net-(CN2-Pad3)*%
X136710000Y-104210000D03*
%TO.P,CN2,4,4*%
%TO.N,Net-(CN2-Pad4)*%
X135710000Y-104210000D03*
D12*
%TO.P,CN2,MP*%
%TO.N,N/C*%
X140010000Y-106735000D03*
X134410000Y-106735000D03*
%TD*%
D13*
%TO.P,J1,1,Pin_1*%
%TO.N,Net-(J1-Pin_1)*%
X128615000Y-109775000D03*
%TO.P,J1,2,Pin_2*%
%TO.N,Net-(J1-Pin_2)*%
X128615000Y-108775000D03*
%TO.P,J1,3,Pin_3*%
%TO.N,Net-(J1-Pin_3)*%
X128615000Y-107775000D03*
%TO.P,J1,4,Pin_4*%
%TO.N,GND*%
X128615000Y-106775000D03*
%TO.P,J1,5,Pin_5*%
X128615000Y-105775000D03*
D14*
%TO.P,J1,MP*%
%TO.N,N/C*%
X126090000Y-111075000D03*
X126090000Y-104475000D03*
%TD*%
%TO.P,CN10,MP*%
%TO.N,N/C*%
X175817400Y-85530000D03*
X175817400Y-89130000D03*
D13*
%TO.P,CN10,2,2*%
%TO.N,Net-(CN10-Pad2)*%
X178342400Y-86830000D03*
%TO.P,CN10,1,1*%
%TO.N,GND*%
X178342400Y-87830000D03*
%TD*%
D15*
%TO.P,H1,1,1*%
%TO.N,Net-(CN2-Pad4)*%
X128110000Y-101310000D03*
D16*
%TO.P,H1,2,2*%
%TO.N,Net-(U4-OUT+)*%
X128110000Y-98770000D03*
%TO.P,H1,3,3*%
%TO.N,Net-(CN2-Pad3)*%
X130650000Y-101310000D03*
%TO.P,H1,4,4*%
%TO.N,Net-(J1-Pin_1)*%
X130650000Y-98770000D03*
%TO.P,H1,5,5*%
%TO.N,Net-(CN2-Pad2)*%
X133190000Y-101310000D03*
%TO.P,H1,6,6*%
%TO.N,unconnected-(H1-Pad6)*%
X133190000Y-98770000D03*
%TO.P,H1,7,7*%
%TO.N,unconnected-(H1-Pad7)*%
X135730000Y-101310000D03*
%TO.P,H1,8,8*%
%TO.N,Net-(J1-Pin_2)*%
X135730000Y-98770000D03*
%TO.P,H1,9,9*%
%TO.N,GND*%
X138270000Y-101310000D03*
%TO.P,H1,10,10*%
%TO.N,Net-(J1-Pin_3)*%
X138270000Y-98770000D03*
%TO.P,H1,11,11*%
%TO.N,Net-(CN8-Pad2)*%
X140810000Y-101310000D03*
%TO.P,H1,12,12*%
%TO.N,unconnected-(H1-Pad12)*%
X140810000Y-98770000D03*
%TO.P,H1,13,13*%
%TO.N,unconnected-(H1-Pad13)*%
X143350000Y-101310000D03*
%TO.P,H1,14,14*%
%TO.N,GND*%
X143350000Y-98770000D03*
%TO.P,H1,15,15*%
%TO.N,Net-(U3-DIO0)*%
X145890000Y-101310000D03*
%TO.P,H1,16,16*%
%TO.N,unconnected-(H1-Pad16)*%
X145890000Y-98770000D03*
%TO.P,H1,17,17*%
%TO.N,Net-(U3-3.3V)*%
X148430000Y-101310000D03*
%TO.P,H1,18,18*%
%TO.N,unconnected-(H1-Pad18)*%
X148430000Y-98770000D03*
%TO.P,H1,19,19*%
%TO.N,Net-(U3-MOSI)*%
X150970000Y-101310000D03*
%TO.P,H1,20,20*%
%TO.N,unconnected-(H1-Pad20)*%
X150970000Y-98770000D03*
%TO.P,H1,21,21*%
%TO.N,Net-(U3-MISO)*%
X153510000Y-101310000D03*
%TO.P,H1,22,22*%
%TO.N,unconnected-(H1-Pad22)*%
X153510000Y-98770000D03*
%TO.P,H1,23,23*%
%TO.N,Net-(U3-SCK)*%
X156050000Y-101310000D03*
%TO.P,H1,24,24*%
%TO.N,Net-(U3-NSS)*%
X156050000Y-98770000D03*
%TO.P,H1,25,25*%
%TO.N,GND*%
X158590000Y-101310000D03*
%TO.P,H1,26,26*%
%TO.N,unconnected-(H1-Pad26)*%
X158590000Y-98770000D03*
%TO.P,H1,27,27*%
%TO.N,unconnected-(H1-Pad27)*%
X161130000Y-101310000D03*
%TO.P,H1,28,28*%
%TO.N,unconnected-(H1-Pad28)*%
X161130000Y-98770000D03*
%TO.P,H1,29,29*%
%TO.N,unconnected-(H1-Pad29)*%
X163670000Y-101310000D03*
%TO.P,H1,30,30*%
%TO.N,unconnected-(H1-Pad30)*%
X163670000Y-98770000D03*
%TO.P,H1,31,31*%
%TO.N,Net-(CN7-Pad5)*%
X166210000Y-101310000D03*
%TO.P,H1,32,32*%
%TO.N,unconnected-(H1-Pad32)*%
X166210000Y-98770000D03*
%TO.P,H1,33,33*%
%TO.N,Net-(CN7-Pad4)*%
X168750000Y-101310000D03*
%TO.P,H1,34,34*%
%TO.N,unconnected-(H1-Pad34)*%
X168750000Y-98770000D03*
%TO.P,H1,35,35*%
%TO.N,Net-(CN7-Pad3)*%
X171290000Y-101310000D03*
%TO.P,H1,36,36*%
%TO.N,unconnected-(H1-Pad36)*%
X171290000Y-98770000D03*
%TO.P,H1,37,37*%
%TO.N,Net-(CN7-Pad2)*%
X173830000Y-101310000D03*
%TO.P,H1,38,38*%
%TO.N,unconnected-(H1-Pad38)*%
X173830000Y-98770000D03*
%TO.P,H1,39,39*%
%TO.N,GND*%
X176370000Y-101310000D03*
%TO.P,H1,40,40*%
%TO.N,unconnected-(H1-Pad40)*%
X176370000Y-98770000D03*
%TD*%
D11*
%TO.P,CN7,1,1*%
%TO.N,GND*%
X173050000Y-104540000D03*
%TO.P,CN7,2,2*%
%TO.N,Net-(CN7-Pad2)*%
X172050000Y-104540000D03*
%TO.P,CN7,3,3*%
%TO.N,Net-(CN7-Pad3)*%
X171050000Y-104540000D03*
%TO.P,CN7,4,4*%
%TO.N,Net-(CN7-Pad4)*%
X170050000Y-104540000D03*
%TO.P,CN7,5,5*%
%TO.N,Net-(CN7-Pad5)*%
X169050000Y-104540000D03*
D12*
%TO.P,CN7,MP*%
%TO.N,N/C*%
X174350000Y-107065000D03*
X167750000Y-107065000D03*
%TD*%
D17*
%TO.P,CN8,1,1*%
%TO.N,GND*%
X169030000Y-113070000D03*
%TO.P,CN8,2,2*%
%TO.N,Net-(CN8-Pad2)*%
X170030000Y-113070000D03*
D18*
%TO.P,CN8,MP*%
%TO.N,N/C*%
X167730000Y-110545000D03*
X171330000Y-110545000D03*
%TD*%
D11*
%TO.P,CN3,1,1*%
%TO.N,GND*%
X138700000Y-109870000D03*
%TO.P,CN3,2,2*%
%TO.N,Net-(CN2-Pad2)*%
X137700000Y-109870000D03*
%TO.P,CN3,3,3*%
%TO.N,Net-(CN2-Pad3)*%
X136700000Y-109870000D03*
%TO.P,CN3,4,4*%
%TO.N,Net-(CN2-Pad4)*%
X135700000Y-109870000D03*
D12*
%TO.P,CN3,MP*%
%TO.N,N/C*%
X140000000Y-112395000D03*
X134400000Y-112395000D03*
%TD*%
D19*
%TO.P,CN9,MP*%
%TO.N,N/C*%
X128600000Y-94965000D03*
X128600000Y-91365000D03*
D20*
%TO.P,CN9,2,2*%
%TO.N,Net-(U4-OUT+)*%
X126075000Y-93665000D03*
%TO.P,CN9,1,1*%
%TO.N,GND*%
X126075000Y-92665000D03*
%TD*%
D21*
%TO.P,U3,1,GND*%
%TO.N,unconnected-(U3-GND-Pad1)*%
X145290000Y-104440000D03*
%TO.P,U3,2,GND*%
%TO.N,unconnected-(U3-GND-Pad2)*%
X145290000Y-106440000D03*
%TO.P,U3,3,3.3V*%
%TO.N,Net-(U3-3.3V)*%
X145290000Y-108440000D03*
%TO.P,U3,4,RESET*%
%TO.N,unconnected-(U3-RESET-Pad4)*%
X145290000Y-110440000D03*
%TO.P,U3,5,DIO0*%
%TO.N,Net-(U3-DIO0)*%
X145290000Y-112440000D03*
%TO.P,U3,6,DIO1*%
%TO.N,unconnected-(U3-DIO1-Pad6)*%
X145290000Y-114440000D03*
%TO.P,U3,7,DIO2*%
%TO.N,unconnected-(U3-DIO2-Pad7)*%
X145290000Y-116440000D03*
%TO.P,U3,8,DIO3*%
%TO.N,unconnected-(U3-DIO3-Pad8)*%
X145290000Y-118440000D03*
%TO.P,U3,9,GND*%
%TO.N,unconnected-(U3-GND-Pad9)*%
X161290000Y-118440000D03*
%TO.P,U3,10,DIO4*%
%TO.N,unconnected-(U3-DIO4-Pad10)*%
X161290000Y-116440000D03*
%TO.P,U3,11,DIO5*%
%TO.N,unconnected-(U3-DIO5-Pad11)*%
X161290000Y-114440000D03*
%TO.P,U3,12,SCK*%
%TO.N,Net-(U3-SCK)*%
X161290000Y-112440000D03*
%TO.P,U3,13,MISO*%
%TO.N,Net-(U3-MISO)*%
X161290000Y-110440000D03*
%TO.P,U3,14,MOSI*%
%TO.N,Net-(U3-MOSI)*%
X161290000Y-108440000D03*
%TO.P,U3,15,NSS*%
%TO.N,Net-(U3-NSS)*%
X161290000Y-106441500D03*
%TO.P,U3,16,GND*%
%TO.N,GND*%
X161290000Y-104440000D03*
%TD*%
D14*
%TO.P,CN11,MP*%
%TO.N,N/C*%
X175805000Y-91640000D03*
X175805000Y-95240000D03*
D13*
%TO.P,CN11,2,2*%
%TO.N,Net-(D2-A)*%
X178330000Y-92940000D03*
%TO.P,CN11,1,1*%
%TO.N,Net-(CN10-Pad2)*%
X178330000Y-93940000D03*
%TD*%
D22*
%TO.N,Net-(U3-MISO)*%
X152393000Y-105644000D03*
%TO.N,Net-(U3-DIO0)*%
X143660000Y-112208000D03*
%TO.N,Net-(U3-NSS)*%
X157347000Y-106442000D03*
D23*
%TO.N,Net-(D2-K)*%
X164130000Y-94430000D03*
X164080000Y-92870000D03*
D22*
%TO.N,Net-(J1-Pin_2)*%
X130112000Y-108215000D03*
D23*
%TO.N,Net-(D2-A)*%
X178950000Y-91270000D03*
X177440000Y-91200000D03*
D22*
%TO.N,Net-(CN8-Pad2)*%
X147165200Y-118541800D03*
%TO.N,Net-(J1-Pin_1)*%
X126610000Y-108540000D03*
%TO.N,GND*%
X130170000Y-105800000D03*
%TD*%
D24*
%TO.N,Net-(U3-MOSI)*%
X157251700Y-102944300D02*
X157188300Y-103007700D01*
X157251700Y-100804800D02*
X157251700Y-102944300D01*
X156536900Y-100090000D02*
X157251700Y-100804800D01*
X152988000Y-100090000D02*
X156536900Y-100090000D01*
X151839800Y-100440200D02*
X152637800Y-100440200D01*
X152637800Y-100440200D02*
X152988000Y-100090000D01*
X150970000Y-101310000D02*
X151839800Y-100440200D01*
%TO.N,Net-(U3-3.3V)*%
X145692000Y-108440000D02*
X145290000Y-108440000D01*
X148230000Y-105902000D02*
X145692000Y-108440000D01*
X148870000Y-101270000D02*
X148730000Y-101270000D01*
X148230000Y-101240000D02*
X148230000Y-103571000D01*
X148230000Y-103571000D02*
X148230000Y-105902000D01*
X148430000Y-103371000D02*
X148430000Y-101310000D01*
X148230000Y-103571000D02*
X148430000Y-103371000D01*
X148690000Y-101310000D02*
X148730000Y-101270000D01*
X148430000Y-101310000D02*
X148690000Y-101310000D01*
%TO.N,Net-(CN2-Pad4)*%
X135710000Y-109860000D02*
X135700000Y-109870000D01*
X135710000Y-104210000D02*
X135710000Y-109860000D01*
X130880000Y-104210000D02*
X135710000Y-104210000D01*
X135700000Y-115560000D02*
X135740000Y-115600000D01*
X135700000Y-109870000D02*
X135700000Y-115560000D01*
X128110000Y-101440000D02*
X128110000Y-101310000D01*
X128780000Y-102110000D02*
X128110000Y-101440000D01*
X127910000Y-101240000D02*
X128780000Y-102110000D01*
X128780000Y-102110000D02*
X130880000Y-104210000D01*
%TO.N,Net-(U3-MISO)*%
X157189000Y-110440000D02*
X152393000Y-105644000D01*
X161290000Y-110440000D02*
X157189000Y-110440000D01*
%TO.N,Net-(U3-SCK)*%
X158339000Y-112440000D02*
X161290000Y-112440000D01*
X151792000Y-105893000D02*
X158339000Y-112440000D01*
X151792000Y-105298000D02*
X151792000Y-105893000D01*
X155450000Y-101910000D02*
X156050000Y-101310000D01*
X155180000Y-101910000D02*
X155450000Y-101910000D01*
X155850000Y-101240000D02*
X155180000Y-101910000D01*
X155180000Y-101910000D02*
X151792000Y-105298000D01*
%TO.N,Net-(U3-DIO0)*%
X145058000Y-112208000D02*
X145290000Y-112440000D01*
X143660000Y-112208000D02*
X145058000Y-112208000D01*
%TO.N,Net-(U3-NSS)*%
X159888000Y-106442000D02*
X157347000Y-106442000D01*
X161289500Y-106442000D02*
X161290000Y-106441500D01*
X160589000Y-106442000D02*
X161289500Y-106442000D01*
X161290000Y-106442000D02*
X160589000Y-106442000D01*
X160589000Y-106442000D02*
X159888000Y-106442000D01*
X161290000Y-106442000D02*
X160589000Y-106442000D01*
X160589000Y-106442000D02*
X159888000Y-106442000D01*
%TO.N,Net-(U3-MOSI)*%
X155375000Y-105975000D02*
X157840000Y-108440000D01*
X155375000Y-104821000D02*
X155375000Y-105975000D01*
X157840000Y-108440000D02*
X161290000Y-108440000D01*
X157121800Y-103074200D02*
X155375000Y-104821000D01*
X157188300Y-103007700D02*
X157121800Y-103074200D01*
X157188300Y-103007700D02*
X157188200Y-103007700D01*
D25*
%TO.N,Net-(D2-K)*%
X164130000Y-94430000D02*
X166300000Y-94430000D01*
X167860000Y-92870000D02*
X171130000Y-92870000D01*
X166300000Y-94430000D02*
X167860000Y-92870000D01*
X164080000Y-92870000D02*
X167860000Y-92870000D01*
X171130000Y-92870000D02*
X171750000Y-93490000D01*
D24*
X171825000Y-93490000D02*
X171750000Y-93490000D01*
%TO.N,Net-(J1-Pin_2)*%
X129902000Y-108425000D02*
X130112000Y-108215000D01*
X129552000Y-108775000D02*
X129902000Y-108425000D01*
X128615000Y-108775000D02*
X129552000Y-108775000D01*
%TO.N,Net-(J1-Pin_3)*%
X127604000Y-107775000D02*
X124280000Y-104451000D01*
X128615000Y-107775000D02*
X127604000Y-107775000D01*
X124280000Y-104451000D02*
X124280000Y-103177000D01*
X124280000Y-103177000D02*
X124280000Y-102949900D01*
X137000000Y-100040000D02*
X138270000Y-98770000D01*
X127189900Y-100040000D02*
X137000000Y-100040000D01*
X124280000Y-102949900D02*
X127189900Y-100040000D01*
D25*
%TO.N,Net-(D2-A)*%
X178950000Y-91470000D02*
X178950000Y-91270000D01*
X178330000Y-92090000D02*
X178950000Y-91470000D01*
X178330000Y-92940000D02*
X178330000Y-92090000D01*
X178330000Y-92090000D02*
X177440000Y-91200000D01*
D24*
%TO.N,Net-(CN10-Pad2)*%
X178342000Y-86830000D02*
X178759000Y-86830000D01*
D25*
X178759000Y-86830000D02*
X178342400Y-86830000D01*
X178342400Y-86830000D02*
X178342000Y-86830000D01*
D24*
X178531000Y-94141000D02*
X178330000Y-93940000D01*
X178721000Y-94141000D02*
X178531000Y-94141000D01*
D25*
X178330000Y-94141000D02*
X178721000Y-94141000D01*
X179325000Y-86830000D02*
X178759000Y-86830000D01*
X180450000Y-87954900D02*
X179325000Y-86830000D01*
X180450000Y-92802700D02*
X180450000Y-87954900D01*
X179112000Y-94141000D02*
X180450000Y-92802700D01*
X178721000Y-94141000D02*
X179112000Y-94141000D01*
%TO.N,Net-(U4-OUT+)*%
X126075000Y-96845000D02*
X128000000Y-98770000D01*
X126075000Y-93665000D02*
X126075000Y-96845000D01*
X127580000Y-93490000D02*
X127404000Y-93666000D01*
X132580000Y-93490000D02*
X127580000Y-93490000D01*
D24*
X128110000Y-98770000D02*
X128000000Y-98770000D01*
X126076000Y-93666000D02*
X126075000Y-93665000D01*
X126739500Y-93666000D02*
X126076000Y-93666000D01*
D25*
X127404000Y-93666000D02*
X126739500Y-93666000D01*
X126739500Y-93666000D02*
X126075000Y-93666000D01*
D24*
X132655000Y-93490000D02*
X132580000Y-93490000D01*
%TO.N,Net-(CN8-Pad2)*%
X170030000Y-113601900D02*
X170030000Y-113070000D01*
X164190200Y-119441700D02*
X170030000Y-113601900D01*
X148065100Y-119441700D02*
X164190200Y-119441700D01*
X147165200Y-118541800D02*
X148065100Y-119441700D01*
%TO.N,Net-(CN7-Pad2)*%
X172050000Y-102820000D02*
X172050000Y-104540000D01*
X173630000Y-101240000D02*
X172050000Y-102820000D01*
X173700000Y-101310000D02*
X173630000Y-101240000D01*
X173830000Y-101310000D02*
X173700000Y-101310000D01*
%TO.N,Net-(CN7-Pad3)*%
X171090000Y-104500000D02*
X171050000Y-104540000D01*
X171090000Y-101510000D02*
X171290000Y-101310000D01*
X171090000Y-102368600D02*
X171090000Y-101510000D01*
X171090000Y-101240000D02*
X171090000Y-102368600D01*
X171090000Y-102368600D02*
X171090000Y-104500000D01*
%TO.N,Net-(CN7-Pad5)*%
X169050000Y-104280000D02*
X169050000Y-104540000D01*
X166210000Y-101440000D02*
X166210000Y-101310000D01*
X166880000Y-102110000D02*
X166210000Y-101440000D01*
X166010000Y-101240000D02*
X166880000Y-102110000D01*
X166880000Y-102110000D02*
X169050000Y-104280000D01*
%TO.N,Net-(CN7-Pad4)*%
X170050000Y-102740000D02*
X170050000Y-104540000D01*
X168750000Y-101440000D02*
X168750000Y-101310000D01*
X169300000Y-101990000D02*
X168750000Y-101440000D01*
X168550000Y-101240000D02*
X169300000Y-101990000D01*
X169300000Y-101990000D02*
X170050000Y-102740000D01*
%TO.N,Net-(CN2-Pad3)*%
X136710000Y-109870000D02*
X136740000Y-109900000D01*
X136700000Y-109870000D02*
X136710000Y-109870000D01*
X136740000Y-109900000D02*
X136740000Y-115600000D01*
X130650000Y-101440000D02*
X130650000Y-101310000D01*
X131050500Y-101840500D02*
X130650000Y-101440000D01*
X131651000Y-102441000D02*
X131050500Y-101840500D01*
X131050500Y-101840500D02*
X130450000Y-101240000D01*
X136710000Y-109870000D02*
X136710000Y-106970300D01*
X136710000Y-106970300D02*
X136710000Y-105590100D01*
X136710000Y-105590100D02*
X136710000Y-104210000D01*
X132292800Y-103082800D02*
X131651000Y-102441000D01*
X136029000Y-103082800D02*
X132292800Y-103082800D01*
X136710000Y-103763800D02*
X136029000Y-103082800D01*
X136710000Y-104210000D02*
X136710000Y-103763800D01*
%TO.N,Net-(CN2-Pad2)*%
X137740000Y-109900000D02*
X137740000Y-115600000D01*
X137710000Y-109870000D02*
X137740000Y-109900000D01*
X137700000Y-109870000D02*
X137710000Y-109870000D01*
X137710000Y-109870000D02*
X137710000Y-104210000D01*
X137710000Y-104210000D02*
X137710000Y-103876300D01*
X137710000Y-104210000D02*
X137710000Y-103876300D01*
X137710000Y-103876300D02*
X137710000Y-103793000D01*
X137710000Y-103876300D02*
X137710000Y-103793000D01*
X137710000Y-103793000D02*
X137710000Y-103672000D01*
X134406800Y-102526800D02*
X133190000Y-101310000D01*
X136564800Y-102526800D02*
X134406800Y-102526800D01*
X137710000Y-103672000D02*
X136564800Y-102526800D01*
%TO.N,Net-(J1-Pin_1)*%
X127845000Y-109775000D02*
X126610000Y-108540000D01*
X128615000Y-109775000D02*
X127845000Y-109775000D01*
%TD*%
%TA.AperFunction,Conductor*%
%TO.N,GND*%
G36*
X179605677Y-76109685D02*
G01*
X179626319Y-76126319D01*
X181170000Y-77670000D01*
X181183452Y-77675572D01*
X181237856Y-77719413D01*
X181259921Y-77785707D01*
X181260000Y-77790133D01*
X181260000Y-87050627D01*
X181240315Y-87117666D01*
X181187511Y-87163421D01*
X181118353Y-87173365D01*
X181054797Y-87144340D01*
X181048323Y-87138312D01*
X180030480Y-86120559D01*
X180030479Y-86120558D01*
X179962782Y-86052861D01*
X179962766Y-86052850D01*
X179962748Y-86052832D01*
X179884005Y-86000223D01*
X179883929Y-86000173D01*
X179798912Y-85943366D01*
X179798890Y-85943354D01*
X179713920Y-85908162D01*
X179713920Y-85908160D01*
X179713916Y-85908160D01*
X179616831Y-85867947D01*
X179616798Y-85867936D01*
X179512339Y-85847162D01*
X179512335Y-85847161D01*
X179423541Y-85829498D01*
X179423504Y-85829495D01*
X179423496Y-85829495D01*
X179326172Y-85829499D01*
X179314006Y-85829500D01*
X178243457Y-85829500D01*
X178050170Y-85867947D01*
X178050160Y-85867950D01*
X177868088Y-85943366D01*
X177770456Y-86008602D01*
X177703778Y-86029480D01*
X177701565Y-86029500D01*
X177651698Y-86029500D01*
X177614832Y-86032401D01*
X177614826Y-86032402D01*
X177457006Y-86078254D01*
X177457005Y-86078254D01*
X177397850Y-86113238D01*
X177330126Y-86130419D01*
X177263863Y-86108259D01*
X177220101Y-86053793D01*
X177211372Y-85993903D01*
X177217900Y-85930009D01*
X177217899Y-85129992D01*
X177207399Y-85027203D01*
X177152214Y-84860666D01*
X177060112Y-84711344D01*
X176936056Y-84587288D01*
X176786734Y-84495186D01*
X176620197Y-84440001D01*
X176620195Y-84440000D01*
X176517410Y-84429500D01*
X175117398Y-84429500D01*
X175117381Y-84429501D01*
X175014603Y-84440000D01*
X175014600Y-84440001D01*
X174848068Y-84495185D01*
X174848063Y-84495187D01*
X174698742Y-84587289D01*
X174574689Y-84711342D01*
X174482587Y-84860663D01*
X174482586Y-84860666D01*
X174427401Y-85027203D01*
X174427401Y-85027204D01*
X174427400Y-85027204D01*
X174416900Y-85129983D01*
X174416900Y-85930001D01*
X174416901Y-85930019D01*
X174427400Y-86032796D01*
X174427401Y-86032799D01*
X174459750Y-86130419D01*
X174482586Y-86199334D01*
X174574688Y-86348656D01*
X174698744Y-86472712D01*
X174848066Y-86564814D01*
X175014603Y-86619999D01*
X175117391Y-86630500D01*
X176517408Y-86630499D01*
X176620197Y-86619999D01*
X176786734Y-86564814D01*
X176877804Y-86508641D01*
X176945196Y-86490202D01*
X177011859Y-86511125D01*
X177056629Y-86564767D01*
X177066900Y-86614181D01*
X177066900Y-87045701D01*
X177069801Y-87082567D01*
X177069802Y-87082573D01*
X177115654Y-87240393D01*
X177115655Y-87240396D01*
X177199317Y-87381862D01*
X177199323Y-87381870D01*
X177315529Y-87498076D01*
X177315533Y-87498079D01*
X177315535Y-87498081D01*
X177457002Y-87581744D01*
X177498624Y-87593836D01*
X177614826Y-87627597D01*
X177614829Y-87627597D01*
X177614831Y-87627598D01*
X177651706Y-87630500D01*
X177701565Y-87630500D01*
X177768604Y-87650185D01*
X177770456Y-87651398D01*
X177868086Y-87716632D01*
X178050165Y-87792051D01*
X178050169Y-87792051D01*
X178050170Y-87792052D01*
X178243456Y-87830500D01*
X178243459Y-87830500D01*
X178243859Y-87830500D01*
X178660459Y-87830500D01*
X178859246Y-87830500D01*
X178926285Y-87850185D01*
X178946923Y-87866815D01*
X179267426Y-88187289D01*
X179413177Y-88333026D01*
X179446665Y-88394347D01*
X179449500Y-88420711D01*
X179449500Y-90208387D01*
X179429815Y-90275426D01*
X179377011Y-90321181D01*
X179307853Y-90331125D01*
X179278049Y-90322949D01*
X179254925Y-90313371D01*
X179241835Y-90307949D01*
X179241833Y-90307948D01*
X179241829Y-90307947D01*
X179048543Y-90269500D01*
X179048541Y-90269500D01*
X178851459Y-90269500D01*
X178851457Y-90269500D01*
X178658170Y-90307947D01*
X178658160Y-90307950D01*
X178476092Y-90383364D01*
X178476079Y-90383371D01*
X178312223Y-90492857D01*
X178308780Y-90495683D01*
X178244470Y-90522996D01*
X178175602Y-90511205D01*
X178142433Y-90487511D01*
X178077785Y-90422863D01*
X178077781Y-90422860D01*
X177913920Y-90313371D01*
X177913911Y-90313366D01*
X177841315Y-90283296D01*
X177785165Y-90260038D01*
X177731836Y-90237949D01*
X177731832Y-90237948D01*
X177731828Y-90237946D01*
X177635188Y-90218724D01*
X177538544Y-90199500D01*
X177538541Y-90199500D01*
X177341459Y-90199500D01*
X177341455Y-90199500D01*
X177249437Y-90217803D01*
X177249424Y-90217806D01*
X177244812Y-90218724D01*
X177148164Y-90237949D01*
X177094834Y-90260038D01*
X177087932Y-90262896D01*
X177087928Y-90262898D01*
X177079929Y-90266212D01*
X177010459Y-90273678D01*
X176947981Y-90242401D01*
X176912331Y-90182311D01*
X176914827Y-90112486D01*
X176944795Y-90063972D01*
X177060112Y-89948656D01*
X177152214Y-89799334D01*
X177207399Y-89632797D01*
X177217900Y-89530009D01*
X177217899Y-88729992D01*
X177207399Y-88627203D01*
X177152214Y-88460666D01*
X177060112Y-88311344D01*
X176936056Y-88187288D01*
X176786734Y-88095186D01*
X176620197Y-88040001D01*
X176620195Y-88040000D01*
X176517410Y-88029500D01*
X175117398Y-88029500D01*
X175117381Y-88029501D01*
X175014603Y-88040000D01*
X175014600Y-88040001D01*
X174848068Y-88095185D01*
X174848063Y-88095187D01*
X174698742Y-88187289D01*
X174574689Y-88311342D01*
X174482587Y-88460663D01*
X174482586Y-88460666D01*
X174427401Y-88627203D01*
X174427401Y-88627204D01*
X174427400Y-88627204D01*
X174416900Y-88729983D01*
X174416900Y-89530001D01*
X174416901Y-89530019D01*
X174427400Y-89632796D01*
X174427401Y-89632799D01*
X174482585Y-89799331D01*
X174482586Y-89799334D01*
X174574688Y-89948656D01*
X174698744Y-90072712D01*
X174848066Y-90164814D01*
X175014603Y-90219999D01*
X175117391Y-90230500D01*
X176517408Y-90230499D01*
X176620197Y-90219999D01*
X176713969Y-90188925D01*
X176783796Y-90186524D01*
X176843838Y-90222255D01*
X176875031Y-90284776D01*
X176867471Y-90354235D01*
X176837125Y-90397705D01*
X176829964Y-90404321D01*
X176802218Y-90422861D01*
X176708794Y-90516284D01*
X176706978Y-90517963D01*
X176677780Y-90532440D01*
X176649182Y-90548056D01*
X176645918Y-90548239D01*
X176644381Y-90549002D01*
X176640348Y-90548553D01*
X176610223Y-90550248D01*
X176505011Y-90539500D01*
X175104998Y-90539500D01*
X175104981Y-90539501D01*
X175002203Y-90550000D01*
X175002200Y-90550001D01*
X174835668Y-90605185D01*
X174835663Y-90605187D01*
X174686342Y-90697289D01*
X174562288Y-90821343D01*
X174562285Y-90821347D01*
X174555036Y-90833100D01*
X174503087Y-90879824D01*
X174434124Y-90891044D01*
X174370043Y-90863199D01*
X174331188Y-90805130D01*
X174325499Y-90768001D01*
X174325499Y-90442129D01*
X174325498Y-90442123D01*
X174325497Y-90442116D01*
X174319183Y-90383371D01*
X174319091Y-90382516D01*
X174268797Y-90247671D01*
X174268793Y-90247664D01*
X174182547Y-90132455D01*
X174182544Y-90132452D01*
X174067335Y-90046206D01*
X174067328Y-90046202D01*
X173932482Y-89995908D01*
X173932483Y-89995908D01*
X173872883Y-89989501D01*
X173872881Y-89989500D01*
X173872873Y-89989500D01*
X173872864Y-89989500D01*
X169777129Y-89989500D01*
X169777123Y-89989501D01*
X169717516Y-89995908D01*
X169582671Y-90046202D01*
X169582664Y-90046206D01*
X169467455Y-90132452D01*
X169467452Y-90132455D01*
X169381206Y-90247664D01*
X169381202Y-90247671D01*
X169330908Y-90382517D01*
X169326571Y-90422861D01*
X169324501Y-90442123D01*
X169324500Y-90442135D01*
X169324500Y-91745500D01*
X169304815Y-91812539D01*
X169252011Y-91858294D01*
X169200500Y-91869500D01*
X163981457Y-91869500D01*
X163788170Y-91907947D01*
X163788160Y-91907950D01*
X163606092Y-91983364D01*
X163606079Y-91983371D01*
X163442218Y-92092860D01*
X163442214Y-92092863D01*
X163302863Y-92232214D01*
X163302860Y-92232218D01*
X163193371Y-92396079D01*
X163193364Y-92396092D01*
X163117950Y-92578160D01*
X163117947Y-92578170D01*
X163079500Y-92771456D01*
X163079500Y-92771459D01*
X163079500Y-92968541D01*
X163079500Y-92968543D01*
X163079499Y-92968543D01*
X163117947Y-93161829D01*
X163117950Y-93161839D01*
X163193364Y-93343907D01*
X163193371Y-93343920D01*
X163302860Y-93507781D01*
X163302863Y-93507785D01*
X163382397Y-93587319D01*
X163415882Y-93648642D01*
X163410898Y-93718334D01*
X163382399Y-93762680D01*
X163352858Y-93792221D01*
X163243371Y-93956079D01*
X163243364Y-93956092D01*
X163167950Y-94138160D01*
X163167947Y-94138170D01*
X163129500Y-94331456D01*
X163129500Y-94331459D01*
X163129500Y-94528541D01*
X163129500Y-94528543D01*
X163129499Y-94528543D01*
X163167947Y-94721829D01*
X163167950Y-94721839D01*
X163243364Y-94903907D01*
X163243371Y-94903920D01*
X163352860Y-95067781D01*
X163352863Y-95067785D01*
X163492214Y-95207136D01*
X163492218Y-95207139D01*
X163656079Y-95316628D01*
X163656092Y-95316635D01*
X163838160Y-95392049D01*
X163838165Y-95392051D01*
X163838169Y-95392051D01*
X163838170Y-95392052D01*
X164031456Y-95430500D01*
X164031459Y-95430500D01*
X166398542Y-95430500D01*
X166429566Y-95424328D01*
X166495188Y-95411275D01*
X166591836Y-95392051D01*
X166645165Y-95369961D01*
X166773914Y-95316632D01*
X166937782Y-95207139D01*
X167077139Y-95067782D01*
X167077140Y-95067779D01*
X167084206Y-95060714D01*
X167084208Y-95060710D01*
X168238101Y-93906819D01*
X168299424Y-93873334D01*
X168325782Y-93870500D01*
X169200501Y-93870500D01*
X169267540Y-93890185D01*
X169313295Y-93942989D01*
X169324501Y-93994500D01*
X169324501Y-96537876D01*
X169330908Y-96597483D01*
X169381202Y-96732328D01*
X169381206Y-96732335D01*
X169467452Y-96847544D01*
X169467455Y-96847547D01*
X169582664Y-96933793D01*
X169582671Y-96933797D01*
X169717517Y-96984091D01*
X169717516Y-96984091D01*
X169724444Y-96984835D01*
X169777127Y-96990500D01*
X173872872Y-96990499D01*
X173932483Y-96984091D01*
X174067331Y-96933796D01*
X174182546Y-96847546D01*
X174268796Y-96732331D01*
X174319091Y-96597483D01*
X174325500Y-96537873D01*
X174325499Y-96111995D01*
X174345183Y-96044960D01*
X174397987Y-95999205D01*
X174467146Y-95989261D01*
X174530702Y-96018286D01*
X174555036Y-96046900D01*
X174562285Y-96058652D01*
X174562288Y-96058656D01*
X174686344Y-96182712D01*
X174835666Y-96274814D01*
X175002203Y-96329999D01*
X175104991Y-96340500D01*
X176505008Y-96340499D01*
X176607797Y-96329999D01*
X176774334Y-96274814D01*
X176923656Y-96182712D01*
X177047712Y-96058656D01*
X177139814Y-95909334D01*
X177194999Y-95742797D01*
X177205500Y-95640009D01*
X177205499Y-94839992D01*
X177198971Y-94776093D01*
X177200521Y-94767753D01*
X177198392Y-94759539D01*
X177206811Y-94733919D01*
X177211740Y-94707404D01*
X177217555Y-94701223D01*
X177220205Y-94693162D01*
X177241137Y-94676161D01*
X177259620Y-94656519D01*
X177267853Y-94654463D01*
X177274441Y-94649114D01*
X177301244Y-94646129D01*
X177327410Y-94639598D01*
X177337256Y-94642118D01*
X177343882Y-94641381D01*
X177365235Y-94649282D01*
X177377412Y-94652400D01*
X177381512Y-94654432D01*
X177444602Y-94691744D01*
X177473973Y-94700276D01*
X177483862Y-94705180D01*
X177501742Y-94721701D01*
X177522259Y-94734804D01*
X177531882Y-94747384D01*
X177552862Y-94778784D01*
X177692214Y-94918136D01*
X177692218Y-94918139D01*
X177856079Y-95027628D01*
X177856092Y-95027635D01*
X178038088Y-95103019D01*
X178038165Y-95103051D01*
X178038169Y-95103051D01*
X178038170Y-95103052D01*
X178231456Y-95141500D01*
X178231459Y-95141500D01*
X178622459Y-95141500D01*
X179013517Y-95141500D01*
X179013572Y-95141511D01*
X179112112Y-95141500D01*
X179210541Y-95141500D01*
X179210551Y-95141497D01*
X179210634Y-95141489D01*
X179210652Y-95141489D01*
X179310736Y-95121569D01*
X179403835Y-95103051D01*
X179403842Y-95103047D01*
X179403862Y-95103044D01*
X179403930Y-95103024D01*
X179403940Y-95103019D01*
X179403944Y-95103019D01*
X179496982Y-95064467D01*
X179496995Y-95064465D01*
X179496994Y-95064462D01*
X179496995Y-95064462D01*
X179585914Y-95027632D01*
X179585914Y-95027631D01*
X179585955Y-95027615D01*
X179586005Y-95027581D01*
X179586014Y-95027578D01*
X179631286Y-94997320D01*
X179665695Y-94974324D01*
X179665705Y-94974317D01*
X179674990Y-94968112D01*
X179749782Y-94918139D01*
X179749798Y-94918122D01*
X179749850Y-94918079D01*
X179749868Y-94918068D01*
X179794518Y-94873407D01*
X179816808Y-94851113D01*
X179816817Y-94851103D01*
X179827935Y-94839985D01*
X179889139Y-94778782D01*
X179889140Y-94778779D01*
X179893584Y-94774336D01*
X179893741Y-94774161D01*
X181048309Y-93619334D01*
X181109628Y-93585843D01*
X181179321Y-93590819D01*
X181235259Y-93632684D01*
X181259683Y-93698146D01*
X181260000Y-93707006D01*
X181260000Y-118098638D01*
X181240315Y-118165677D01*
X181223681Y-118186319D01*
X179606319Y-119803681D01*
X179544996Y-119837166D01*
X179518638Y-119840000D01*
X164940496Y-119840000D01*
X164873457Y-119820315D01*
X164827702Y-119767511D01*
X164817758Y-119698353D01*
X164846783Y-119634797D01*
X164852815Y-119628319D01*
X168415534Y-116065601D01*
X176189504Y-116065601D01*
X176189504Y-116334396D01*
X176224586Y-116600879D01*
X176224587Y-116600884D01*
X176224588Y-116600890D01*
X176245393Y-116678535D01*
X176294156Y-116860523D01*
X176397015Y-117108849D01*
X176397023Y-117108865D01*
X176442639Y-117187873D01*
X176531417Y-117341640D01*
X176531419Y-117341643D01*
X176531420Y-117341644D01*
X176695046Y-117554887D01*
X176695052Y-117554894D01*
X176885108Y-117744950D01*
X176885114Y-117744955D01*
X177098363Y-117908586D01*
X177247972Y-117994963D01*
X177331137Y-118042979D01*
X177331153Y-118042987D01*
X177465508Y-118098638D01*
X177579478Y-118145846D01*
X177839113Y-118215415D01*
X178027323Y-118240192D01*
X178105606Y-118250499D01*
X178105607Y-118250499D01*
X178374402Y-118250499D01*
X178434909Y-118242533D01*
X178640895Y-118215415D01*
X178900530Y-118145846D01*
X179087461Y-118068416D01*
X179148854Y-118042987D01*
X179148857Y-118042985D01*
X179148863Y-118042983D01*
X179381645Y-117908586D01*
X179594894Y-117744955D01*
X179784960Y-117554889D01*
X179948591Y-117341640D01*
X180082988Y-117108858D01*
X180185851Y-116860525D01*
X180255420Y-116600890D01*
X180290504Y-116334396D01*
X180290504Y-116065602D01*
X180255420Y-115799108D01*
X180185851Y-115539473D01*
X180144648Y-115440000D01*
X180082992Y-115291148D01*
X180082984Y-115291132D01*
X180023361Y-115187864D01*
X179948591Y-115058358D01*
X179784960Y-114845109D01*
X179784955Y-114845103D01*
X179594899Y-114655047D01*
X179594892Y-114655041D01*
X179381649Y-114491415D01*
X179381648Y-114491414D01*
X179381645Y-114491412D01*
X179288836Y-114437829D01*
X179148870Y-114357018D01*
X179148854Y-114357010D01*
X178900528Y-114254151D01*
X178770712Y-114219367D01*
X178640895Y-114184583D01*
X178640889Y-114184582D01*
X178640884Y-114184581D01*
X178374402Y-114149499D01*
X178374401Y-114149499D01*
X178105607Y-114149499D01*
X178105606Y-114149499D01*
X177839123Y-114184581D01*
X177839116Y-114184582D01*
X177839113Y-114184583D01*
X177784243Y-114199285D01*
X177579479Y-114254151D01*
X177331153Y-114357010D01*
X177331137Y-114357018D01*
X177098358Y-114491415D01*
X176885115Y-114655041D01*
X176885108Y-114655047D01*
X176695052Y-114845103D01*
X176695046Y-114845110D01*
X176531420Y-115058353D01*
X176397023Y-115291132D01*
X176397015Y-115291148D01*
X176294156Y-115539474D01*
X176224589Y-115799105D01*
X176224586Y-115799118D01*
X176189504Y-116065601D01*
X168415534Y-116065601D01*
X168507273Y-115973862D01*
X170099316Y-114381819D01*
X170160639Y-114348334D01*
X170186997Y-114345500D01*
X170245686Y-114345500D01*
X170245694Y-114345500D01*
X170282569Y-114342598D01*
X170282571Y-114342597D01*
X170282573Y-114342597D01*
X170324191Y-114330505D01*
X170440398Y-114296744D01*
X170581865Y-114213081D01*
X170698081Y-114096865D01*
X170781744Y-113955398D01*
X170827598Y-113797569D01*
X170830500Y-113760694D01*
X170830500Y-112379306D01*
X170827598Y-112342431D01*
X170781744Y-112184602D01*
X170746761Y-112125449D01*
X170729579Y-112057727D01*
X170751739Y-111991465D01*
X170806205Y-111947701D01*
X170866095Y-111938972D01*
X170929991Y-111945500D01*
X171730008Y-111945499D01*
X171730016Y-111945498D01*
X171730019Y-111945498D01*
X171786302Y-111939748D01*
X171832797Y-111934999D01*
X171999334Y-111879814D01*
X172148656Y-111787712D01*
X172272712Y-111663656D01*
X172364814Y-111514334D01*
X172419999Y-111347797D01*
X172430500Y-111245009D01*
X172430499Y-109844992D01*
X172419999Y-109742203D01*
X172364814Y-109575666D01*
X172272712Y-109426344D01*
X172148656Y-109302288D01*
X171999334Y-109210186D01*
X171832797Y-109155001D01*
X171832795Y-109155000D01*
X171730010Y-109144500D01*
X170929998Y-109144500D01*
X170929980Y-109144501D01*
X170827203Y-109155000D01*
X170827200Y-109155001D01*
X170660668Y-109210185D01*
X170660663Y-109210187D01*
X170511342Y-109302289D01*
X170387289Y-109426342D01*
X170295187Y-109575663D01*
X170295186Y-109575666D01*
X170240001Y-109742203D01*
X170240001Y-109742204D01*
X170240000Y-109742204D01*
X170229500Y-109844983D01*
X170229500Y-111245001D01*
X170229501Y-111245018D01*
X170240000Y-111347796D01*
X170240001Y-111347799D01*
X170282155Y-111475009D01*
X170295186Y-111514334D01*
X170351358Y-111605404D01*
X170369798Y-111672796D01*
X170348875Y-111739459D01*
X170295233Y-111784229D01*
X170245819Y-111794500D01*
X169814298Y-111794500D01*
X169777432Y-111797401D01*
X169777426Y-111797402D01*
X169619606Y-111843254D01*
X169619603Y-111843255D01*
X169478137Y-111926917D01*
X169478129Y-111926923D01*
X169361923Y-112043129D01*
X169361917Y-112043137D01*
X169278255Y-112184603D01*
X169278254Y-112184606D01*
X169232402Y-112342426D01*
X169232401Y-112342432D01*
X169229500Y-112379298D01*
X169229500Y-113501803D01*
X169209815Y-113568842D01*
X169193181Y-113589484D01*
X163977784Y-118804881D01*
X163916461Y-118838366D01*
X163890103Y-118841200D01*
X163014500Y-118841200D01*
X162947461Y-118821515D01*
X162901706Y-118768711D01*
X162890500Y-118717200D01*
X162890499Y-117692129D01*
X162890498Y-117692123D01*
X162890497Y-117692116D01*
X162884091Y-117632517D01*
X162833796Y-117497669D01*
X162833794Y-117497666D01*
X162830696Y-117489360D01*
X162832426Y-117488714D01*
X162819902Y-117431163D01*
X162831691Y-117391011D01*
X162830696Y-117390640D01*
X162833794Y-117382333D01*
X162833796Y-117382331D01*
X162884091Y-117247483D01*
X162890500Y-117187873D01*
X162890499Y-115692128D01*
X162884091Y-115632517D01*
X162833796Y-115497669D01*
X162833794Y-115497666D01*
X162830696Y-115489360D01*
X162832426Y-115488714D01*
X162819902Y-115431163D01*
X162831691Y-115391011D01*
X162830696Y-115390640D01*
X162833794Y-115382333D01*
X162833796Y-115382331D01*
X162884091Y-115247483D01*
X162890500Y-115187873D01*
X162890499Y-113692128D01*
X162884091Y-113632517D01*
X162833796Y-113497669D01*
X162833794Y-113497666D01*
X162830696Y-113489360D01*
X162832426Y-113488714D01*
X162819902Y-113431163D01*
X162831691Y-113391011D01*
X162830696Y-113390640D01*
X162833794Y-113382333D01*
X162833796Y-113382331D01*
X162884091Y-113247483D01*
X162890500Y-113187873D01*
X162890499Y-111692128D01*
X162884091Y-111632517D01*
X162833796Y-111497669D01*
X162833794Y-111497666D01*
X162830696Y-111489360D01*
X162832426Y-111488714D01*
X162819902Y-111431163D01*
X162831691Y-111391011D01*
X162830696Y-111390640D01*
X162833794Y-111382333D01*
X162833796Y-111382331D01*
X162884091Y-111247483D01*
X162890500Y-111187873D01*
X162890499Y-109844983D01*
X166629500Y-109844983D01*
X166629500Y-111245001D01*
X166629501Y-111245018D01*
X166640000Y-111347796D01*
X166640001Y-111347799D01*
X166682155Y-111475009D01*
X166695186Y-111514334D01*
X166787288Y-111663656D01*
X166911344Y-111787712D01*
X167060666Y-111879814D01*
X167227203Y-111934999D01*
X167329991Y-111945500D01*
X168130008Y-111945499D01*
X168130016Y-111945498D01*
X168130019Y-111945498D01*
X168186302Y-111939748D01*
X168232797Y-111934999D01*
X168399334Y-111879814D01*
X168548656Y-111787712D01*
X168672712Y-111663656D01*
X168764814Y-111514334D01*
X168819999Y-111347797D01*
X168830500Y-111245009D01*
X168830499Y-109844992D01*
X168819999Y-109742203D01*
X168764814Y-109575666D01*
X168672712Y-109426344D01*
X168548656Y-109302288D01*
X168399334Y-109210186D01*
X168232797Y-109155001D01*
X168232795Y-109155000D01*
X168130010Y-109144500D01*
X167329998Y-109144500D01*
X167329980Y-109144501D01*
X167227203Y-109155000D01*
X167227200Y-109155001D01*
X167060668Y-109210185D01*
X167060663Y-109210187D01*
X166911342Y-109302289D01*
X166787289Y-109426342D01*
X166695187Y-109575663D01*
X166695186Y-109575666D01*
X166640001Y-109742203D01*
X166640001Y-109742204D01*
X166640000Y-109742204D01*
X166629500Y-109844983D01*
X162890499Y-109844983D01*
X162890499Y-109692128D01*
X162884091Y-109632517D01*
X162833796Y-109497669D01*
X162833794Y-109497666D01*
X162830696Y-109489360D01*
X162832426Y-109488714D01*
X162819902Y-109431163D01*
X162831691Y-109391011D01*
X162830696Y-109390640D01*
X162833794Y-109382333D01*
X162833796Y-109382331D01*
X162884091Y-109247483D01*
X162890500Y-109187873D01*
X162890499Y-107692128D01*
X162884091Y-107632517D01*
X162869431Y-107593211D01*
X162830697Y-107489359D01*
X162832656Y-107488628D01*
X162820312Y-107431924D01*
X162831864Y-107392576D01*
X162830697Y-107392141D01*
X162877204Y-107267448D01*
X162884091Y-107248983D01*
X162890500Y-107189373D01*
X162890499Y-105693628D01*
X162884091Y-105634017D01*
X162882346Y-105629339D01*
X162833797Y-105499171D01*
X162833793Y-105499164D01*
X162747547Y-105383955D01*
X162747544Y-105383952D01*
X162632335Y-105297706D01*
X162632328Y-105297702D01*
X162497482Y-105247408D01*
X162497483Y-105247408D01*
X162437883Y-105241001D01*
X162437881Y-105241000D01*
X162437873Y-105241000D01*
X162437864Y-105241000D01*
X160142129Y-105241000D01*
X160142123Y-105241001D01*
X160082516Y-105247408D01*
X159947671Y-105297702D01*
X159947664Y-105297706D01*
X159832455Y-105383952D01*
X159832452Y-105383955D01*
X159746206Y-105499164D01*
X159746202Y-105499171D01*
X159695908Y-105634017D01*
X159689935Y-105689583D01*
X159689501Y-105693623D01*
X159689500Y-105693635D01*
X159689500Y-105717500D01*
X159669815Y-105784539D01*
X159617011Y-105830294D01*
X159565500Y-105841500D01*
X157926766Y-105841500D01*
X157859727Y-105821815D01*
X157857875Y-105820602D01*
X157726185Y-105732609D01*
X157726172Y-105732602D01*
X157580501Y-105672264D01*
X157580489Y-105672261D01*
X157425845Y-105641500D01*
X157425842Y-105641500D01*
X157268158Y-105641500D01*
X157268155Y-105641500D01*
X157113510Y-105672261D01*
X157113498Y-105672264D01*
X156967827Y-105732602D01*
X156967814Y-105732609D01*
X156836711Y-105820210D01*
X156836707Y-105820213D01*
X156725213Y-105931707D01*
X156725210Y-105931711D01*
X156637609Y-106062814D01*
X156637604Y-106062824D01*
X156613272Y-106121567D01*
X156569430Y-106175971D01*
X156503136Y-106198035D01*
X156435437Y-106180755D01*
X156411030Y-106161795D01*
X156011819Y-105762584D01*
X155978334Y-105701261D01*
X155975500Y-105674903D01*
X155975500Y-105121096D01*
X155995185Y-105054057D01*
X156011814Y-105033420D01*
X157546806Y-103498427D01*
X157546811Y-103498424D01*
X157557014Y-103488220D01*
X157557016Y-103488220D01*
X157668820Y-103376416D01*
X157732220Y-103313016D01*
X157796151Y-103202284D01*
X157811277Y-103176085D01*
X157852200Y-103023357D01*
X157852200Y-102865243D01*
X157852200Y-100893859D01*
X157852201Y-100893846D01*
X157852201Y-100725745D01*
X157852201Y-100725743D01*
X157811277Y-100573015D01*
X157780968Y-100520519D01*
X157732220Y-100436084D01*
X157620416Y-100324280D01*
X157620415Y-100324279D01*
X157616085Y-100319949D01*
X157616074Y-100319939D01*
X157134324Y-99838189D01*
X157117994Y-99808283D01*
X157101227Y-99778593D01*
X157101279Y-99777672D01*
X157100839Y-99776866D01*
X157103268Y-99742895D01*
X157105216Y-99708838D01*
X157105780Y-99707768D01*
X157105823Y-99707174D01*
X157121684Y-99677627D01*
X157219682Y-99542744D01*
X157275012Y-99500079D01*
X157344625Y-99494100D01*
X157406420Y-99526706D01*
X157420318Y-99542745D01*
X157521752Y-99682358D01*
X157521756Y-99682363D01*
X157677636Y-99838243D01*
X157677641Y-99838247D01*
X157817256Y-99939682D01*
X157855978Y-99967815D01*
X157949319Y-100015375D01*
X158052393Y-100067895D01*
X158052396Y-100067896D01*
X158119525Y-100089707D01*
X158262049Y-100136015D01*
X158479778Y-100170500D01*
X158479779Y-100170500D01*
X158700221Y-100170500D01*
X158700222Y-100170500D01*
X158917951Y-100136015D01*
X159127606Y-100067895D01*
X159324022Y-99967815D01*
X159502365Y-99838242D01*
X159658242Y-99682365D01*
X159668804Y-99667826D01*
X159759682Y-99542745D01*
X159815011Y-99500079D01*
X159884625Y-99494100D01*
X159946420Y-99526705D01*
X159960318Y-99542745D01*
X160061752Y-99682358D01*
X160061756Y-99682363D01*
X160217636Y-99838243D01*
X160217641Y-99838247D01*
X160357254Y-99939682D01*
X160399920Y-99995012D01*
X160405899Y-100064625D01*
X160373293Y-100126420D01*
X160357254Y-100140318D01*
X160217641Y-100241752D01*
X160217636Y-100241756D01*
X160061756Y-100397636D01*
X160061752Y-100397641D01*
X159932187Y-100575974D01*
X159832104Y-100772393D01*
X159832103Y-100772396D01*
X159763985Y-100982047D01*
X159729500Y-101199778D01*
X159729500Y-101420221D01*
X159763985Y-101637952D01*
X159832103Y-101847603D01*
X159832104Y-101847606D01*
X159890120Y-101961466D01*
X159927129Y-102034100D01*
X159932187Y-102044025D01*
X160061752Y-102222358D01*
X160061756Y-102222363D01*
X160217636Y-102378243D01*
X160217641Y-102378247D01*
X160343074Y-102469378D01*
X160395978Y-102507815D01*
X160524375Y-102573237D01*
X160592393Y-102607895D01*
X160592396Y-102607896D01*
X160697221Y-102641955D01*
X160802049Y-102676015D01*
X161019778Y-102710500D01*
X161019779Y-102710500D01*
X161240221Y-102710500D01*
X161240222Y-102710500D01*
X161457951Y-102676015D01*
X161667606Y-102607895D01*
X161864022Y-102507815D01*
X162042365Y-102378242D01*
X162198242Y-102222365D01*
X162208804Y-102207826D01*
X162299682Y-102082745D01*
X162355011Y-102040079D01*
X162424625Y-102034100D01*
X162486420Y-102066705D01*
X162500318Y-102082745D01*
X162601752Y-102222358D01*
X162601756Y-102222363D01*
X162757636Y-102378243D01*
X162757641Y-102378247D01*
X162883074Y-102469378D01*
X162935978Y-102507815D01*
X163064375Y-102573237D01*
X163132393Y-102607895D01*
X163132396Y-102607896D01*
X163237221Y-102641955D01*
X163342049Y-102676015D01*
X163559778Y-102710500D01*
X163559779Y-102710500D01*
X163780221Y-102710500D01*
X163780222Y-102710500D01*
X163997951Y-102676015D01*
X164207606Y-102607895D01*
X164404022Y-102507815D01*
X164582365Y-102378242D01*
X164738242Y-102222365D01*
X164748804Y-102207826D01*
X164839682Y-102082745D01*
X164895011Y-102040079D01*
X164964625Y-102034100D01*
X165026420Y-102066705D01*
X165040318Y-102082745D01*
X165141752Y-102222358D01*
X165141756Y-102222363D01*
X165297636Y-102378243D01*
X165297641Y-102378247D01*
X165423074Y-102469378D01*
X165475978Y-102507815D01*
X165604375Y-102573237D01*
X165672393Y-102607895D01*
X165672396Y-102607896D01*
X165777221Y-102641955D01*
X165882049Y-102676015D01*
X166099778Y-102710500D01*
X166099779Y-102710500D01*
X166320221Y-102710500D01*
X166320222Y-102710500D01*
X166526333Y-102677855D01*
X166595627Y-102686810D01*
X166633412Y-102712647D01*
X168213181Y-104292416D01*
X168246666Y-104353739D01*
X168249500Y-104380097D01*
X168249500Y-105230701D01*
X168252401Y-105267567D01*
X168252402Y-105267573D01*
X168298254Y-105425393D01*
X168298255Y-105425396D01*
X168298256Y-105425398D01*
X168306892Y-105440000D01*
X168333237Y-105484548D01*
X168350420Y-105552272D01*
X168328260Y-105618535D01*
X168273794Y-105662298D01*
X168213903Y-105671027D01*
X168150011Y-105664500D01*
X167349998Y-105664500D01*
X167349980Y-105664501D01*
X167247203Y-105675000D01*
X167247200Y-105675001D01*
X167080668Y-105730185D01*
X167080663Y-105730187D01*
X166931342Y-105822289D01*
X166807289Y-105946342D01*
X166715187Y-106095663D01*
X166715185Y-106095668D01*
X166687349Y-106179670D01*
X166660001Y-106262203D01*
X166660001Y-106262204D01*
X166660000Y-106262204D01*
X166649500Y-106364983D01*
X166649500Y-107765001D01*
X166649501Y-107765018D01*
X166660000Y-107867796D01*
X166660001Y-107867799D01*
X166697682Y-107981510D01*
X166715186Y-108034334D01*
X166807288Y-108183656D01*
X166931344Y-108307712D01*
X167080666Y-108399814D01*
X167247203Y-108454999D01*
X167349991Y-108465500D01*
X168150008Y-108465499D01*
X168150016Y-108465498D01*
X168150019Y-108465498D01*
X168206302Y-108459748D01*
X168252797Y-108454999D01*
X168419334Y-108399814D01*
X168568656Y-108307712D01*
X168692712Y-108183656D01*
X168784814Y-108034334D01*
X168839999Y-107867797D01*
X168850500Y-107765009D01*
X168850499Y-106364992D01*
X168850498Y-106364983D01*
X173249500Y-106364983D01*
X173249500Y-107765001D01*
X173249501Y-107765018D01*
X173260000Y-107867796D01*
X173260001Y-107867799D01*
X173297682Y-107981510D01*
X173315186Y-108034334D01*
X173407288Y-108183656D01*
X173531344Y-108307712D01*
X173680666Y-108399814D01*
X173847203Y-108454999D01*
X173949991Y-108465500D01*
X174750008Y-108465499D01*
X174750016Y-108465498D01*
X174750019Y-108465498D01*
X174806302Y-108459748D01*
X174852797Y-108454999D01*
X175019334Y-108399814D01*
X175168656Y-108307712D01*
X175292712Y-108183656D01*
X175384814Y-108034334D01*
X175439999Y-107867797D01*
X175450500Y-107765009D01*
X175450499Y-106364992D01*
X175448325Y-106343714D01*
X175439999Y-106262203D01*
X175439998Y-106262200D01*
X175422397Y-106209085D01*
X175384814Y-106095666D01*
X175292712Y-105946344D01*
X175168656Y-105822288D01*
X175053215Y-105751084D01*
X175019336Y-105730187D01*
X175019331Y-105730185D01*
X174981050Y-105717500D01*
X174852797Y-105675001D01*
X174852795Y-105675000D01*
X174750010Y-105664500D01*
X173949998Y-105664500D01*
X173949980Y-105664501D01*
X173847203Y-105675000D01*
X173847200Y-105675001D01*
X173680668Y-105730185D01*
X173680663Y-105730187D01*
X173531342Y-105822289D01*
X173407289Y-105946342D01*
X173315187Y-106095663D01*
X173315185Y-106095668D01*
X173287349Y-106179670D01*
X173260001Y-106262203D01*
X173260001Y-106262204D01*
X173260000Y-106262204D01*
X173249500Y-106364983D01*
X168850498Y-106364983D01*
X168848325Y-106343714D01*
X168839999Y-106262203D01*
X168839998Y-106262200D01*
X168822397Y-106209085D01*
X168784814Y-106095666D01*
X168728641Y-106004595D01*
X168710202Y-105937204D01*
X168731125Y-105870541D01*
X168784767Y-105825771D01*
X168834181Y-105815500D01*
X169265686Y-105815500D01*
X169265694Y-105815500D01*
X169302569Y-105812598D01*
X169302571Y-105812597D01*
X169302573Y-105812597D01*
X169390057Y-105787180D01*
X169460398Y-105766744D01*
X169470213Y-105760939D01*
X169486878Y-105751084D01*
X169554601Y-105733900D01*
X169613122Y-105751084D01*
X169639598Y-105766742D01*
X169639599Y-105766742D01*
X169639602Y-105766744D01*
X169681224Y-105778836D01*
X169797426Y-105812597D01*
X169797429Y-105812597D01*
X169797431Y-105812598D01*
X169834306Y-105815500D01*
X169834314Y-105815500D01*
X170265686Y-105815500D01*
X170265694Y-105815500D01*
X170302569Y-105812598D01*
X170302571Y-105812597D01*
X170302573Y-105812597D01*
X170390057Y-105787180D01*
X170460398Y-105766744D01*
X170470213Y-105760939D01*
X170486878Y-105751084D01*
X170554601Y-105733900D01*
X170613122Y-105751084D01*
X170639598Y-105766742D01*
X170639599Y-105766742D01*
X170639602Y-105766744D01*
X170681224Y-105778836D01*
X170797426Y-105812597D01*
X170797429Y-105812597D01*
X170797431Y-105812598D01*
X170834306Y-105815500D01*
X170834314Y-105815500D01*
X171265686Y-105815500D01*
X171265694Y-105815500D01*
X171302569Y-105812598D01*
X171302571Y-105812597D01*
X171302573Y-105812597D01*
X171390057Y-105787180D01*
X171460398Y-105766744D01*
X171470213Y-105760939D01*
X171486878Y-105751084D01*
X171554601Y-105733900D01*
X171613122Y-105751084D01*
X171639598Y-105766742D01*
X171639599Y-105766742D01*
X171639602Y-105766744D01*
X171681224Y-105778836D01*
X171797426Y-105812597D01*
X171797429Y-105812597D01*
X171797431Y-105812598D01*
X171834306Y-105815500D01*
X171834314Y-105815500D01*
X172265686Y-105815500D01*
X172265694Y-105815500D01*
X172302569Y-105812598D01*
X172302571Y-105812597D01*
X172302573Y-105812597D01*
X172390057Y-105787180D01*
X172460398Y-105766744D01*
X172601865Y-105683081D01*
X172718081Y-105566865D01*
X172801744Y-105425398D01*
X172838843Y-105297704D01*
X172847597Y-105267573D01*
X172847598Y-105267567D01*
X172847815Y-105264814D01*
X172850500Y-105230694D01*
X172850500Y-103849306D01*
X172847598Y-103812431D01*
X172845633Y-103805668D01*
X172802250Y-103656344D01*
X172801744Y-103654602D01*
X172718081Y-103513135D01*
X172718079Y-103513133D01*
X172718076Y-103513129D01*
X172686819Y-103481872D01*
X172653334Y-103420549D01*
X172650500Y-103394191D01*
X172650500Y-103120096D01*
X172670185Y-103053057D01*
X172686815Y-103032419D01*
X173108750Y-102610483D01*
X173170071Y-102577000D01*
X173239762Y-102581984D01*
X173252712Y-102587676D01*
X173292394Y-102607895D01*
X173502049Y-102676015D01*
X173719778Y-102710500D01*
X173719779Y-102710500D01*
X173940221Y-102710500D01*
X173940222Y-102710500D01*
X174157951Y-102676015D01*
X174367606Y-102607895D01*
X174564022Y-102507815D01*
X174742365Y-102378242D01*
X174898242Y-102222365D01*
X175027815Y-102044022D01*
X175127895Y-101847606D01*
X175196015Y-101637951D01*
X175230500Y-101420222D01*
X175230500Y-101199778D01*
X175196015Y-100982049D01*
X175161955Y-100877221D01*
X175127896Y-100772396D01*
X175127895Y-100772393D01*
X175082351Y-100683010D01*
X175027815Y-100575978D01*
X174987521Y-100520518D01*
X174898247Y-100397641D01*
X174898243Y-100397636D01*
X174742363Y-100241756D01*
X174742358Y-100241752D01*
X174602745Y-100140318D01*
X174560079Y-100084989D01*
X174554100Y-100015375D01*
X174586705Y-99953580D01*
X174602745Y-99939682D01*
X174740358Y-99839700D01*
X174742365Y-99838242D01*
X174898242Y-99682365D01*
X174908804Y-99667826D01*
X174999682Y-99542745D01*
X175055011Y-99500079D01*
X175124625Y-99494100D01*
X175186420Y-99526705D01*
X175200318Y-99542745D01*
X175301752Y-99682358D01*
X175301756Y-99682363D01*
X175457636Y-99838243D01*
X175457641Y-99838247D01*
X175597256Y-99939682D01*
X175635978Y-99967815D01*
X175729319Y-100015375D01*
X175832393Y-100067895D01*
X175832396Y-100067896D01*
X175899525Y-100089707D01*
X176042049Y-100136015D01*
X176259778Y-100170500D01*
X176259779Y-100170500D01*
X176480221Y-100170500D01*
X176480222Y-100170500D01*
X176697951Y-100136015D01*
X176907606Y-100067895D01*
X177104022Y-99967815D01*
X177282365Y-99838242D01*
X177438242Y-99682365D01*
X177567815Y-99504022D01*
X177667895Y-99307606D01*
X177736015Y-99097951D01*
X177770500Y-98880222D01*
X177770500Y-98659778D01*
X177736015Y-98442049D01*
X177667895Y-98232394D01*
X177667895Y-98232393D01*
X177633237Y-98164375D01*
X177567815Y-98035978D01*
X177539681Y-97997254D01*
X177438247Y-97857641D01*
X177438243Y-97857636D01*
X177282363Y-97701756D01*
X177282358Y-97701752D01*
X177104025Y-97572187D01*
X177104024Y-97572186D01*
X177104022Y-97572185D01*
X177041096Y-97540122D01*
X176907606Y-97472104D01*
X176907603Y-97472103D01*
X176697952Y-97403985D01*
X176589086Y-97386742D01*
X176480222Y-97369500D01*
X176259778Y-97369500D01*
X176187201Y-97380995D01*
X176042047Y-97403985D01*
X175832396Y-97472103D01*
X175832393Y-97472104D01*
X175635974Y-97572187D01*
X175457641Y-97701752D01*
X175457636Y-97701756D01*
X175301756Y-97857636D01*
X175301752Y-97857641D01*
X175200318Y-97997254D01*
X175144988Y-98039920D01*
X175075375Y-98045899D01*
X175013580Y-98013293D01*
X174999682Y-97997254D01*
X174898247Y-97857641D01*
X174898243Y-97857636D01*
X174742363Y-97701756D01*
X174742358Y-97701752D01*
X174564025Y-97572187D01*
X174564024Y-97572186D01*
X174564022Y-97572185D01*
X174501096Y-97540122D01*
X174367606Y-97472104D01*
X174367603Y-97472103D01*
X174157952Y-97403985D01*
X174049086Y-97386742D01*
X173940222Y-97369500D01*
X173719778Y-97369500D01*
X173647201Y-97380995D01*
X173502047Y-97403985D01*
X173292396Y-97472103D01*
X173292393Y-97472104D01*
X173095974Y-97572187D01*
X172917641Y-97701752D01*
X172917636Y-97701756D01*
X172761756Y-97857636D01*
X172761752Y-97857641D01*
X172660318Y-97997254D01*
X172604988Y-98039920D01*
X172535375Y-98045899D01*
X172473580Y-98013293D01*
X172459682Y-97997254D01*
X172358247Y-97857641D01*
X172358243Y-97857636D01*
X172202363Y-97701756D01*
X172202358Y-97701752D01*
X172024025Y-97572187D01*
X172024024Y-97572186D01*
X172024022Y-97572185D01*
X171961096Y-97540122D01*
X171827606Y-97472104D01*
X171827603Y-97472103D01*
X171617952Y-97403985D01*
X171509086Y-97386742D01*
X171400222Y-97369500D01*
X171179778Y-97369500D01*
X171107201Y-97380995D01*
X170962047Y-97403985D01*
X170752396Y-97472103D01*
X170752393Y-97472104D01*
X170555974Y-97572187D01*
X170377641Y-97701752D01*
X170377636Y-97701756D01*
X170221756Y-97857636D01*
X170221752Y-97857641D01*
X170120318Y-97997254D01*
X170064988Y-98039920D01*
X169995375Y-98045899D01*
X169933580Y-98013293D01*
X169919682Y-97997254D01*
X169818247Y-97857641D01*
X169818243Y-97857636D01*
X169662363Y-97701756D01*
X169662358Y-97701752D01*
X169484025Y-97572187D01*
X169484024Y-97572186D01*
X169484022Y-97572185D01*
X169421096Y-97540122D01*
X169287606Y-97472104D01*
X169287603Y-97472103D01*
X169077952Y-97403985D01*
X168969086Y-97386742D01*
X168860222Y-97369500D01*
X168639778Y-97369500D01*
X168567201Y-97380995D01*
X168422047Y-97403985D01*
X168212396Y-97472103D01*
X168212393Y-97472104D01*
X168015974Y-97572187D01*
X167837641Y-97701752D01*
X167837636Y-97701756D01*
X167681756Y-97857636D01*
X167681752Y-97857641D01*
X167580318Y-97997254D01*
X167524988Y-98039920D01*
X167455375Y-98045899D01*
X167393580Y-98013293D01*
X167379682Y-97997254D01*
X167278247Y-97857641D01*
X167278243Y-97857636D01*
X167122363Y-97701756D01*
X167122358Y-97701752D01*
X166944025Y-97572187D01*
X166944024Y-97572186D01*
X166944022Y-97572185D01*
X166881096Y-97540122D01*
X166747606Y-97472104D01*
X166747603Y-97472103D01*
X166537952Y-97403985D01*
X166429086Y-97386742D01*
X166320222Y-97369500D01*
X166099778Y-97369500D01*
X166027201Y-97380995D01*
X165882047Y-97403985D01*
X165672396Y-97472103D01*
X165672393Y-97472104D01*
X165475974Y-97572187D01*
X165297641Y-97701752D01*
X165297636Y-97701756D01*
X165141756Y-97857636D01*
X165141752Y-97857641D01*
X165040318Y-97997254D01*
X164984988Y-98039920D01*
X164915375Y-98045899D01*
X164853580Y-98013293D01*
X164839682Y-97997254D01*
X164738247Y-97857641D01*
X164738243Y-97857636D01*
X164582363Y-97701756D01*
X164582358Y-97701752D01*
X164404025Y-97572187D01*
X164404024Y-97572186D01*
X164404022Y-97572185D01*
X164341096Y-97540122D01*
X164207606Y-97472104D01*
X164207603Y-97472103D01*
X163997952Y-97403985D01*
X163889086Y-97386742D01*
X163780222Y-97369500D01*
X163559778Y-97369500D01*
X163487201Y-97380995D01*
X163342047Y-97403985D01*
X163132396Y-97472103D01*
X163132393Y-97472104D01*
X162935974Y-97572187D01*
X162757641Y-97701752D01*
X162757636Y-97701756D01*
X162601756Y-97857636D01*
X162601752Y-97857641D01*
X162500318Y-97997254D01*
X162444988Y-98039920D01*
X162375375Y-98045899D01*
X162313580Y-98013293D01*
X162299682Y-97997254D01*
X162198247Y-97857641D01*
X162198243Y-97857636D01*
X162042363Y-97701756D01*
X162042358Y-97701752D01*
X161864025Y-97572187D01*
X161864024Y-97572186D01*
X161864022Y-97572185D01*
X161801096Y-97540122D01*
X161667606Y-97472104D01*
X161667603Y-97472103D01*
X161457952Y-97403985D01*
X161349086Y-97386742D01*
X161240222Y-97369500D01*
X161019778Y-97369500D01*
X160947201Y-97380995D01*
X160802047Y-97403985D01*
X160592396Y-97472103D01*
X160592393Y-97472104D01*
X160395974Y-97572187D01*
X160217641Y-97701752D01*
X160217636Y-97701756D01*
X160061756Y-97857636D01*
X160061752Y-97857641D01*
X159960318Y-97997254D01*
X159904988Y-98039920D01*
X159835375Y-98045899D01*
X159773580Y-98013293D01*
X159759682Y-97997254D01*
X159658247Y-97857641D01*
X159658243Y-97857636D01*
X159502363Y-97701756D01*
X159502358Y-97701752D01*
X159324025Y-97572187D01*
X159324024Y-97572186D01*
X159324022Y-97572185D01*
X159261096Y-97540122D01*
X159127606Y-97472104D01*
X159127603Y-97472103D01*
X158917952Y-97403985D01*
X158809086Y-97386742D01*
X158700222Y-97369500D01*
X158479778Y-97369500D01*
X158407201Y-97380995D01*
X158262047Y-97403985D01*
X158052396Y-97472103D01*
X158052393Y-97472104D01*
X157855974Y-97572187D01*
X157677641Y-97701752D01*
X157677636Y-97701756D01*
X157521756Y-97857636D01*
X157521752Y-97857641D01*
X157420318Y-97997254D01*
X157364988Y-98039920D01*
X157295375Y-98045899D01*
X157233580Y-98013293D01*
X157219682Y-97997254D01*
X157118247Y-97857641D01*
X157118243Y-97857636D01*
X156962363Y-97701756D01*
X156962358Y-97701752D01*
X156784025Y-97572187D01*
X156784024Y-97572186D01*
X156784022Y-97572185D01*
X156721096Y-97540122D01*
X156587606Y-97472104D01*
X156587603Y-97472103D01*
X156377952Y-97403985D01*
X156269086Y-97386742D01*
X156160222Y-97369500D01*
X155939778Y-97369500D01*
X155867201Y-97380995D01*
X155722047Y-97403985D01*
X155512396Y-97472103D01*
X155512393Y-97472104D01*
X155315974Y-97572187D01*
X155137641Y-97701752D01*
X155137636Y-97701756D01*
X154981756Y-97857636D01*
X154981752Y-97857641D01*
X154880318Y-97997254D01*
X154824988Y-98039920D01*
X154755375Y-98045899D01*
X154693580Y-98013293D01*
X154679682Y-97997254D01*
X154578247Y-97857641D01*
X154578243Y-97857636D01*
X154422363Y-97701756D01*
X154422358Y-97701752D01*
X154244025Y-97572187D01*
X154244024Y-97572186D01*
X154244022Y-97572185D01*
X154181096Y-97540122D01*
X154047606Y-97472104D01*
X154047603Y-97472103D01*
X153837952Y-97403985D01*
X153729086Y-97386742D01*
X153620222Y-97369500D01*
X153399778Y-97369500D01*
X153327201Y-97380995D01*
X153182047Y-97403985D01*
X152972396Y-97472103D01*
X152972393Y-97472104D01*
X152775974Y-97572187D01*
X152597641Y-97701752D01*
X152597636Y-97701756D01*
X152441756Y-97857636D01*
X152441752Y-97857641D01*
X152340318Y-97997254D01*
X152284988Y-98039920D01*
X152215375Y-98045899D01*
X152153580Y-98013293D01*
X152139682Y-97997254D01*
X152038247Y-97857641D01*
X152038243Y-97857636D01*
X151882363Y-97701756D01*
X151882358Y-97701752D01*
X151704025Y-97572187D01*
X151704024Y-97572186D01*
X151704022Y-97572185D01*
X151641096Y-97540122D01*
X151507606Y-97472104D01*
X151507603Y-97472103D01*
X151297952Y-97403985D01*
X151189086Y-97386742D01*
X151080222Y-97369500D01*
X150859778Y-97369500D01*
X150787201Y-97380995D01*
X150642047Y-97403985D01*
X150432396Y-97472103D01*
X150432393Y-97472104D01*
X150235974Y-97572187D01*
X150057641Y-97701752D01*
X150057636Y-97701756D01*
X149901756Y-97857636D01*
X149901752Y-97857641D01*
X149800318Y-97997254D01*
X149744988Y-98039920D01*
X149675375Y-98045899D01*
X149613580Y-98013293D01*
X149599682Y-97997254D01*
X149498247Y-97857641D01*
X149498243Y-97857636D01*
X149342363Y-97701756D01*
X149342358Y-97701752D01*
X149164025Y-97572187D01*
X149164024Y-97572186D01*
X149164022Y-97572185D01*
X149101096Y-97540122D01*
X148967606Y-97472104D01*
X148967603Y-97472103D01*
X148757952Y-97403985D01*
X148649086Y-97386742D01*
X148540222Y-97369500D01*
X148319778Y-97369500D01*
X148247201Y-97380995D01*
X148102047Y-97403985D01*
X147892396Y-97472103D01*
X147892393Y-97472104D01*
X147695974Y-97572187D01*
X147517641Y-97701752D01*
X147517636Y-97701756D01*
X147361756Y-97857636D01*
X147361752Y-97857641D01*
X147260318Y-97997254D01*
X147204988Y-98039920D01*
X147135375Y-98045899D01*
X147073580Y-98013293D01*
X147059682Y-97997254D01*
X146958247Y-97857641D01*
X146958243Y-97857636D01*
X146802363Y-97701756D01*
X146802358Y-97701752D01*
X146624025Y-97572187D01*
X146624024Y-97572186D01*
X146624022Y-97572185D01*
X146561096Y-97540122D01*
X146427606Y-97472104D01*
X146427603Y-97472103D01*
X146217952Y-97403985D01*
X146109086Y-97386742D01*
X146000222Y-97369500D01*
X145779778Y-97369500D01*
X145707201Y-97380995D01*
X145562047Y-97403985D01*
X145352396Y-97472103D01*
X145352393Y-97472104D01*
X145155974Y-97572187D01*
X144977641Y-97701752D01*
X144977636Y-97701756D01*
X144821756Y-97857636D01*
X144821752Y-97857641D01*
X144692187Y-98035974D01*
X144592104Y-98232393D01*
X144592103Y-98232396D01*
X144523985Y-98442047D01*
X144489500Y-98659778D01*
X144489500Y-98880221D01*
X144523985Y-99097952D01*
X144592103Y-99307603D01*
X144592104Y-99307606D01*
X144640100Y-99401801D01*
X144687129Y-99494100D01*
X144692187Y-99504025D01*
X144821752Y-99682358D01*
X144821756Y-99682363D01*
X144977636Y-99838243D01*
X144977641Y-99838247D01*
X145117254Y-99939682D01*
X145159920Y-99995012D01*
X145165899Y-100064625D01*
X145133293Y-100126420D01*
X145117254Y-100140318D01*
X144977641Y-100241752D01*
X144977636Y-100241756D01*
X144821756Y-100397636D01*
X144821752Y-100397641D01*
X144720318Y-100537254D01*
X144664988Y-100579920D01*
X144595375Y-100585899D01*
X144533580Y-100553293D01*
X144519682Y-100537254D01*
X144418247Y-100397641D01*
X144418243Y-100397636D01*
X144262363Y-100241756D01*
X144262358Y-100241752D01*
X144084025Y-100112187D01*
X144084024Y-100112186D01*
X144084022Y-100112185D01*
X143997099Y-100067895D01*
X143887606Y-100012104D01*
X143887603Y-100012103D01*
X143677952Y-99943985D01*
X143569086Y-99926742D01*
X143460222Y-99909500D01*
X143239778Y-99909500D01*
X143167201Y-99920995D01*
X143022047Y-99943985D01*
X142812396Y-100012103D01*
X142812393Y-100012104D01*
X142615974Y-100112187D01*
X142437641Y-100241752D01*
X142437636Y-100241756D01*
X142281756Y-100397636D01*
X142281752Y-100397641D01*
X142180318Y-100537254D01*
X142124988Y-100579920D01*
X142055375Y-100585899D01*
X141993580Y-100553293D01*
X141979682Y-100537254D01*
X141878247Y-100397641D01*
X141878243Y-100397636D01*
X141722363Y-100241756D01*
X141722358Y-100241752D01*
X141582745Y-100140318D01*
X141540079Y-100084989D01*
X141534100Y-100015375D01*
X141566705Y-99953580D01*
X141582745Y-99939682D01*
X141720358Y-99839700D01*
X141722365Y-99838242D01*
X141878242Y-99682365D01*
X142007815Y-99504022D01*
X142107895Y-99307606D01*
X142176015Y-99097951D01*
X142210500Y-98880222D01*
X142210500Y-98659778D01*
X142176015Y-98442049D01*
X142107895Y-98232394D01*
X142107895Y-98232393D01*
X142073237Y-98164375D01*
X142007815Y-98035978D01*
X141979681Y-97997254D01*
X141878247Y-97857641D01*
X141878243Y-97857636D01*
X141722363Y-97701756D01*
X141722358Y-97701752D01*
X141544025Y-97572187D01*
X141544024Y-97572186D01*
X141544022Y-97572185D01*
X141481096Y-97540122D01*
X141347606Y-97472104D01*
X141347603Y-97472103D01*
X141137952Y-97403985D01*
X141029086Y-97386742D01*
X140920222Y-97369500D01*
X140699778Y-97369500D01*
X140627201Y-97380995D01*
X140482047Y-97403985D01*
X140272396Y-97472103D01*
X140272393Y-97472104D01*
X140075974Y-97572187D01*
X139897641Y-97701752D01*
X139897636Y-97701756D01*
X139741756Y-97857636D01*
X139741752Y-97857641D01*
X139640318Y-97997254D01*
X139584988Y-98039920D01*
X139515375Y-98045899D01*
X139453580Y-98013293D01*
X139439682Y-97997254D01*
X139338247Y-97857641D01*
X139338243Y-97857636D01*
X139182363Y-97701756D01*
X139182358Y-97701752D01*
X139004025Y-97572187D01*
X139004024Y-97572186D01*
X139004022Y-97572185D01*
X138941096Y-97540122D01*
X138807606Y-97472104D01*
X138807603Y-97472103D01*
X138597952Y-97403985D01*
X138489086Y-97386742D01*
X138380222Y-97369500D01*
X138159778Y-97369500D01*
X138087201Y-97380995D01*
X137942047Y-97403985D01*
X137732396Y-97472103D01*
X137732393Y-97472104D01*
X137535974Y-97572187D01*
X137357641Y-97701752D01*
X137357636Y-97701756D01*
X137201756Y-97857636D01*
X137201752Y-97857641D01*
X137100318Y-97997254D01*
X137044988Y-98039920D01*
X136975375Y-98045899D01*
X136913580Y-98013293D01*
X136899682Y-97997254D01*
X136798247Y-97857641D01*
X136798243Y-97857636D01*
X136642363Y-97701756D01*
X136642358Y-97701752D01*
X136464025Y-97572187D01*
X136464024Y-97572186D01*
X136464022Y-97572185D01*
X136401096Y-97540122D01*
X136267606Y-97472104D01*
X136267603Y-97472103D01*
X136057952Y-97403985D01*
X135949086Y-97386742D01*
X135840222Y-97369500D01*
X135619778Y-97369500D01*
X135547201Y-97380995D01*
X135402047Y-97403985D01*
X135192396Y-97472103D01*
X135192393Y-97472104D01*
X134995974Y-97572187D01*
X134817641Y-97701752D01*
X134817636Y-97701756D01*
X134661756Y-97857636D01*
X134661752Y-97857641D01*
X134560318Y-97997254D01*
X134504988Y-98039920D01*
X134435375Y-98045899D01*
X134373580Y-98013293D01*
X134359682Y-97997254D01*
X134258247Y-97857641D01*
X134258243Y-97857636D01*
X134102363Y-97701756D01*
X134102358Y-97701752D01*
X133924025Y-97572187D01*
X133924024Y-97572186D01*
X133924022Y-97572185D01*
X133861096Y-97540122D01*
X133727606Y-97472104D01*
X133727603Y-97472103D01*
X133517952Y-97403985D01*
X133409086Y-97386742D01*
X133300222Y-97369500D01*
X133079778Y-97369500D01*
X133007201Y-97380995D01*
X132862047Y-97403985D01*
X132652396Y-97472103D01*
X132652393Y-97472104D01*
X132455974Y-97572187D01*
X132277641Y-97701752D01*
X132277636Y-97701756D01*
X132121756Y-97857636D01*
X132121752Y-97857641D01*
X132020318Y-97997254D01*
X131964988Y-98039920D01*
X131895375Y-98045899D01*
X131833580Y-98013293D01*
X131819682Y-97997254D01*
X131718247Y-97857641D01*
X131718243Y-97857636D01*
X131562363Y-97701756D01*
X131562358Y-97701752D01*
X131384025Y-97572187D01*
X131384024Y-97572186D01*
X131384022Y-97572185D01*
X131321096Y-97540122D01*
X131187606Y-97472104D01*
X131187603Y-97472103D01*
X130977952Y-97403985D01*
X130869086Y-97386742D01*
X130760222Y-97369500D01*
X130539778Y-97369500D01*
X130467201Y-97380995D01*
X130322047Y-97403985D01*
X130112396Y-97472103D01*
X130112393Y-97472104D01*
X129915974Y-97572187D01*
X129737641Y-97701752D01*
X129737636Y-97701756D01*
X129581756Y-97857636D01*
X129581752Y-97857641D01*
X129480318Y-97997254D01*
X129424988Y-98039920D01*
X129355375Y-98045899D01*
X129293580Y-98013293D01*
X129279682Y-97997254D01*
X129178247Y-97857641D01*
X129178243Y-97857636D01*
X129022363Y-97701756D01*
X129022358Y-97701752D01*
X128844025Y-97572187D01*
X128844024Y-97572186D01*
X128844022Y-97572185D01*
X128781096Y-97540122D01*
X128647606Y-97472104D01*
X128647603Y-97472103D01*
X128437952Y-97403985D01*
X128329086Y-97386742D01*
X128220222Y-97369500D01*
X128220221Y-97369500D01*
X128065782Y-97369500D01*
X127998743Y-97349815D01*
X127978101Y-97333181D01*
X127111819Y-96466899D01*
X127078334Y-96405576D01*
X127075500Y-96379218D01*
X127075500Y-95764042D01*
X127095185Y-95697003D01*
X127147989Y-95651248D01*
X127217147Y-95641304D01*
X127280703Y-95670329D01*
X127305038Y-95698944D01*
X127357288Y-95783656D01*
X127481344Y-95907712D01*
X127630666Y-95999814D01*
X127797203Y-96054999D01*
X127899991Y-96065500D01*
X129300008Y-96065499D01*
X129402797Y-96054999D01*
X129569334Y-95999814D01*
X129718656Y-95907712D01*
X129842712Y-95783656D01*
X129924963Y-95650305D01*
X129976910Y-95603581D01*
X130045872Y-95592358D01*
X130109954Y-95620201D01*
X130148811Y-95678270D01*
X130154501Y-95715402D01*
X130154501Y-96537876D01*
X130160908Y-96597483D01*
X130211202Y-96732328D01*
X130211206Y-96732335D01*
X130297452Y-96847544D01*
X130297455Y-96847547D01*
X130412664Y-96933793D01*
X130412671Y-96933797D01*
X130547517Y-96984091D01*
X130547516Y-96984091D01*
X130554444Y-96984835D01*
X130607127Y-96990500D01*
X134702872Y-96990499D01*
X134762483Y-96984091D01*
X134897331Y-96933796D01*
X135012546Y-96847546D01*
X135098796Y-96732331D01*
X135149091Y-96597483D01*
X135155500Y-96537873D01*
X135155499Y-90442128D01*
X135149183Y-90383371D01*
X135149091Y-90382516D01*
X135098797Y-90247671D01*
X135098793Y-90247664D01*
X135012547Y-90132455D01*
X135012544Y-90132452D01*
X134897335Y-90046206D01*
X134897328Y-90046202D01*
X134762482Y-89995908D01*
X134762483Y-89995908D01*
X134702883Y-89989501D01*
X134702881Y-89989500D01*
X134702873Y-89989500D01*
X134702864Y-89989500D01*
X130607129Y-89989500D01*
X130607123Y-89989501D01*
X130547516Y-89995908D01*
X130412671Y-90046202D01*
X130412664Y-90046206D01*
X130297455Y-90132452D01*
X130297452Y-90132455D01*
X130211206Y-90247664D01*
X130211202Y-90247671D01*
X130160908Y-90382517D01*
X130156571Y-90422861D01*
X130154501Y-90442123D01*
X130154500Y-90442135D01*
X130154500Y-90614595D01*
X130134815Y-90681634D01*
X130082011Y-90727389D01*
X130012853Y-90737333D01*
X129949297Y-90708308D01*
X129924961Y-90679692D01*
X129879006Y-90605187D01*
X129842712Y-90546344D01*
X129718656Y-90422288D01*
X129608324Y-90354235D01*
X129569336Y-90330187D01*
X129569331Y-90330185D01*
X129547494Y-90322949D01*
X129402797Y-90275001D01*
X129402795Y-90275000D01*
X129300010Y-90264500D01*
X127899998Y-90264500D01*
X127899981Y-90264501D01*
X127797203Y-90275000D01*
X127797200Y-90275001D01*
X127630668Y-90330185D01*
X127630663Y-90330187D01*
X127481342Y-90422289D01*
X127357289Y-90546342D01*
X127265187Y-90695663D01*
X127265185Y-90695668D01*
X127237349Y-90779670D01*
X127210001Y-90862203D01*
X127210001Y-90862204D01*
X127210000Y-90862204D01*
X127199500Y-90964983D01*
X127199500Y-91765001D01*
X127199501Y-91765019D01*
X127210000Y-91867796D01*
X127210001Y-91867799D01*
X127251277Y-91992360D01*
X127265186Y-92034334D01*
X127357287Y-92183655D01*
X127357289Y-92183657D01*
X127468949Y-92295317D01*
X127502434Y-92356640D01*
X127497450Y-92426332D01*
X127455578Y-92482265D01*
X127405460Y-92504615D01*
X127288170Y-92527946D01*
X127288164Y-92527948D01*
X127106088Y-92603366D01*
X127106080Y-92603371D01*
X127044375Y-92644602D01*
X126977698Y-92665480D01*
X126975484Y-92665500D01*
X126189789Y-92665500D01*
X126177638Y-92664903D01*
X126173545Y-92664500D01*
X126173541Y-92664500D01*
X125976459Y-92664500D01*
X125976457Y-92664500D01*
X125783170Y-92702947D01*
X125783160Y-92702950D01*
X125601088Y-92778366D01*
X125503456Y-92843602D01*
X125436778Y-92864480D01*
X125434565Y-92864500D01*
X125384298Y-92864500D01*
X125347432Y-92867401D01*
X125347426Y-92867402D01*
X125189606Y-92913254D01*
X125189603Y-92913255D01*
X125048137Y-92996917D01*
X125048129Y-92996923D01*
X124931923Y-93113129D01*
X124931917Y-93113137D01*
X124848255Y-93254603D01*
X124848254Y-93254606D01*
X124802402Y-93412426D01*
X124802401Y-93412432D01*
X124799500Y-93449298D01*
X124799500Y-93880701D01*
X124802401Y-93917567D01*
X124802402Y-93917573D01*
X124848254Y-94075393D01*
X124848255Y-94075396D01*
X124931917Y-94216862D01*
X124931923Y-94216870D01*
X125038181Y-94323128D01*
X125071666Y-94384451D01*
X125074500Y-94410809D01*
X125074500Y-96943541D01*
X125074500Y-96943543D01*
X125074499Y-96943543D01*
X125112947Y-97136829D01*
X125112950Y-97136839D01*
X125188364Y-97318907D01*
X125188371Y-97318920D01*
X125297860Y-97482781D01*
X125297863Y-97482785D01*
X125441537Y-97626459D01*
X125441559Y-97626479D01*
X126683681Y-98868601D01*
X126717166Y-98929924D01*
X126718473Y-98936883D01*
X126743985Y-99097952D01*
X126812103Y-99307603D01*
X126812106Y-99307611D01*
X126860100Y-99401801D01*
X126872997Y-99470470D01*
X126846721Y-99535211D01*
X126825108Y-99556469D01*
X126821182Y-99559481D01*
X123799481Y-102581182D01*
X123799477Y-102581187D01*
X123757558Y-102653795D01*
X123720424Y-102718111D01*
X123720423Y-102718112D01*
X123703972Y-102779510D01*
X123679499Y-102870843D01*
X123679499Y-102870845D01*
X123679499Y-103038946D01*
X123679500Y-103038959D01*
X123679500Y-104364330D01*
X123679499Y-104364348D01*
X123679499Y-104530054D01*
X123679498Y-104530054D01*
X123679499Y-104530057D01*
X123720423Y-104682785D01*
X123720424Y-104682787D01*
X123720423Y-104682787D01*
X123724889Y-104690521D01*
X123724890Y-104690522D01*
X123799477Y-104819712D01*
X123799481Y-104819717D01*
X123918349Y-104938585D01*
X123918355Y-104938590D01*
X126524016Y-107544251D01*
X126557501Y-107605574D01*
X126552517Y-107675266D01*
X126510645Y-107731199D01*
X126460527Y-107753549D01*
X126376508Y-107770261D01*
X126376498Y-107770264D01*
X126230827Y-107830602D01*
X126230814Y-107830609D01*
X126099711Y-107918210D01*
X126099707Y-107918213D01*
X125988213Y-108029707D01*
X125988210Y-108029711D01*
X125900609Y-108160814D01*
X125900602Y-108160827D01*
X125840264Y-108306498D01*
X125840261Y-108306510D01*
X125809500Y-108461153D01*
X125809500Y-108618846D01*
X125840261Y-108773489D01*
X125840264Y-108773501D01*
X125900602Y-108919172D01*
X125900609Y-108919185D01*
X125988210Y-109050288D01*
X125988213Y-109050292D01*
X126099707Y-109161786D01*
X126099711Y-109161789D01*
X126230814Y-109249390D01*
X126230827Y-109249397D01*
X126376498Y-109309735D01*
X126376503Y-109309737D01*
X126441147Y-109322595D01*
X126531849Y-109340638D01*
X126593760Y-109373023D01*
X126595339Y-109374574D01*
X126994913Y-109774149D01*
X127028398Y-109835472D01*
X127023414Y-109905164D01*
X126981542Y-109961097D01*
X126916078Y-109985514D01*
X126894630Y-109985188D01*
X126790011Y-109974500D01*
X125389998Y-109974500D01*
X125389981Y-109974501D01*
X125287203Y-109985000D01*
X125287200Y-109985001D01*
X125120668Y-110040185D01*
X125120663Y-110040187D01*
X124971342Y-110132289D01*
X124847289Y-110256342D01*
X124755187Y-110405663D01*
X124755185Y-110405668D01*
X124732344Y-110474598D01*
X124700001Y-110572203D01*
X124700001Y-110572204D01*
X124700000Y-110572204D01*
X124689500Y-110674983D01*
X124689500Y-111475001D01*
X124689501Y-111475019D01*
X124700000Y-111577796D01*
X124700001Y-111577799D01*
X124745631Y-111715500D01*
X124755186Y-111744334D01*
X124847288Y-111893656D01*
X124971344Y-112017712D01*
X125120666Y-112109814D01*
X125287203Y-112164999D01*
X125389991Y-112175500D01*
X126790008Y-112175499D01*
X126892797Y-112164999D01*
X127059334Y-112109814D01*
X127208656Y-112017712D01*
X127332712Y-111893656D01*
X127424814Y-111744334D01*
X127479999Y-111577797D01*
X127490500Y-111475009D01*
X127490499Y-110674992D01*
X127483971Y-110611093D01*
X127496740Y-110542404D01*
X127544620Y-110491519D01*
X127612410Y-110474598D01*
X127670449Y-110491762D01*
X127717068Y-110519331D01*
X127729602Y-110526744D01*
X127771224Y-110538836D01*
X127887426Y-110572597D01*
X127887429Y-110572597D01*
X127887431Y-110572598D01*
X127924306Y-110575500D01*
X127924314Y-110575500D01*
X129305686Y-110575500D01*
X129305694Y-110575500D01*
X129342569Y-110572598D01*
X129342571Y-110572597D01*
X129342573Y-110572597D01*
X129446496Y-110542404D01*
X129500398Y-110526744D01*
X129641865Y-110443081D01*
X129758081Y-110326865D01*
X129841744Y-110185398D01*
X129883932Y-110040187D01*
X129887597Y-110027573D01*
X129887598Y-110027567D01*
X129890499Y-109990701D01*
X129890500Y-109990694D01*
X129890500Y-109559306D01*
X129887598Y-109522431D01*
X129877882Y-109488988D01*
X129853075Y-109403601D01*
X129853274Y-109333732D01*
X129891216Y-109275062D01*
X129910150Y-109261620D01*
X129920716Y-109255520D01*
X130032520Y-109143716D01*
X130032521Y-109143714D01*
X130126664Y-109049570D01*
X130187984Y-109016088D01*
X130190152Y-109015637D01*
X130190841Y-109015500D01*
X130190842Y-109015500D01*
X130345497Y-108984737D01*
X130491179Y-108924394D01*
X130622289Y-108836789D01*
X130733789Y-108725289D01*
X130821394Y-108594179D01*
X130881737Y-108448497D01*
X130912500Y-108293842D01*
X130912500Y-108136158D01*
X130912500Y-108136155D01*
X130912499Y-108136153D01*
X130881738Y-107981510D01*
X130881737Y-107981503D01*
X130855521Y-107918211D01*
X130821397Y-107835827D01*
X130821390Y-107835814D01*
X130733789Y-107704711D01*
X130733786Y-107704707D01*
X130622292Y-107593213D01*
X130622288Y-107593210D01*
X130491185Y-107505609D01*
X130491172Y-107505602D01*
X130345501Y-107445264D01*
X130345489Y-107445261D01*
X130190845Y-107414500D01*
X130190842Y-107414500D01*
X130033158Y-107414500D01*
X129974482Y-107426171D01*
X129904891Y-107419942D01*
X129849714Y-107377079D01*
X129843560Y-107367673D01*
X129758085Y-107223141D01*
X129758076Y-107223129D01*
X129641870Y-107106923D01*
X129641862Y-107106917D01*
X129500396Y-107023255D01*
X129500393Y-107023254D01*
X129342573Y-106977402D01*
X129342567Y-106977401D01*
X129305701Y-106974500D01*
X129305694Y-106974500D01*
X127924306Y-106974500D01*
X127924298Y-106974500D01*
X127887432Y-106977401D01*
X127778239Y-107009125D01*
X127708370Y-107008925D01*
X127655964Y-106977729D01*
X126465415Y-105787180D01*
X126431930Y-105725857D01*
X126436914Y-105656165D01*
X126478786Y-105600232D01*
X126544250Y-105575815D01*
X126553096Y-105575499D01*
X126790002Y-105575499D01*
X126790008Y-105575499D01*
X126892797Y-105564999D01*
X127059334Y-105509814D01*
X127208656Y-105417712D01*
X127332712Y-105293656D01*
X127424814Y-105144334D01*
X127479999Y-104977797D01*
X127490500Y-104875009D01*
X127490499Y-104074992D01*
X127479999Y-103972203D01*
X127424814Y-103805666D01*
X127332712Y-103656344D01*
X127208656Y-103532288D01*
X127075338Y-103450057D01*
X127059336Y-103440187D01*
X127059331Y-103440185D01*
X127048799Y-103436695D01*
X126892797Y-103385001D01*
X126892795Y-103385000D01*
X126790010Y-103374500D01*
X125389998Y-103374500D01*
X125389981Y-103374501D01*
X125287203Y-103385000D01*
X125287200Y-103385001D01*
X125120668Y-103440185D01*
X125120661Y-103440188D01*
X125069595Y-103471686D01*
X125061977Y-103473770D01*
X125056011Y-103478940D01*
X125028763Y-103482857D01*
X125002203Y-103490125D01*
X124994668Y-103487760D01*
X124986853Y-103488884D01*
X124961806Y-103477445D01*
X124935539Y-103469201D01*
X124930480Y-103463139D01*
X124923297Y-103459859D01*
X124908410Y-103436695D01*
X124890771Y-103415559D01*
X124888831Y-103406229D01*
X124885523Y-103401081D01*
X124880500Y-103366146D01*
X124880500Y-103249996D01*
X124900185Y-103182957D01*
X124916814Y-103162320D01*
X126610321Y-101468812D01*
X126671642Y-101435329D01*
X126741334Y-101440313D01*
X126797267Y-101482185D01*
X126821684Y-101547649D01*
X126822000Y-101556495D01*
X126822000Y-102257870D01*
X126822001Y-102257876D01*
X126828408Y-102317483D01*
X126878702Y-102452328D01*
X126878706Y-102452335D01*
X126964952Y-102567544D01*
X126964955Y-102567547D01*
X127080164Y-102653793D01*
X127080171Y-102653797D01*
X127215017Y-102704091D01*
X127215016Y-102704091D01*
X127221944Y-102704835D01*
X127274627Y-102710500D01*
X128479902Y-102710499D01*
X128546941Y-102730184D01*
X128567583Y-102746818D01*
X130395139Y-104574374D01*
X130395149Y-104574385D01*
X130399479Y-104578715D01*
X130399480Y-104578716D01*
X130511284Y-104690520D01*
X130511286Y-104690521D01*
X130511290Y-104690524D01*
X130648209Y-104769573D01*
X130648216Y-104769577D01*
X130760019Y-104799534D01*
X130800942Y-104810500D01*
X130800943Y-104810500D01*
X134787777Y-104810500D01*
X134854816Y-104830185D01*
X134900571Y-104882989D01*
X134911395Y-104924773D01*
X134912401Y-104937567D01*
X134912402Y-104937573D01*
X134958254Y-105095393D01*
X134958255Y-105095396D01*
X134993237Y-105154548D01*
X135010420Y-105222272D01*
X134988260Y-105288535D01*
X134933794Y-105332298D01*
X134873903Y-105341027D01*
X134810011Y-105334500D01*
X134009998Y-105334500D01*
X134009980Y-105334501D01*
X133907203Y-105345000D01*
X133907200Y-105345001D01*
X133740668Y-105400185D01*
X133740663Y-105400187D01*
X133591342Y-105492289D01*
X133467289Y-105616342D01*
X133375187Y-105765663D01*
X133375185Y-105765668D01*
X133356206Y-105822943D01*
X133320001Y-105932203D01*
X133320001Y-105932204D01*
X133320000Y-105932204D01*
X133309500Y-106034983D01*
X133309500Y-107435001D01*
X133309501Y-107435018D01*
X133320000Y-107537796D01*
X133320001Y-107537799D01*
X133375185Y-107704331D01*
X133375187Y-107704336D01*
X133382073Y-107715500D01*
X133467288Y-107853656D01*
X133591344Y-107977712D01*
X133740666Y-108069814D01*
X133907203Y-108124999D01*
X134009991Y-108135500D01*
X134810008Y-108135499D01*
X134810016Y-108135498D01*
X134810019Y-108135498D01*
X134866302Y-108129748D01*
X134912797Y-108124999D01*
X134912800Y-108124997D01*
X134912804Y-108124997D01*
X134946495Y-108113833D01*
X135016323Y-108111430D01*
X135076365Y-108147161D01*
X135107558Y-108209681D01*
X135109500Y-108231538D01*
X135109500Y-108714191D01*
X135089815Y-108781230D01*
X135073181Y-108801872D01*
X135031923Y-108843129D01*
X135031917Y-108843137D01*
X134948255Y-108984603D01*
X134948254Y-108984606D01*
X134902402Y-109142426D01*
X134902401Y-109142432D01*
X134899500Y-109179298D01*
X134899500Y-110560701D01*
X134902401Y-110597567D01*
X134902402Y-110597573D01*
X134948254Y-110755393D01*
X134948255Y-110755396D01*
X134983237Y-110814548D01*
X135000420Y-110882272D01*
X134978260Y-110948535D01*
X134923794Y-110992298D01*
X134863903Y-111001027D01*
X134800011Y-110994500D01*
X133999998Y-110994500D01*
X133999980Y-110994501D01*
X133897203Y-111005000D01*
X133897200Y-111005001D01*
X133730668Y-111060185D01*
X133730663Y-111060187D01*
X133581342Y-111152289D01*
X133457289Y-111276342D01*
X133365187Y-111425663D01*
X133365185Y-111425668D01*
X133341017Y-111498602D01*
X133310001Y-111592203D01*
X133310001Y-111592204D01*
X133310000Y-111592204D01*
X133299500Y-111694983D01*
X133299500Y-113095001D01*
X133299501Y-113095018D01*
X133310000Y-113197796D01*
X133310001Y-113197799D01*
X133365185Y-113364331D01*
X133365187Y-113364336D01*
X133381412Y-113390641D01*
X133457288Y-113513656D01*
X133581344Y-113637712D01*
X133730666Y-113729814D01*
X133897203Y-113784999D01*
X133999991Y-113795500D01*
X134800008Y-113795499D01*
X134800016Y-113795498D01*
X134800019Y-113795498D01*
X134856302Y-113789748D01*
X134902797Y-113784999D01*
X134902800Y-113784997D01*
X134902804Y-113784997D01*
X134936495Y-113773833D01*
X135006323Y-113771430D01*
X135066365Y-113807161D01*
X135097558Y-113869681D01*
X135099500Y-113891538D01*
X135099500Y-114495122D01*
X135079815Y-114562161D01*
X135073483Y-114571117D01*
X135071921Y-114573129D01*
X134988255Y-114714603D01*
X134988254Y-114714606D01*
X134942402Y-114872426D01*
X134942401Y-114872432D01*
X134939500Y-114909298D01*
X134939500Y-116290701D01*
X134942401Y-116327567D01*
X134942402Y-116327573D01*
X134988254Y-116485393D01*
X134988255Y-116485396D01*
X135023237Y-116544548D01*
X135040420Y-116612272D01*
X135018260Y-116678535D01*
X134963794Y-116722298D01*
X134903903Y-116731027D01*
X134840011Y-116724500D01*
X134039998Y-116724500D01*
X134039980Y-116724501D01*
X133937203Y-116735000D01*
X133937200Y-116735001D01*
X133770668Y-116790185D01*
X133770663Y-116790187D01*
X133621342Y-116882289D01*
X133497289Y-117006342D01*
X133405187Y-117155663D01*
X133405185Y-117155668D01*
X133377349Y-117239670D01*
X133350001Y-117322203D01*
X133350001Y-117322204D01*
X133350000Y-117322204D01*
X133339500Y-117424983D01*
X133339500Y-118825001D01*
X133339501Y-118825018D01*
X133350000Y-118927796D01*
X133350001Y-118927799D01*
X133366520Y-118977649D01*
X133405186Y-119094334D01*
X133497288Y-119243656D01*
X133621344Y-119367712D01*
X133770666Y-119459814D01*
X133937203Y-119514999D01*
X134039991Y-119525500D01*
X134840008Y-119525499D01*
X134840016Y-119525498D01*
X134840019Y-119525498D01*
X134896302Y-119519748D01*
X134942797Y-119514999D01*
X135109334Y-119459814D01*
X135258656Y-119367712D01*
X135382712Y-119243656D01*
X135474814Y-119094334D01*
X135529999Y-118927797D01*
X135540500Y-118825009D01*
X135540499Y-117424992D01*
X135540498Y-117424983D01*
X138939500Y-117424983D01*
X138939500Y-118825001D01*
X138939501Y-118825018D01*
X138950000Y-118927796D01*
X138950001Y-118927799D01*
X138966520Y-118977649D01*
X139005186Y-119094334D01*
X139097288Y-119243656D01*
X139221344Y-119367712D01*
X139370666Y-119459814D01*
X139537203Y-119514999D01*
X139639991Y-119525500D01*
X140440008Y-119525499D01*
X140440016Y-119525498D01*
X140440019Y-119525498D01*
X140496302Y-119519748D01*
X140542797Y-119514999D01*
X140709334Y-119459814D01*
X140858656Y-119367712D01*
X140982712Y-119243656D01*
X141074814Y-119094334D01*
X141129999Y-118927797D01*
X141140500Y-118825009D01*
X141140499Y-117424992D01*
X141129999Y-117322203D01*
X141074814Y-117155666D01*
X140982712Y-117006344D01*
X140858656Y-116882288D01*
X140743215Y-116811084D01*
X140709336Y-116790187D01*
X140709331Y-116790185D01*
X140707862Y-116789698D01*
X140542797Y-116735001D01*
X140542795Y-116735000D01*
X140440010Y-116724500D01*
X139639998Y-116724500D01*
X139639980Y-116724501D01*
X139537203Y-116735000D01*
X139537200Y-116735001D01*
X139370668Y-116790185D01*
X139370663Y-116790187D01*
X139221342Y-116882289D01*
X139097289Y-117006342D01*
X139005187Y-117155663D01*
X139005185Y-117155668D01*
X138977349Y-117239670D01*
X138950001Y-117322203D01*
X138950001Y-117322204D01*
X138950000Y-117322204D01*
X138939500Y-117424983D01*
X135540498Y-117424983D01*
X135529999Y-117322203D01*
X135474814Y-117155666D01*
X135418641Y-117064595D01*
X135400202Y-116997204D01*
X135421125Y-116930541D01*
X135474767Y-116885771D01*
X135524181Y-116875500D01*
X135955686Y-116875500D01*
X135955694Y-116875500D01*
X135992569Y-116872598D01*
X135992571Y-116872597D01*
X135992573Y-116872597D01*
X136034191Y-116860505D01*
X136150398Y-116826744D01*
X136160213Y-116820939D01*
X136176878Y-116811084D01*
X136244601Y-116793900D01*
X136303122Y-116811084D01*
X136329598Y-116826742D01*
X136329599Y-116826742D01*
X136329602Y-116826744D01*
X136371224Y-116838836D01*
X136487426Y-116872597D01*
X136487429Y-116872597D01*
X136487431Y-116872598D01*
X136524306Y-116875500D01*
X136524314Y-116875500D01*
X136955686Y-116875500D01*
X136955694Y-116875500D01*
X136992569Y-116872598D01*
X136992571Y-116872597D01*
X136992573Y-116872597D01*
X137034191Y-116860505D01*
X137150398Y-116826744D01*
X137160213Y-116820939D01*
X137176878Y-116811084D01*
X137244601Y-116793900D01*
X137303122Y-116811084D01*
X137329598Y-116826742D01*
X137329599Y-116826742D01*
X137329602Y-116826744D01*
X137371224Y-116838836D01*
X137487426Y-116872597D01*
X137487429Y-116872597D01*
X137487431Y-116872598D01*
X137524306Y-116875500D01*
X137524314Y-116875500D01*
X137955686Y-116875500D01*
X137955694Y-116875500D01*
X137992569Y-116872598D01*
X137992571Y-116872597D01*
X137992573Y-116872597D01*
X138034191Y-116860505D01*
X138150398Y-116826744D01*
X138291865Y-116743081D01*
X138408081Y-116626865D01*
X138491744Y-116485398D01*
X138537598Y-116327569D01*
X138540500Y-116290694D01*
X138540500Y-114909306D01*
X138537598Y-114872431D01*
X138529660Y-114845110D01*
X138491745Y-114714606D01*
X138491744Y-114714603D01*
X138491744Y-114714602D01*
X138408081Y-114573135D01*
X138408079Y-114573133D01*
X138408076Y-114573129D01*
X138376819Y-114541872D01*
X138343334Y-114480549D01*
X138340500Y-114454191D01*
X138340500Y-111694983D01*
X138899500Y-111694983D01*
X138899500Y-113095001D01*
X138899501Y-113095018D01*
X138910000Y-113197796D01*
X138910001Y-113197799D01*
X138965185Y-113364331D01*
X138965187Y-113364336D01*
X138981412Y-113390641D01*
X139057288Y-113513656D01*
X139181344Y-113637712D01*
X139330666Y-113729814D01*
X139497203Y-113784999D01*
X139599991Y-113795500D01*
X140400008Y-113795499D01*
X140400016Y-113795498D01*
X140400019Y-113795498D01*
X140456302Y-113789748D01*
X140502797Y-113784999D01*
X140669334Y-113729814D01*
X140818656Y-113637712D01*
X140942712Y-113513656D01*
X141034814Y-113364334D01*
X141089999Y-113197797D01*
X141100500Y-113095009D01*
X141100499Y-111694992D01*
X141100206Y-111692128D01*
X141089999Y-111592203D01*
X141089998Y-111592200D01*
X141064196Y-111514336D01*
X141034814Y-111425666D01*
X140942712Y-111276344D01*
X140818656Y-111152288D01*
X140669334Y-111060186D01*
X140502797Y-111005001D01*
X140502795Y-111005000D01*
X140400010Y-110994500D01*
X139599998Y-110994500D01*
X139599980Y-110994501D01*
X139497203Y-111005000D01*
X139497200Y-111005001D01*
X139330668Y-111060185D01*
X139330663Y-111060187D01*
X139181342Y-111152289D01*
X139057289Y-111276342D01*
X138965187Y-111425663D01*
X138965185Y-111425668D01*
X138941017Y-111498602D01*
X138910001Y-111592203D01*
X138910001Y-111592204D01*
X138910000Y-111592204D01*
X138899500Y-111694983D01*
X138340500Y-111694983D01*
X138340500Y-110974877D01*
X138360185Y-110907838D01*
X138366521Y-110898876D01*
X138368078Y-110896867D01*
X138368081Y-110896865D01*
X138451744Y-110755398D01*
X138497598Y-110597569D01*
X138500500Y-110560694D01*
X138500500Y-109179306D01*
X138497598Y-109142431D01*
X138489044Y-109112989D01*
X138456094Y-108999576D01*
X138451744Y-108984602D01*
X138368081Y-108843135D01*
X138368079Y-108843133D01*
X138368076Y-108843129D01*
X138346819Y-108821872D01*
X138313334Y-108760549D01*
X138310500Y-108734191D01*
X138310500Y-106034983D01*
X138909500Y-106034983D01*
X138909500Y-107435001D01*
X138909501Y-107435018D01*
X138920000Y-107537796D01*
X138920001Y-107537799D01*
X138975185Y-107704331D01*
X138975187Y-107704336D01*
X138982073Y-107715500D01*
X139067288Y-107853656D01*
X139191344Y-107977712D01*
X139340666Y-108069814D01*
X139507203Y-108124999D01*
X139609991Y-108135500D01*
X140410008Y-108135499D01*
X140410016Y-108135498D01*
X140410019Y-108135498D01*
X140466302Y-108129748D01*
X140512797Y-108124999D01*
X140679334Y-108069814D01*
X140828656Y-107977712D01*
X140952712Y-107853656D01*
X141044814Y-107704334D01*
X141099999Y-107537797D01*
X141110500Y-107435009D01*
X141110499Y-106034992D01*
X141104989Y-105981057D01*
X141099999Y-105932203D01*
X141099998Y-105932200D01*
X141099835Y-105931707D01*
X141044814Y-105765666D01*
X140952712Y-105616344D01*
X140828656Y-105492288D01*
X140729556Y-105431163D01*
X140679336Y-105400187D01*
X140679331Y-105400185D01*
X140677862Y-105399698D01*
X140512797Y-105345001D01*
X140512795Y-105345000D01*
X140410010Y-105334500D01*
X139609998Y-105334500D01*
X139609980Y-105334501D01*
X139507203Y-105345000D01*
X139507200Y-105345001D01*
X139340668Y-105400185D01*
X139340663Y-105400187D01*
X139191342Y-105492289D01*
X139067289Y-105616342D01*
X138975187Y-105765663D01*
X138975185Y-105765668D01*
X138956206Y-105822943D01*
X138920001Y-105932203D01*
X138920001Y-105932204D01*
X138920000Y-105932204D01*
X138909500Y-106034983D01*
X138310500Y-106034983D01*
X138310500Y-105355808D01*
X138330185Y-105288769D01*
X138346820Y-105268126D01*
X138378076Y-105236870D01*
X138378081Y-105236865D01*
X138461744Y-105095398D01*
X138506486Y-104941396D01*
X138507597Y-104937573D01*
X138507598Y-104937567D01*
X138510499Y-104900701D01*
X138510500Y-104900694D01*
X138510500Y-103519306D01*
X138507598Y-103482431D01*
X138506149Y-103477445D01*
X138461745Y-103324606D01*
X138461744Y-103324603D01*
X138461744Y-103324602D01*
X138378081Y-103183135D01*
X138378079Y-103183133D01*
X138378076Y-103183129D01*
X138261870Y-103066923D01*
X138261862Y-103066917D01*
X138157439Y-103005162D01*
X138120398Y-102983256D01*
X138120397Y-102983255D01*
X138120396Y-102983255D01*
X138120393Y-102983254D01*
X137962573Y-102937402D01*
X137962567Y-102937401D01*
X137925701Y-102934500D01*
X137925694Y-102934500D01*
X137873097Y-102934500D01*
X137806058Y-102914815D01*
X137785416Y-102898181D01*
X137052390Y-102165155D01*
X137045321Y-102158086D01*
X137045320Y-102158084D01*
X136992677Y-102105441D01*
X136971021Y-102065778D01*
X136959195Y-102044121D01*
X136964179Y-101974429D01*
X136969863Y-101961497D01*
X137027895Y-101847606D01*
X137096015Y-101637951D01*
X137130500Y-101420222D01*
X137130500Y-101199778D01*
X137096015Y-100982049D01*
X137032947Y-100787945D01*
X137032763Y-100781478D01*
X137029671Y-100775794D01*
X137031777Y-100746979D01*
X137030953Y-100718106D01*
X137034294Y-100712565D01*
X137034766Y-100706110D01*
X137052115Y-100683010D01*
X137067033Y-100658273D01*
X137073810Y-100654127D01*
X137076727Y-100650244D01*
X137093268Y-100642224D01*
X137107731Y-100633378D01*
X137113159Y-100631363D01*
X137231785Y-100599577D01*
X137282113Y-100570520D01*
X137368716Y-100520520D01*
X137480520Y-100408716D01*
X137480520Y-100408714D01*
X137490724Y-100398511D01*
X137490728Y-100398506D01*
X137745797Y-100143436D01*
X137807118Y-100109953D01*
X137871794Y-100113188D01*
X137942049Y-100136015D01*
X138159778Y-100170500D01*
X138159779Y-100170500D01*
X138380221Y-100170500D01*
X138380222Y-100170500D01*
X138597951Y-100136015D01*
X138807606Y-100067895D01*
X139004022Y-99967815D01*
X139182365Y-99838242D01*
X139338242Y-99682365D01*
X139348804Y-99667826D01*
X139439682Y-99542745D01*
X139495011Y-99500079D01*
X139564625Y-99494100D01*
X139626420Y-99526705D01*
X139640318Y-99542745D01*
X139741752Y-99682358D01*
X139741756Y-99682363D01*
X139897636Y-99838243D01*
X139897641Y-99838247D01*
X140037254Y-99939682D01*
X140079920Y-99995012D01*
X140085899Y-100064625D01*
X140053293Y-100126420D01*
X140037254Y-100140318D01*
X139897641Y-100241752D01*
X139897636Y-100241756D01*
X139741756Y-100397636D01*
X139741752Y-100397641D01*
X139612187Y-100575974D01*
X139512104Y-100772393D01*
X139512103Y-100772396D01*
X139443985Y-100982047D01*
X139409500Y-101199778D01*
X139409500Y-101420221D01*
X139443985Y-101637952D01*
X139512103Y-101847603D01*
X139512104Y-101847606D01*
X139570120Y-101961466D01*
X139607129Y-102034100D01*
X139612187Y-102044025D01*
X139741752Y-102222358D01*
X139741756Y-102222363D01*
X139897636Y-102378243D01*
X139897641Y-102378247D01*
X140023074Y-102469378D01*
X140075978Y-102507815D01*
X140204375Y-102573237D01*
X140272393Y-102607895D01*
X140272396Y-102607896D01*
X140377221Y-102641955D01*
X140482049Y-102676015D01*
X140699778Y-102710500D01*
X140699779Y-102710500D01*
X140920221Y-102710500D01*
X140920222Y-102710500D01*
X141137951Y-102676015D01*
X141347606Y-102607895D01*
X141544022Y-102507815D01*
X141722365Y-102378242D01*
X141878242Y-102222365D01*
X141888804Y-102207826D01*
X141979682Y-102082745D01*
X142035011Y-102040079D01*
X142104625Y-102034100D01*
X142166420Y-102066705D01*
X142180318Y-102082745D01*
X142281752Y-102222358D01*
X142281756Y-102222363D01*
X142437636Y-102378243D01*
X142437641Y-102378247D01*
X142563074Y-102469378D01*
X142615978Y-102507815D01*
X142744375Y-102573237D01*
X142812393Y-102607895D01*
X142812396Y-102607896D01*
X142917221Y-102641955D01*
X143022049Y-102676015D01*
X143239778Y-102710500D01*
X143239779Y-102710500D01*
X143460221Y-102710500D01*
X143460222Y-102710500D01*
X143677951Y-102676015D01*
X143887606Y-102607895D01*
X144084022Y-102507815D01*
X144262365Y-102378242D01*
X144418242Y-102222365D01*
X144428804Y-102207826D01*
X144519682Y-102082745D01*
X144575011Y-102040079D01*
X144644625Y-102034100D01*
X144706420Y-102066705D01*
X144720318Y-102082745D01*
X144821752Y-102222358D01*
X144821756Y-102222363D01*
X144977636Y-102378243D01*
X144977641Y-102378247D01*
X145103074Y-102469378D01*
X145155978Y-102507815D01*
X145284375Y-102573237D01*
X145352393Y-102607895D01*
X145352396Y-102607896D01*
X145457221Y-102641955D01*
X145562049Y-102676015D01*
X145779778Y-102710500D01*
X145779779Y-102710500D01*
X146000221Y-102710500D01*
X146000222Y-102710500D01*
X146217951Y-102676015D01*
X146427606Y-102607895D01*
X146624022Y-102507815D01*
X146802365Y-102378242D01*
X146958242Y-102222365D01*
X146968804Y-102207826D01*
X147059682Y-102082745D01*
X147115011Y-102040079D01*
X147184625Y-102034100D01*
X147246420Y-102066705D01*
X147260318Y-102082745D01*
X147361752Y-102222358D01*
X147361756Y-102222363D01*
X147517638Y-102378245D01*
X147578384Y-102422378D01*
X147621050Y-102477707D01*
X147629500Y-102522697D01*
X147629500Y-103491939D01*
X147629499Y-103491943D01*
X147629499Y-103650057D01*
X147629500Y-103650060D01*
X147629500Y-105601902D01*
X147609815Y-105668941D01*
X147593181Y-105689583D01*
X147102180Y-106180584D01*
X147040857Y-106214069D01*
X146971165Y-106209085D01*
X146915232Y-106167213D01*
X146890815Y-106101749D01*
X146890499Y-106092903D01*
X146890499Y-105692129D01*
X146890498Y-105692123D01*
X146890497Y-105692116D01*
X146884091Y-105632517D01*
X146833796Y-105497669D01*
X146833794Y-105497666D01*
X146830696Y-105489360D01*
X146832426Y-105488714D01*
X146819902Y-105431163D01*
X146831691Y-105391011D01*
X146830696Y-105390640D01*
X146833794Y-105382333D01*
X146833796Y-105382331D01*
X146884091Y-105247483D01*
X146890500Y-105187873D01*
X146890499Y-103692128D01*
X146884091Y-103632517D01*
X146875506Y-103609500D01*
X146833797Y-103497671D01*
X146833793Y-103497664D01*
X146747547Y-103382455D01*
X146747544Y-103382452D01*
X146632335Y-103296206D01*
X146632328Y-103296202D01*
X146497482Y-103245908D01*
X146497483Y-103245908D01*
X146437883Y-103239501D01*
X146437881Y-103239500D01*
X146437873Y-103239500D01*
X146437864Y-103239500D01*
X144142129Y-103239500D01*
X144142123Y-103239501D01*
X144082516Y-103245908D01*
X143947671Y-103296202D01*
X143947664Y-103296206D01*
X143832455Y-103382452D01*
X143832452Y-103382455D01*
X143746206Y-103497664D01*
X143746202Y-103497671D01*
X143695908Y-103632517D01*
X143693347Y-103656342D01*
X143689501Y-103692123D01*
X143689500Y-103692135D01*
X143689500Y-105187870D01*
X143689501Y-105187876D01*
X143695908Y-105247483D01*
X143749303Y-105390641D01*
X143747575Y-105391285D01*
X143760095Y-105448853D01*
X143748310Y-105488988D01*
X143749303Y-105489359D01*
X143695908Y-105632517D01*
X143689501Y-105692116D01*
X143689501Y-105692123D01*
X143689500Y-105692135D01*
X143689500Y-107187870D01*
X143689501Y-107187876D01*
X143695908Y-107247483D01*
X143749303Y-107390641D01*
X143747575Y-107391285D01*
X143760095Y-107448853D01*
X143748310Y-107488988D01*
X143749303Y-107489359D01*
X143695908Y-107632517D01*
X143689501Y-107692116D01*
X143689501Y-107692123D01*
X143689500Y-107692135D01*
X143689500Y-109187870D01*
X143689501Y-109187876D01*
X143695908Y-109247483D01*
X143749303Y-109390641D01*
X143747575Y-109391285D01*
X143760095Y-109448853D01*
X143748310Y-109488988D01*
X143749303Y-109489359D01*
X143695908Y-109632517D01*
X143689501Y-109692116D01*
X143689501Y-109692123D01*
X143689500Y-109692135D01*
X143689500Y-111187870D01*
X143689501Y-111187876D01*
X143695908Y-111247482D01*
X143697681Y-111254981D01*
X143693943Y-111324750D01*
X143653078Y-111381423D01*
X143588060Y-111407006D01*
X143584603Y-111407160D01*
X143581153Y-111407500D01*
X143426510Y-111438261D01*
X143426498Y-111438264D01*
X143280827Y-111498602D01*
X143280814Y-111498609D01*
X143149711Y-111586210D01*
X143149707Y-111586213D01*
X143038213Y-111697707D01*
X143038210Y-111697711D01*
X142950609Y-111828814D01*
X142950602Y-111828827D01*
X142890264Y-111974498D01*
X142890261Y-111974510D01*
X142859500Y-112129153D01*
X142859500Y-112286846D01*
X142890261Y-112441489D01*
X142890264Y-112441501D01*
X142950602Y-112587172D01*
X142950609Y-112587185D01*
X143038210Y-112718288D01*
X143038213Y-112718292D01*
X143149707Y-112829786D01*
X143149711Y-112829789D01*
X143280814Y-112917390D01*
X143280827Y-112917397D01*
X143426498Y-112977735D01*
X143426503Y-112977737D01*
X143484767Y-112989326D01*
X143587132Y-113009689D01*
X143586709Y-113011812D01*
X143642437Y-113034312D01*
X143682799Y-113091344D01*
X143689501Y-113131558D01*
X143689501Y-113187876D01*
X143695908Y-113247483D01*
X143749303Y-113390641D01*
X143747575Y-113391285D01*
X143760095Y-113448853D01*
X143748310Y-113488988D01*
X143749303Y-113489359D01*
X143695908Y-113632517D01*
X143695350Y-113637712D01*
X143689501Y-113692123D01*
X143689500Y-113692135D01*
X143689500Y-115187870D01*
X143689501Y-115187876D01*
X143695908Y-115247483D01*
X143749303Y-115390641D01*
X143747575Y-115391285D01*
X143760095Y-115448853D01*
X143748310Y-115488988D01*
X143749303Y-115489359D01*
X143695908Y-115632517D01*
X143689501Y-115692116D01*
X143689501Y-115692123D01*
X143689500Y-115692135D01*
X143689500Y-117187870D01*
X143689501Y-117187876D01*
X143695908Y-117247483D01*
X143749303Y-117390641D01*
X143747575Y-117391285D01*
X143760095Y-117448853D01*
X143748310Y-117488988D01*
X143749303Y-117489359D01*
X143695908Y-117632517D01*
X143691835Y-117670407D01*
X143689501Y-117692123D01*
X143689500Y-117692135D01*
X143689500Y-119187870D01*
X143689501Y-119187876D01*
X143695908Y-119247483D01*
X143746202Y-119382328D01*
X143746206Y-119382335D01*
X143832452Y-119497544D01*
X143832455Y-119497547D01*
X143947664Y-119583793D01*
X143947671Y-119583797D01*
X143990625Y-119599818D01*
X144046559Y-119641689D01*
X144070976Y-119707153D01*
X144056124Y-119775426D01*
X144006719Y-119824832D01*
X143947292Y-119840000D01*
X125661362Y-119840000D01*
X125594323Y-119820315D01*
X125573681Y-119803681D01*
X123036319Y-117266319D01*
X123002834Y-117204996D01*
X123000000Y-117178638D01*
X123000000Y-116065601D01*
X124189498Y-116065601D01*
X124189498Y-116334396D01*
X124224580Y-116600879D01*
X124224581Y-116600884D01*
X124224582Y-116600890D01*
X124245387Y-116678535D01*
X124294150Y-116860523D01*
X124397009Y-117108849D01*
X124397017Y-117108865D01*
X124442633Y-117187873D01*
X124531411Y-117341640D01*
X124531413Y-117341643D01*
X124531414Y-117341644D01*
X124695040Y-117554887D01*
X124695046Y-117554894D01*
X124885102Y-117744950D01*
X124885108Y-117744955D01*
X125098357Y-117908586D01*
X125247966Y-117994963D01*
X125331131Y-118042979D01*
X125331147Y-118042987D01*
X125465502Y-118098638D01*
X125579472Y-118145846D01*
X125839107Y-118215415D01*
X126027317Y-118240192D01*
X126105600Y-118250499D01*
X126105601Y-118250499D01*
X126374396Y-118250499D01*
X126434903Y-118242533D01*
X126640889Y-118215415D01*
X126900524Y-118145846D01*
X127087455Y-118068416D01*
X127148848Y-118042987D01*
X127148851Y-118042985D01*
X127148857Y-118042983D01*
X127381639Y-117908586D01*
X127594888Y-117744955D01*
X127784954Y-117554889D01*
X127948585Y-117341640D01*
X128082982Y-117108858D01*
X128185845Y-116860525D01*
X128255414Y-116600890D01*
X128290498Y-116334396D01*
X128290498Y-116065602D01*
X128255414Y-115799108D01*
X128185845Y-115539473D01*
X128144642Y-115440000D01*
X128082986Y-115291148D01*
X128082978Y-115291132D01*
X128023355Y-115187864D01*
X127948585Y-115058358D01*
X127784954Y-114845109D01*
X127784949Y-114845103D01*
X127594893Y-114655047D01*
X127594886Y-114655041D01*
X127381643Y-114491415D01*
X127381642Y-114491414D01*
X127381639Y-114491412D01*
X127288830Y-114437829D01*
X127148864Y-114357018D01*
X127148848Y-114357010D01*
X126900522Y-114254151D01*
X126770706Y-114219367D01*
X126640889Y-114184583D01*
X126640883Y-114184582D01*
X126640878Y-114184581D01*
X126374396Y-114149499D01*
X126374395Y-114149499D01*
X126105601Y-114149499D01*
X126105600Y-114149499D01*
X125839117Y-114184581D01*
X125839110Y-114184582D01*
X125839107Y-114184583D01*
X125784237Y-114199285D01*
X125579473Y-114254151D01*
X125331147Y-114357010D01*
X125331131Y-114357018D01*
X125098352Y-114491415D01*
X124885109Y-114655041D01*
X124885102Y-114655047D01*
X124695046Y-114845103D01*
X124695040Y-114845110D01*
X124531414Y-115058353D01*
X124397017Y-115291132D01*
X124397009Y-115291148D01*
X124294150Y-115539474D01*
X124224583Y-115799105D01*
X124224580Y-115799118D01*
X124189498Y-116065601D01*
X123000000Y-116065601D01*
X123000000Y-79565602D01*
X124189498Y-79565602D01*
X124189498Y-79834397D01*
X124224580Y-80100880D01*
X124224581Y-80100885D01*
X124224582Y-80100891D01*
X124224583Y-80100893D01*
X124294150Y-80360524D01*
X124397009Y-80608850D01*
X124397017Y-80608866D01*
X124452122Y-80704309D01*
X124531411Y-80841641D01*
X124531413Y-80841644D01*
X124531414Y-80841645D01*
X124695040Y-81054888D01*
X124695046Y-81054895D01*
X124885102Y-81244951D01*
X124885108Y-81244956D01*
X125098357Y-81408587D01*
X125247966Y-81494964D01*
X125331131Y-81542980D01*
X125331147Y-81542988D01*
X125486006Y-81607132D01*
X125579472Y-81645847D01*
X125839107Y-81715416D01*
X126027317Y-81740193D01*
X126105600Y-81750500D01*
X126105601Y-81750500D01*
X126374396Y-81750500D01*
X126434903Y-81742534D01*
X126640889Y-81715416D01*
X126900524Y-81645847D01*
X127087455Y-81568417D01*
X127148848Y-81542988D01*
X127148851Y-81542986D01*
X127148857Y-81542984D01*
X127381639Y-81408587D01*
X127594888Y-81244956D01*
X127784954Y-81054890D01*
X127948585Y-80841641D01*
X128082982Y-80608859D01*
X128185845Y-80360526D01*
X128255414Y-80100891D01*
X128290498Y-79834397D01*
X128290498Y-79565603D01*
X128290498Y-79565602D01*
X176189504Y-79565602D01*
X176189504Y-79834397D01*
X176224586Y-80100880D01*
X176224587Y-80100885D01*
X176224588Y-80100891D01*
X176224589Y-80100893D01*
X176294156Y-80360524D01*
X176397015Y-80608850D01*
X176397023Y-80608866D01*
X176452128Y-80704309D01*
X176531417Y-80841641D01*
X176531419Y-80841644D01*
X176531420Y-80841645D01*
X176695046Y-81054888D01*
X176695052Y-81054895D01*
X176885108Y-81244951D01*
X176885114Y-81244956D01*
X177098363Y-81408587D01*
X177247972Y-81494964D01*
X177331137Y-81542980D01*
X177331153Y-81542988D01*
X177486012Y-81607132D01*
X177579478Y-81645847D01*
X177839113Y-81715416D01*
X178027323Y-81740193D01*
X178105606Y-81750500D01*
X178105607Y-81750500D01*
X178374402Y-81750500D01*
X178434909Y-81742534D01*
X178640895Y-81715416D01*
X178900530Y-81645847D01*
X179087461Y-81568417D01*
X179148854Y-81542988D01*
X179148857Y-81542986D01*
X179148863Y-81542984D01*
X179381645Y-81408587D01*
X179594894Y-81244956D01*
X179784960Y-81054890D01*
X179948591Y-80841641D01*
X180082988Y-80608859D01*
X180185851Y-80360526D01*
X180255420Y-80100891D01*
X180290504Y-79834397D01*
X180290504Y-79565603D01*
X180255420Y-79299109D01*
X180185851Y-79039474D01*
X180123409Y-78888726D01*
X180082992Y-78791149D01*
X180082984Y-78791133D01*
X180027880Y-78695691D01*
X179948591Y-78558359D01*
X179784960Y-78345110D01*
X179784955Y-78345104D01*
X179594899Y-78155048D01*
X179594892Y-78155042D01*
X179381649Y-77991416D01*
X179381648Y-77991415D01*
X179381645Y-77991413D01*
X179288836Y-77937830D01*
X179148870Y-77857019D01*
X179148854Y-77857011D01*
X178900528Y-77754152D01*
X178770712Y-77719368D01*
X178640895Y-77684584D01*
X178640889Y-77684583D01*
X178640884Y-77684582D01*
X178374402Y-77649500D01*
X178374401Y-77649500D01*
X178105607Y-77649500D01*
X178105606Y-77649500D01*
X177839123Y-77684582D01*
X177839116Y-77684583D01*
X177839113Y-77684584D01*
X177784243Y-77699286D01*
X177579479Y-77754152D01*
X177331153Y-77857011D01*
X177331137Y-77857019D01*
X177098358Y-77991416D01*
X176885115Y-78155042D01*
X176885108Y-78155048D01*
X176695052Y-78345104D01*
X176695046Y-78345111D01*
X176531420Y-78558354D01*
X176397023Y-78791133D01*
X176397015Y-78791149D01*
X176294156Y-79039475D01*
X176224589Y-79299106D01*
X176224586Y-79299119D01*
X176189504Y-79565602D01*
X128290498Y-79565602D01*
X128255414Y-79299109D01*
X128185845Y-79039474D01*
X128123403Y-78888726D01*
X128082986Y-78791149D01*
X128082978Y-78791133D01*
X128027874Y-78695691D01*
X127948585Y-78558359D01*
X127784954Y-78345110D01*
X127784949Y-78345104D01*
X127594893Y-78155048D01*
X127594886Y-78155042D01*
X127381643Y-77991416D01*
X127381642Y-77991415D01*
X127381639Y-77991413D01*
X127288830Y-77937830D01*
X127148864Y-77857019D01*
X127148848Y-77857011D01*
X126900522Y-77754152D01*
X126770706Y-77719368D01*
X126640889Y-77684584D01*
X126640883Y-77684583D01*
X126640878Y-77684582D01*
X126374396Y-77649500D01*
X126374395Y-77649500D01*
X126105601Y-77649500D01*
X126105600Y-77649500D01*
X125839117Y-77684582D01*
X125839110Y-77684583D01*
X125839107Y-77684584D01*
X125784237Y-77699286D01*
X125579473Y-77754152D01*
X125331147Y-77857011D01*
X125331131Y-77857019D01*
X125098352Y-77991416D01*
X124885109Y-78155042D01*
X124885102Y-78155048D01*
X124695046Y-78345104D01*
X124695040Y-78345111D01*
X124531414Y-78558354D01*
X124397017Y-78791133D01*
X124397009Y-78791149D01*
X124294150Y-79039475D01*
X124224583Y-79299106D01*
X124224580Y-79299119D01*
X124189498Y-79565602D01*
X123000000Y-79565602D01*
X123000000Y-77811362D01*
X123019685Y-77744323D01*
X123036319Y-77723681D01*
X124633681Y-76126319D01*
X124695004Y-76092834D01*
X124721362Y-76090000D01*
X179538638Y-76090000D01*
X179605677Y-76109685D01*
G37*
%TD.AperFunction*%
%TD*%
M02*
