M48
; DRILL file {KiCad 9.0.2} date 2025-09-10T19:32:02+0530
; FORMAT={-:-/ absolute / inch / decimal}
; #@! TF.CreationDate,2025-09-10T19:32:02+05:30
; #@! TF.GenerationSoftware,Kicad,Pcbnew,9.0.2
; #@! TF.FileFunction,Plated,1,2,PTH
FMAT,2
INCH
; #@! TA.AperFunction,Plated,PTH,ViaDrill
T1C0.0118
; #@! TA.AperFunction,Plated,PTH,ViaDrill
T2C0.0236
; #@! TA.AperFunction,Plated,PTH,ComponentDrill
T3C0.0433
%
G90
G05
T1
X4.9846Y-4.2732
X5.1225Y-4.2604
X5.1248Y-4.1654
X5.6559Y-4.4176
X5.7939Y-4.667
X5.9997Y-4.1592
X6.1948Y-4.1906
T2
X6.4598Y-3.6563
X6.4618Y-3.7177
X6.9858Y-3.5906
X7.0453Y-3.5933
T3
X5.0437Y-3.8886
X5.0437Y-3.9886
X5.1437Y-3.8886
X5.1437Y-3.9886
X5.2437Y-3.8886
X5.2437Y-3.9886
X5.3437Y-3.8886
X5.3437Y-3.9886
X5.4437Y-3.8886
X5.4437Y-3.9886
X5.5437Y-3.8886
X5.5437Y-3.9886
X5.6437Y-3.8886
X5.6437Y-3.9886
X5.7437Y-3.8886
X5.7437Y-3.9886
X5.8437Y-3.8886
X5.8437Y-3.9886
X5.9437Y-3.8886
X5.9437Y-3.9886
X6.0437Y-3.8886
X6.0437Y-3.9886
X6.1437Y-3.8886
X6.1437Y-3.9886
X6.2437Y-3.8886
X6.2437Y-3.9886
X6.3437Y-3.8886
X6.3437Y-3.9886
X6.4437Y-3.8886
X6.4437Y-3.9886
X6.5437Y-3.8886
X6.5437Y-3.9886
X6.6437Y-3.8886
X6.6437Y-3.9886
X6.7437Y-3.8886
X6.7437Y-3.9886
X6.8437Y-3.8886
X6.8437Y-3.9886
X6.9437Y-3.8886
X6.9437Y-3.9886
M30
