%TF.GenerationSoftware,KiCad,Pcbnew,9.0.2*%
%TF.CreationDate,2025-09-10T19:31:46+05:30*%
%TF.ProjectId,ProDoc_Board1_2025-09-03,50726f44-6f63-45f4-926f-617264315f32,rev?*%
%TF.SameCoordinates,Original*%
%TF.FileFunction,Profile,NP*%
%FSLAX46Y46*%
G04 Gerber Fmt 4.6, Leading zero omitted, Abs format (unit mm)*
G04 Created by KiCad (PCBNEW 9.0.2) date 2025-09-10 19:31:46*
%MOMM*%
%LPD*%
G01*
G04 APERTURE LIST*
%TA.AperFunction,Profile*%
%ADD10C,0.200000*%
%TD*%
G04 APERTURE END LIST*
D10*
X127240002Y-75199999D02*
X124740001Y-75199999D01*
X127789998Y-79700000D02*
G75*
G02*
X124689998Y-79700000I-1550000J0D01*
G01*
X124689998Y-79700000D02*
G75*
G02*
X127789998Y-79700000I1550000J0D01*
G01*
X179740002Y-75199999D02*
X177240001Y-75199999D01*
X122240000Y-77699998D02*
X122240000Y-118199997D01*
X124739998Y-120699998D02*
X127240002Y-120699999D01*
X124739998Y-120699998D02*
G75*
G02*
X122240000Y-118199997I2J2500000D01*
G01*
X179790004Y-116199999D02*
G75*
G02*
X176690004Y-116199999I-1550000J0D01*
G01*
X176690004Y-116199999D02*
G75*
G02*
X179790004Y-116199999I1550000J0D01*
G01*
X182240002Y-118199999D02*
X182240002Y-77699999D01*
X127789998Y-116199999D02*
G75*
G02*
X124689998Y-116199999I-1550000J0D01*
G01*
X124689998Y-116199999D02*
G75*
G02*
X127789998Y-116199999I1550000J0D01*
G01*
X127240002Y-120699999D02*
X177240001Y-120699999D01*
X122240000Y-77699998D02*
G75*
G02*
X124740001Y-75199998I2500000J0D01*
G01*
X179740002Y-75199999D02*
G75*
G02*
X182239999Y-77699999I-2J-2499999D01*
G01*
X178240004Y-120699999D02*
X179740003Y-120699999D01*
X177240001Y-75199999D02*
X127240002Y-75199999D01*
X179790004Y-79700000D02*
G75*
G02*
X176690004Y-79700000I-1550000J0D01*
G01*
X176690004Y-79700000D02*
G75*
G02*
X179790004Y-79700000I1550000J0D01*
G01*
X177240001Y-120699999D02*
X178240004Y-120699999D01*
X182240002Y-118199999D02*
G75*
G02*
X179740003Y-120700000I-2500002J1D01*
G01*
M02*
