%TF.GenerationSoftware,KiCad,Pcbnew,9.0.2*%
%TF.CreationDate,2025-09-10T19:31:46+05:30*%
%TF.ProjectId,ProDoc_Board1_2025-09-03,50726f44-6f63-45f4-926f-617264315f32,rev?*%
%TF.SameCoordinates,Original*%
%TF.FileFunction,Copper,L2,Bot*%
%TF.FilePolarity,Positive*%
%FSLAX46Y46*%
G04 Gerber Fmt 4.6, Leading zero omitted, Abs format (unit mm)*
G04 Created by KiCad (PCBNEW 9.0.2) date 2025-09-10 19:31:46*
%MOMM*%
%LPD*%
G01*
G04 APERTURE LIST*
%TA.AperFunction,ComponentPad*%
%ADD10R,1.575000X1.800000*%
%TD*%
%TA.AperFunction,ComponentPad*%
%ADD11C,1.800000*%
%TD*%
%TA.AperFunction,SMDPad,CuDef*%
%ADD12R,1.620000X2.046500*%
%TD*%
%TA.AperFunction,ViaPad*%
%ADD13C,0.600000*%
%TD*%
%TA.AperFunction,ViaPad*%
%ADD14C,1.000000*%
%TD*%
%TA.AperFunction,Conductor*%
%ADD15C,1.000000*%
%TD*%
%TA.AperFunction,Conductor*%
%ADD16C,0.200000*%
%TD*%
G04 APERTURE END LIST*
D10*
%TO.P,H1,1,1*%
%TO.N,Net-(CN2-Pad4)*%
X128110000Y-101310000D03*
D11*
%TO.P,H1,2,2*%
%TO.N,Net-(U4-OUT+)*%
X128110000Y-98770000D03*
%TO.P,H1,3,3*%
%TO.N,Net-(CN2-Pad3)*%
X130650000Y-101310000D03*
%TO.P,H1,4,4*%
%TO.N,Net-(J1-Pin_1)*%
X130650000Y-98770000D03*
%TO.P,H1,5,5*%
%TO.N,Net-(CN2-Pad2)*%
X133190000Y-101310000D03*
%TO.P,H1,6,6*%
%TO.N,unconnected-(H1-Pad6)*%
X133190000Y-98770000D03*
%TO.P,H1,7,7*%
%TO.N,unconnected-(H1-Pad7)*%
X135730000Y-101310000D03*
%TO.P,H1,8,8*%
%TO.N,Net-(J1-Pin_2)*%
X135730000Y-98770000D03*
%TO.P,H1,9,9*%
%TO.N,GND*%
X138270000Y-101310000D03*
%TO.P,H1,10,10*%
%TO.N,Net-(J1-Pin_3)*%
X138270000Y-98770000D03*
%TO.P,H1,11,11*%
%TO.N,Net-(CN8-Pad2)*%
X140810000Y-101310000D03*
%TO.P,H1,12,12*%
%TO.N,unconnected-(H1-Pad12)*%
X140810000Y-98770000D03*
%TO.P,H1,13,13*%
%TO.N,unconnected-(H1-Pad13)*%
X143350000Y-101310000D03*
%TO.P,H1,14,14*%
%TO.N,GND*%
X143350000Y-98770000D03*
%TO.P,H1,15,15*%
%TO.N,Net-(U3-DIO0)*%
X145890000Y-101310000D03*
%TO.P,H1,16,16*%
%TO.N,unconnected-(H1-Pad16)*%
X145890000Y-98770000D03*
%TO.P,H1,17,17*%
%TO.N,Net-(U3-3.3V)*%
X148430000Y-101310000D03*
%TO.P,H1,18,18*%
%TO.N,unconnected-(H1-Pad18)*%
X148430000Y-98770000D03*
%TO.P,H1,19,19*%
%TO.N,Net-(U3-MOSI)*%
X150970000Y-101310000D03*
%TO.P,H1,20,20*%
%TO.N,unconnected-(H1-Pad20)*%
X150970000Y-98770000D03*
%TO.P,H1,21,21*%
%TO.N,Net-(U3-MISO)*%
X153510000Y-101310000D03*
%TO.P,H1,22,22*%
%TO.N,unconnected-(H1-Pad22)*%
X153510000Y-98770000D03*
%TO.P,H1,23,23*%
%TO.N,Net-(U3-SCK)*%
X156050000Y-101310000D03*
%TO.P,H1,24,24*%
%TO.N,Net-(U3-NSS)*%
X156050000Y-98770000D03*
%TO.P,H1,25,25*%
%TO.N,GND*%
X158590000Y-101310000D03*
%TO.P,H1,26,26*%
%TO.N,unconnected-(H1-Pad26)*%
X158590000Y-98770000D03*
%TO.P,H1,27,27*%
%TO.N,unconnected-(H1-Pad27)*%
X161130000Y-101310000D03*
%TO.P,H1,28,28*%
%TO.N,unconnected-(H1-Pad28)*%
X161130000Y-98770000D03*
%TO.P,H1,29,29*%
%TO.N,unconnected-(H1-Pad29)*%
X163670000Y-101310000D03*
%TO.P,H1,30,30*%
%TO.N,unconnected-(H1-Pad30)*%
X163670000Y-98770000D03*
%TO.P,H1,31,31*%
%TO.N,Net-(CN7-Pad5)*%
X166210000Y-101310000D03*
%TO.P,H1,32,32*%
%TO.N,unconnected-(H1-Pad32)*%
X166210000Y-98770000D03*
%TO.P,H1,33,33*%
%TO.N,Net-(CN7-Pad4)*%
X168750000Y-101310000D03*
%TO.P,H1,34,34*%
%TO.N,unconnected-(H1-Pad34)*%
X168750000Y-98770000D03*
%TO.P,H1,35,35*%
%TO.N,Net-(CN7-Pad3)*%
X171290000Y-101310000D03*
%TO.P,H1,36,36*%
%TO.N,unconnected-(H1-Pad36)*%
X171290000Y-98770000D03*
%TO.P,H1,37,37*%
%TO.N,Net-(CN7-Pad2)*%
X173830000Y-101310000D03*
%TO.P,H1,38,38*%
%TO.N,unconnected-(H1-Pad38)*%
X173830000Y-98770000D03*
%TO.P,H1,39,39*%
%TO.N,GND*%
X176370000Y-101310000D03*
%TO.P,H1,40,40*%
%TO.N,unconnected-(H1-Pad40)*%
X176370000Y-98770000D03*
%TD*%
D12*
%TO.P,D2,2,A*%
%TO.N,Net-(D2-A)*%
X157929500Y-89246000D03*
%TO.P,D2,1,K*%
%TO.N,Net-(D2-K)*%
X157910500Y-94054000D03*
%TD*%
D13*
%TO.N,Net-(U3-MISO)*%
X152393000Y-105644000D03*
%TO.N,Net-(U3-DIO0)*%
X143660000Y-112208000D03*
%TO.N,Net-(U3-NSS)*%
X157347000Y-106442000D03*
D14*
%TO.N,Net-(D2-K)*%
X164130000Y-94430000D03*
X164080000Y-92870000D03*
D13*
%TO.N,Net-(J1-Pin_2)*%
X130112000Y-108215000D03*
D14*
%TO.N,Net-(D2-A)*%
X178950000Y-91270000D03*
X177440000Y-91200000D03*
D13*
%TO.N,Net-(CN8-Pad2)*%
X147165200Y-118541800D03*
%TO.N,Net-(J1-Pin_1)*%
X126610000Y-108540000D03*
%TO.N,GND*%
X130170000Y-105800000D03*
%TD*%
D15*
%TO.N,Net-(D2-K)*%
X159094000Y-92870000D02*
X157910000Y-94054000D01*
X157910000Y-94054000D02*
X158098000Y-94242000D01*
X164080000Y-92870000D02*
X159094000Y-92870000D01*
D16*
%TO.N,Net-(U3-NSS)*%
X157260000Y-106355000D02*
X157347000Y-106442000D01*
X157260000Y-100110000D02*
X157260000Y-106355000D01*
X156450500Y-99300500D02*
X157260000Y-100110000D01*
%TO.N,Net-(J1-Pin_2)*%
X135600000Y-98770000D02*
X135730000Y-98770000D01*
X134480000Y-99750000D02*
X135530000Y-98700000D01*
X134480000Y-103847000D02*
X134480000Y-99750000D01*
X130112000Y-108215000D02*
X134480000Y-103847000D01*
X135530000Y-98700000D02*
X135600000Y-98770000D01*
%TO.N,Net-(U3-MISO)*%
X152393000Y-105570000D02*
X152393000Y-105644000D01*
X152393000Y-102157000D02*
X152393000Y-105570000D01*
X153310000Y-101240000D02*
X152393000Y-102157000D01*
X153380000Y-101310000D02*
X153310000Y-101240000D01*
X153510000Y-101310000D02*
X153380000Y-101310000D01*
%TO.N,Net-(U3-DIO0)*%
X143650000Y-112198000D02*
X143660000Y-112208000D01*
X145890000Y-105509000D02*
X145890000Y-101310000D01*
X145690000Y-105709000D02*
X145890000Y-105509000D01*
X145690000Y-101240000D02*
X145690000Y-105709000D01*
X145690000Y-110178000D02*
X143660000Y-112208000D01*
X145690000Y-105709000D02*
X145690000Y-110178000D01*
%TO.N,Net-(U3-NSS)*%
X156050000Y-98900000D02*
X156050000Y-98770000D01*
X156450500Y-99300500D02*
X156050000Y-98900000D01*
X155850000Y-98700000D02*
X156450500Y-99300500D01*
D15*
%TO.N,Net-(D2-K)*%
X164130000Y-94430000D02*
X158286000Y-94430000D01*
D16*
X157910500Y-94054500D02*
X157910500Y-94054000D01*
X158098000Y-94242000D02*
X157910500Y-94054500D01*
D15*
X158286000Y-94430000D02*
X158098000Y-94242000D01*
%TO.N,Net-(D2-A)*%
X178016000Y-89246000D02*
X175486000Y-89246000D01*
X178950000Y-90180000D02*
X178016000Y-89246000D01*
X178950000Y-91270000D02*
X178950000Y-90180000D01*
X177440000Y-91200000D02*
X175486000Y-89246000D01*
X175486000Y-89246000D02*
X157930000Y-89246000D01*
D16*
X157929500Y-89246000D02*
X157930000Y-89246000D01*
%TO.N,Net-(CN8-Pad2)*%
X140810000Y-112186600D02*
X147165200Y-118541800D01*
X140810000Y-101310000D02*
X140810000Y-112186600D01*
%TO.N,Net-(J1-Pin_1)*%
X129249000Y-105901000D02*
X126610000Y-108540000D01*
X129249000Y-99901000D02*
X129249000Y-105901000D01*
X130450000Y-98700000D02*
X129249000Y-99901000D01*
X130520000Y-98770000D02*
X130450000Y-98700000D01*
X130650000Y-98770000D02*
X130520000Y-98770000D01*
%TD*%
%TA.AperFunction,Conductor*%
%TO.N,GND*%
G36*
X179605677Y-76109685D02*
G01*
X179626319Y-76126319D01*
X181170000Y-77670000D01*
X181183452Y-77675572D01*
X181237856Y-77719413D01*
X181259921Y-77785707D01*
X181260000Y-77790133D01*
X181260000Y-118098638D01*
X181240315Y-118165677D01*
X181223681Y-118186319D01*
X179606319Y-119803681D01*
X179544996Y-119837166D01*
X179518638Y-119840000D01*
X125661362Y-119840000D01*
X125594323Y-119820315D01*
X125573681Y-119803681D01*
X123036319Y-117266319D01*
X123002834Y-117204996D01*
X123000000Y-117178638D01*
X123000000Y-116065601D01*
X124189498Y-116065601D01*
X124189498Y-116334396D01*
X124224580Y-116600879D01*
X124224581Y-116600884D01*
X124224582Y-116600890D01*
X124224583Y-116600892D01*
X124294150Y-116860523D01*
X124397009Y-117108849D01*
X124397017Y-117108865D01*
X124452122Y-117204308D01*
X124531411Y-117341640D01*
X124531413Y-117341643D01*
X124531414Y-117341644D01*
X124695040Y-117554887D01*
X124695046Y-117554894D01*
X124885102Y-117744950D01*
X124885108Y-117744955D01*
X125098357Y-117908586D01*
X125247966Y-117994963D01*
X125331131Y-118042979D01*
X125331147Y-118042987D01*
X125465502Y-118098638D01*
X125579472Y-118145846D01*
X125839107Y-118215415D01*
X126027317Y-118240192D01*
X126105600Y-118250499D01*
X126105601Y-118250499D01*
X126374396Y-118250499D01*
X126434903Y-118242533D01*
X126640889Y-118215415D01*
X126900524Y-118145846D01*
X127087455Y-118068416D01*
X127148848Y-118042987D01*
X127148851Y-118042985D01*
X127148857Y-118042983D01*
X127381639Y-117908586D01*
X127594888Y-117744955D01*
X127784954Y-117554889D01*
X127948585Y-117341640D01*
X128082982Y-117108858D01*
X128185845Y-116860525D01*
X128255414Y-116600890D01*
X128290498Y-116334396D01*
X128290498Y-116065602D01*
X128255414Y-115799108D01*
X128185845Y-115539473D01*
X128123403Y-115388725D01*
X128082986Y-115291148D01*
X128082978Y-115291132D01*
X128027874Y-115195690D01*
X127948585Y-115058358D01*
X127784954Y-114845109D01*
X127784949Y-114845103D01*
X127594893Y-114655047D01*
X127594886Y-114655041D01*
X127381643Y-114491415D01*
X127381642Y-114491414D01*
X127381639Y-114491412D01*
X127288830Y-114437829D01*
X127148864Y-114357018D01*
X127148848Y-114357010D01*
X126900522Y-114254151D01*
X126770706Y-114219367D01*
X126640889Y-114184583D01*
X126640883Y-114184582D01*
X126640878Y-114184581D01*
X126374396Y-114149499D01*
X126374395Y-114149499D01*
X126105601Y-114149499D01*
X126105600Y-114149499D01*
X125839117Y-114184581D01*
X125839110Y-114184582D01*
X125839107Y-114184583D01*
X125784237Y-114199285D01*
X125579473Y-114254151D01*
X125331147Y-114357010D01*
X125331131Y-114357018D01*
X125098352Y-114491415D01*
X124885109Y-114655041D01*
X124885102Y-114655047D01*
X124695046Y-114845103D01*
X124695040Y-114845110D01*
X124531414Y-115058353D01*
X124397017Y-115291132D01*
X124397009Y-115291148D01*
X124294150Y-115539474D01*
X124224583Y-115799105D01*
X124224580Y-115799118D01*
X124189498Y-116065601D01*
X123000000Y-116065601D01*
X123000000Y-108461153D01*
X125809500Y-108461153D01*
X125809500Y-108618846D01*
X125840261Y-108773489D01*
X125840264Y-108773501D01*
X125900602Y-108919172D01*
X125900609Y-108919185D01*
X125988210Y-109050288D01*
X125988213Y-109050292D01*
X126099707Y-109161786D01*
X126099711Y-109161789D01*
X126230814Y-109249390D01*
X126230827Y-109249397D01*
X126376498Y-109309735D01*
X126376503Y-109309737D01*
X126531153Y-109340499D01*
X126531156Y-109340500D01*
X126531158Y-109340500D01*
X126688844Y-109340500D01*
X126688845Y-109340499D01*
X126843497Y-109309737D01*
X126989179Y-109249394D01*
X127120289Y-109161789D01*
X127231789Y-109050289D01*
X127319394Y-108919179D01*
X127379737Y-108773497D01*
X127399113Y-108676085D01*
X127410638Y-108618150D01*
X127443023Y-108556239D01*
X127444517Y-108554717D01*
X129729520Y-106269716D01*
X129808577Y-106132784D01*
X129849501Y-105980057D01*
X129849501Y-105821942D01*
X129849501Y-105814347D01*
X129849500Y-105814329D01*
X129849500Y-102676293D01*
X129869185Y-102609254D01*
X129921989Y-102563499D01*
X129991147Y-102553555D01*
X130029796Y-102565809D01*
X130112389Y-102607893D01*
X130112396Y-102607896D01*
X130202818Y-102637275D01*
X130322049Y-102676015D01*
X130539778Y-102710500D01*
X130539779Y-102710500D01*
X130760221Y-102710500D01*
X130760222Y-102710500D01*
X130977951Y-102676015D01*
X131187606Y-102607895D01*
X131384022Y-102507815D01*
X131562365Y-102378242D01*
X131718242Y-102222365D01*
X131728804Y-102207826D01*
X131819682Y-102082745D01*
X131875011Y-102040079D01*
X131944625Y-102034100D01*
X132006420Y-102066705D01*
X132020318Y-102082745D01*
X132121752Y-102222358D01*
X132121756Y-102222363D01*
X132277636Y-102378243D01*
X132277641Y-102378247D01*
X132414538Y-102477707D01*
X132455978Y-102507815D01*
X132584375Y-102573237D01*
X132652393Y-102607895D01*
X132652396Y-102607896D01*
X132742818Y-102637275D01*
X132862049Y-102676015D01*
X133079778Y-102710500D01*
X133079779Y-102710500D01*
X133300221Y-102710500D01*
X133300222Y-102710500D01*
X133517951Y-102676015D01*
X133717182Y-102611282D01*
X133787023Y-102609287D01*
X133846856Y-102645368D01*
X133877684Y-102708069D01*
X133879500Y-102729213D01*
X133879500Y-103546903D01*
X133859815Y-103613942D01*
X133843181Y-103634584D01*
X130097339Y-107380425D01*
X130036016Y-107413910D01*
X130033850Y-107414361D01*
X129878508Y-107445261D01*
X129878498Y-107445264D01*
X129732827Y-107505602D01*
X129732814Y-107505609D01*
X129601711Y-107593210D01*
X129601707Y-107593213D01*
X129490213Y-107704707D01*
X129490210Y-107704711D01*
X129402609Y-107835814D01*
X129402602Y-107835827D01*
X129342264Y-107981498D01*
X129342261Y-107981510D01*
X129311500Y-108136153D01*
X129311500Y-108293846D01*
X129342261Y-108448489D01*
X129342264Y-108448501D01*
X129402602Y-108594172D01*
X129402609Y-108594185D01*
X129490210Y-108725288D01*
X129490213Y-108725292D01*
X129601707Y-108836786D01*
X129601711Y-108836789D01*
X129732814Y-108924390D01*
X129732827Y-108924397D01*
X129878498Y-108984735D01*
X129878503Y-108984737D01*
X130033153Y-109015499D01*
X130033156Y-109015500D01*
X130033158Y-109015500D01*
X130190844Y-109015500D01*
X130190845Y-109015499D01*
X130345497Y-108984737D01*
X130491179Y-108924394D01*
X130622289Y-108836789D01*
X130733789Y-108725289D01*
X130821394Y-108594179D01*
X130881737Y-108448497D01*
X130909983Y-108306498D01*
X130912638Y-108293150D01*
X130945023Y-108231239D01*
X130946519Y-108229715D01*
X134848713Y-104327521D01*
X134848716Y-104327520D01*
X134960520Y-104215716D01*
X135010639Y-104128904D01*
X135039577Y-104078785D01*
X135080501Y-103926057D01*
X135080501Y-103767943D01*
X135080501Y-103760348D01*
X135080500Y-103760330D01*
X135080500Y-102742209D01*
X135100185Y-102675170D01*
X135152989Y-102629415D01*
X135222147Y-102619471D01*
X135242812Y-102624276D01*
X135402049Y-102676015D01*
X135619778Y-102710500D01*
X135619779Y-102710500D01*
X135840221Y-102710500D01*
X135840222Y-102710500D01*
X136057951Y-102676015D01*
X136267606Y-102607895D01*
X136464022Y-102507815D01*
X136642365Y-102378242D01*
X136798242Y-102222365D01*
X136927815Y-102044022D01*
X137027895Y-101847606D01*
X137096015Y-101637951D01*
X137130500Y-101420222D01*
X137130500Y-101199778D01*
X137096015Y-100982049D01*
X137027895Y-100772394D01*
X137027895Y-100772393D01*
X136993237Y-100704375D01*
X136927815Y-100575978D01*
X136899681Y-100537254D01*
X136798247Y-100397641D01*
X136798243Y-100397636D01*
X136642363Y-100241756D01*
X136642358Y-100241752D01*
X136502745Y-100140318D01*
X136460079Y-100084989D01*
X136454100Y-100015375D01*
X136486705Y-99953580D01*
X136502745Y-99939682D01*
X136642358Y-99838247D01*
X136642356Y-99838247D01*
X136642365Y-99838242D01*
X136798242Y-99682365D01*
X136808804Y-99667826D01*
X136899682Y-99542745D01*
X136955011Y-99500079D01*
X137024625Y-99494100D01*
X137086420Y-99526705D01*
X137100318Y-99542745D01*
X137201752Y-99682358D01*
X137201756Y-99682363D01*
X137357636Y-99838243D01*
X137357641Y-99838247D01*
X137455715Y-99909501D01*
X137535978Y-99967815D01*
X137629319Y-100015375D01*
X137732393Y-100067895D01*
X137732396Y-100067896D01*
X137798885Y-100089499D01*
X137942049Y-100136015D01*
X138159778Y-100170500D01*
X138159779Y-100170500D01*
X138380221Y-100170500D01*
X138380222Y-100170500D01*
X138597951Y-100136015D01*
X138807606Y-100067895D01*
X139004022Y-99967815D01*
X139182365Y-99838242D01*
X139338242Y-99682365D01*
X139348804Y-99667826D01*
X139439682Y-99542745D01*
X139495011Y-99500079D01*
X139564625Y-99494100D01*
X139626420Y-99526705D01*
X139640318Y-99542745D01*
X139741752Y-99682358D01*
X139741756Y-99682363D01*
X139897636Y-99838243D01*
X139897641Y-99838247D01*
X140037254Y-99939682D01*
X140079920Y-99995012D01*
X140085899Y-100064625D01*
X140053293Y-100126420D01*
X140037254Y-100140318D01*
X139897641Y-100241752D01*
X139897636Y-100241756D01*
X139741756Y-100397636D01*
X139741752Y-100397641D01*
X139612187Y-100575974D01*
X139512104Y-100772393D01*
X139512103Y-100772396D01*
X139443985Y-100982047D01*
X139409500Y-101199778D01*
X139409500Y-101420221D01*
X139443985Y-101637952D01*
X139512103Y-101847603D01*
X139512104Y-101847606D01*
X139580122Y-101981096D01*
X139607129Y-102034100D01*
X139612187Y-102044025D01*
X139741752Y-102222358D01*
X139741756Y-102222363D01*
X139897636Y-102378243D01*
X139897641Y-102378247D01*
X140075976Y-102507814D01*
X140141794Y-102541350D01*
X140192591Y-102589324D01*
X140209500Y-102651835D01*
X140209500Y-112099930D01*
X140209499Y-112099948D01*
X140209499Y-112265654D01*
X140209498Y-112265654D01*
X140215177Y-112286846D01*
X140250423Y-112418385D01*
X140250424Y-112418386D01*
X140263766Y-112441497D01*
X140263767Y-112441498D01*
X140329475Y-112555309D01*
X140329481Y-112555317D01*
X140448349Y-112674185D01*
X140448355Y-112674190D01*
X146330625Y-118556460D01*
X146364110Y-118617783D01*
X146364561Y-118619949D01*
X146395461Y-118775291D01*
X146395464Y-118775301D01*
X146455802Y-118920972D01*
X146455809Y-118920985D01*
X146543410Y-119052088D01*
X146543413Y-119052092D01*
X146654907Y-119163586D01*
X146654911Y-119163589D01*
X146786014Y-119251190D01*
X146786027Y-119251197D01*
X146847738Y-119276758D01*
X146931703Y-119311537D01*
X147086353Y-119342299D01*
X147086356Y-119342300D01*
X147086358Y-119342300D01*
X147244044Y-119342300D01*
X147244045Y-119342299D01*
X147398697Y-119311537D01*
X147544379Y-119251194D01*
X147675489Y-119163589D01*
X147786989Y-119052089D01*
X147874594Y-118920979D01*
X147934937Y-118775297D01*
X147965700Y-118620642D01*
X147965700Y-118462958D01*
X147965700Y-118462955D01*
X147965699Y-118462953D01*
X147934938Y-118308310D01*
X147934937Y-118308303D01*
X147910994Y-118250499D01*
X147874597Y-118162627D01*
X147874590Y-118162614D01*
X147786989Y-118031511D01*
X147786986Y-118031507D01*
X147675492Y-117920013D01*
X147675488Y-117920010D01*
X147544385Y-117832409D01*
X147544372Y-117832402D01*
X147398701Y-117772064D01*
X147398691Y-117772061D01*
X147243349Y-117741161D01*
X147181438Y-117708776D01*
X147179860Y-117707225D01*
X145538236Y-116065601D01*
X176189504Y-116065601D01*
X176189504Y-116334396D01*
X176224586Y-116600879D01*
X176224587Y-116600884D01*
X176224588Y-116600890D01*
X176224589Y-116600892D01*
X176294156Y-116860523D01*
X176397015Y-117108849D01*
X176397023Y-117108865D01*
X176452128Y-117204308D01*
X176531417Y-117341640D01*
X176531419Y-117341643D01*
X176531420Y-117341644D01*
X176695046Y-117554887D01*
X176695052Y-117554894D01*
X176885108Y-117744950D01*
X176885114Y-117744955D01*
X177098363Y-117908586D01*
X177247972Y-117994963D01*
X177331137Y-118042979D01*
X177331153Y-118042987D01*
X177465508Y-118098638D01*
X177579478Y-118145846D01*
X177839113Y-118215415D01*
X178027323Y-118240192D01*
X178105606Y-118250499D01*
X178105607Y-118250499D01*
X178374402Y-118250499D01*
X178434909Y-118242533D01*
X178640895Y-118215415D01*
X178900530Y-118145846D01*
X179087461Y-118068416D01*
X179148854Y-118042987D01*
X179148857Y-118042985D01*
X179148863Y-118042983D01*
X179381645Y-117908586D01*
X179594894Y-117744955D01*
X179784960Y-117554889D01*
X179948591Y-117341640D01*
X180082988Y-117108858D01*
X180185851Y-116860525D01*
X180255420Y-116600890D01*
X180290504Y-116334396D01*
X180290504Y-116065602D01*
X180255420Y-115799108D01*
X180185851Y-115539473D01*
X180123409Y-115388725D01*
X180082992Y-115291148D01*
X180082984Y-115291132D01*
X180027880Y-115195690D01*
X179948591Y-115058358D01*
X179784960Y-114845109D01*
X179784955Y-114845103D01*
X179594899Y-114655047D01*
X179594892Y-114655041D01*
X179381649Y-114491415D01*
X179381648Y-114491414D01*
X179381645Y-114491412D01*
X179288836Y-114437829D01*
X179148870Y-114357018D01*
X179148854Y-114357010D01*
X178900528Y-114254151D01*
X178770712Y-114219367D01*
X178640895Y-114184583D01*
X178640889Y-114184582D01*
X178640884Y-114184581D01*
X178374402Y-114149499D01*
X178374401Y-114149499D01*
X178105607Y-114149499D01*
X178105606Y-114149499D01*
X177839123Y-114184581D01*
X177839116Y-114184582D01*
X177839113Y-114184583D01*
X177784243Y-114199285D01*
X177579479Y-114254151D01*
X177331153Y-114357010D01*
X177331137Y-114357018D01*
X177098358Y-114491415D01*
X176885115Y-114655041D01*
X176885108Y-114655047D01*
X176695052Y-114845103D01*
X176695046Y-114845110D01*
X176531420Y-115058353D01*
X176397023Y-115291132D01*
X176397015Y-115291148D01*
X176294156Y-115539474D01*
X176224589Y-115799105D01*
X176224586Y-115799118D01*
X176189504Y-116065601D01*
X145538236Y-116065601D01*
X141446819Y-111974184D01*
X141413334Y-111912861D01*
X141410500Y-111886503D01*
X141410500Y-102651835D01*
X141430185Y-102584796D01*
X141478206Y-102541350D01*
X141514814Y-102522697D01*
X141544022Y-102507815D01*
X141722365Y-102378242D01*
X141878242Y-102222365D01*
X141888804Y-102207826D01*
X141979682Y-102082745D01*
X142035011Y-102040079D01*
X142104625Y-102034100D01*
X142166420Y-102066705D01*
X142180318Y-102082745D01*
X142281752Y-102222358D01*
X142281756Y-102222363D01*
X142437636Y-102378243D01*
X142437641Y-102378247D01*
X142574538Y-102477707D01*
X142615978Y-102507815D01*
X142744375Y-102573237D01*
X142812393Y-102607895D01*
X142812396Y-102607896D01*
X142902818Y-102637275D01*
X143022049Y-102676015D01*
X143239778Y-102710500D01*
X143239779Y-102710500D01*
X143460221Y-102710500D01*
X143460222Y-102710500D01*
X143677951Y-102676015D01*
X143887606Y-102607895D01*
X144084022Y-102507815D01*
X144262365Y-102378242D01*
X144418242Y-102222365D01*
X144428804Y-102207826D01*
X144519682Y-102082745D01*
X144575011Y-102040079D01*
X144644625Y-102034100D01*
X144706420Y-102066705D01*
X144720318Y-102082745D01*
X144821752Y-102222358D01*
X144821756Y-102222363D01*
X144977638Y-102378245D01*
X145038384Y-102422378D01*
X145081050Y-102477707D01*
X145089500Y-102522697D01*
X145089500Y-105629939D01*
X145089499Y-105629943D01*
X145089499Y-105788057D01*
X145089500Y-105788060D01*
X145089500Y-109877902D01*
X145069815Y-109944941D01*
X145053181Y-109965583D01*
X143645339Y-111373425D01*
X143584016Y-111406910D01*
X143581850Y-111407361D01*
X143426508Y-111438261D01*
X143426498Y-111438264D01*
X143280827Y-111498602D01*
X143280814Y-111498609D01*
X143149711Y-111586210D01*
X143149707Y-111586213D01*
X143038213Y-111697707D01*
X143038210Y-111697711D01*
X142950609Y-111828814D01*
X142950602Y-111828827D01*
X142890264Y-111974498D01*
X142890261Y-111974510D01*
X142859500Y-112129153D01*
X142859500Y-112286846D01*
X142890261Y-112441489D01*
X142890264Y-112441500D01*
X142950602Y-112587172D01*
X142950609Y-112587185D01*
X143038210Y-112718288D01*
X143038213Y-112718292D01*
X143149707Y-112829786D01*
X143149711Y-112829789D01*
X143280814Y-112917390D01*
X143280827Y-112917397D01*
X143426498Y-112977735D01*
X143426503Y-112977737D01*
X143581153Y-113008499D01*
X143581156Y-113008500D01*
X143581158Y-113008500D01*
X143738844Y-113008500D01*
X143738845Y-113008499D01*
X143893497Y-112977737D01*
X144039179Y-112917394D01*
X144170289Y-112829789D01*
X144281789Y-112718289D01*
X144369394Y-112587179D01*
X144429737Y-112441497D01*
X144449113Y-112344085D01*
X144460638Y-112286150D01*
X144493023Y-112224239D01*
X144494517Y-112222717D01*
X146170520Y-110546716D01*
X146249577Y-110409784D01*
X146290501Y-110257057D01*
X146290501Y-110098942D01*
X146290501Y-110091347D01*
X146290500Y-110091329D01*
X146290500Y-106009098D01*
X146310185Y-105942059D01*
X146326820Y-105921416D01*
X146370517Y-105877719D01*
X146370517Y-105877718D01*
X146370520Y-105877716D01*
X146370647Y-105877497D01*
X146422284Y-105788057D01*
X146449577Y-105740784D01*
X146490501Y-105588057D01*
X146490501Y-105429942D01*
X146490501Y-105422347D01*
X146490500Y-105422329D01*
X146490500Y-102651835D01*
X146510185Y-102584796D01*
X146558206Y-102541350D01*
X146594814Y-102522697D01*
X146624022Y-102507815D01*
X146802365Y-102378242D01*
X146958242Y-102222365D01*
X146968804Y-102207826D01*
X147059682Y-102082745D01*
X147115011Y-102040079D01*
X147184625Y-102034100D01*
X147246420Y-102066705D01*
X147260318Y-102082745D01*
X147361752Y-102222358D01*
X147361756Y-102222363D01*
X147517636Y-102378243D01*
X147517641Y-102378247D01*
X147654538Y-102477707D01*
X147695978Y-102507815D01*
X147824375Y-102573237D01*
X147892393Y-102607895D01*
X147892396Y-102607896D01*
X147982818Y-102637275D01*
X148102049Y-102676015D01*
X148319778Y-102710500D01*
X148319779Y-102710500D01*
X148540221Y-102710500D01*
X148540222Y-102710500D01*
X148757951Y-102676015D01*
X148967606Y-102607895D01*
X149164022Y-102507815D01*
X149342365Y-102378242D01*
X149498242Y-102222365D01*
X149508804Y-102207826D01*
X149599682Y-102082745D01*
X149655011Y-102040079D01*
X149724625Y-102034100D01*
X149786420Y-102066705D01*
X149800318Y-102082745D01*
X149901752Y-102222358D01*
X149901756Y-102222363D01*
X150057636Y-102378243D01*
X150057641Y-102378247D01*
X150194538Y-102477707D01*
X150235978Y-102507815D01*
X150364375Y-102573237D01*
X150432393Y-102607895D01*
X150432396Y-102607896D01*
X150522818Y-102637275D01*
X150642049Y-102676015D01*
X150859778Y-102710500D01*
X150859779Y-102710500D01*
X151080221Y-102710500D01*
X151080222Y-102710500D01*
X151297951Y-102676015D01*
X151507606Y-102607895D01*
X151612204Y-102554598D01*
X151680873Y-102541702D01*
X151745614Y-102567978D01*
X151785871Y-102625084D01*
X151792500Y-102665083D01*
X151792500Y-105064234D01*
X151772815Y-105131273D01*
X151771602Y-105133125D01*
X151683609Y-105264814D01*
X151683602Y-105264827D01*
X151623264Y-105410498D01*
X151623261Y-105410510D01*
X151592500Y-105565153D01*
X151592500Y-105722846D01*
X151623261Y-105877489D01*
X151623264Y-105877501D01*
X151683602Y-106023172D01*
X151683609Y-106023185D01*
X151771210Y-106154288D01*
X151771213Y-106154292D01*
X151882707Y-106265786D01*
X151882711Y-106265789D01*
X152013814Y-106353390D01*
X152013827Y-106353397D01*
X152159498Y-106413735D01*
X152159503Y-106413737D01*
X152314153Y-106444499D01*
X152314156Y-106444500D01*
X152314158Y-106444500D01*
X152471844Y-106444500D01*
X152471845Y-106444499D01*
X152626497Y-106413737D01*
X152739166Y-106367067D01*
X152772172Y-106353397D01*
X152772172Y-106353396D01*
X152772179Y-106353394D01*
X152903289Y-106265789D01*
X153014789Y-106154289D01*
X153102394Y-106023179D01*
X153108227Y-106009098D01*
X153120256Y-105980055D01*
X153162737Y-105877497D01*
X153193500Y-105722842D01*
X153193500Y-105565158D01*
X153193500Y-105565155D01*
X153193499Y-105565153D01*
X153162737Y-105410503D01*
X153162735Y-105410498D01*
X153102397Y-105264827D01*
X153102390Y-105264814D01*
X153014398Y-105133125D01*
X152993520Y-105066447D01*
X152993500Y-105064234D01*
X152993500Y-102785423D01*
X153013185Y-102718384D01*
X153065989Y-102672629D01*
X153135147Y-102662685D01*
X153155814Y-102667491D01*
X153182049Y-102676015D01*
X153399778Y-102710500D01*
X153399779Y-102710500D01*
X153620221Y-102710500D01*
X153620222Y-102710500D01*
X153837951Y-102676015D01*
X154047606Y-102607895D01*
X154244022Y-102507815D01*
X154422365Y-102378242D01*
X154578242Y-102222365D01*
X154588804Y-102207826D01*
X154679682Y-102082745D01*
X154735011Y-102040079D01*
X154804625Y-102034100D01*
X154866420Y-102066705D01*
X154880318Y-102082745D01*
X154981752Y-102222358D01*
X154981756Y-102222363D01*
X155137636Y-102378243D01*
X155137641Y-102378247D01*
X155274538Y-102477707D01*
X155315978Y-102507815D01*
X155444375Y-102573237D01*
X155512393Y-102607895D01*
X155512396Y-102607896D01*
X155602818Y-102637275D01*
X155722049Y-102676015D01*
X155939778Y-102710500D01*
X155939779Y-102710500D01*
X156160221Y-102710500D01*
X156160222Y-102710500D01*
X156377951Y-102676015D01*
X156497182Y-102637274D01*
X156567023Y-102635280D01*
X156626856Y-102671360D01*
X156657684Y-102734061D01*
X156659500Y-102755206D01*
X156659500Y-105992439D01*
X156640420Y-106057415D01*
X156640479Y-106057447D01*
X156640328Y-106057727D01*
X156639815Y-106059478D01*
X156638604Y-106061327D01*
X156637610Y-106062814D01*
X156637602Y-106062828D01*
X156577264Y-106208498D01*
X156577261Y-106208510D01*
X156546500Y-106363153D01*
X156546500Y-106520846D01*
X156577261Y-106675489D01*
X156577264Y-106675501D01*
X156637602Y-106821172D01*
X156637609Y-106821185D01*
X156725210Y-106952288D01*
X156725213Y-106952292D01*
X156836707Y-107063786D01*
X156836711Y-107063789D01*
X156967814Y-107151390D01*
X156967827Y-107151397D01*
X157113498Y-107211735D01*
X157113503Y-107211737D01*
X157268153Y-107242499D01*
X157268156Y-107242500D01*
X157268158Y-107242500D01*
X157425844Y-107242500D01*
X157425845Y-107242499D01*
X157580497Y-107211737D01*
X157726179Y-107151394D01*
X157857289Y-107063789D01*
X157968789Y-106952289D01*
X158056394Y-106821179D01*
X158116737Y-106675497D01*
X158147500Y-106520842D01*
X158147500Y-106363158D01*
X158147500Y-106363155D01*
X158147499Y-106363153D01*
X158128913Y-106269716D01*
X158116737Y-106208503D01*
X158085374Y-106132785D01*
X158056397Y-106062827D01*
X158056390Y-106062814D01*
X157968789Y-105931711D01*
X157968786Y-105931707D01*
X157896819Y-105859740D01*
X157863334Y-105798417D01*
X157860500Y-105772059D01*
X157860500Y-100199054D01*
X157860500Y-100189058D01*
X157860501Y-100189057D01*
X157860501Y-100172465D01*
X157877075Y-100116026D01*
X157880186Y-100105431D01*
X157880187Y-100105430D01*
X157880188Y-100105427D01*
X157914050Y-100076088D01*
X157932990Y-100059676D01*
X157932994Y-100059674D01*
X157964338Y-100055168D01*
X158002148Y-100049732D01*
X158002151Y-100049733D01*
X158002153Y-100049733D01*
X158002157Y-100049734D01*
X158040797Y-100061986D01*
X158052394Y-100067895D01*
X158052396Y-100067895D01*
X158052396Y-100067896D01*
X158118885Y-100089499D01*
X158262049Y-100136015D01*
X158479778Y-100170500D01*
X158479779Y-100170500D01*
X158700221Y-100170500D01*
X158700222Y-100170500D01*
X158917951Y-100136015D01*
X159127606Y-100067895D01*
X159324022Y-99967815D01*
X159502365Y-99838242D01*
X159658242Y-99682365D01*
X159668804Y-99667826D01*
X159759682Y-99542745D01*
X159815011Y-99500079D01*
X159884625Y-99494100D01*
X159946420Y-99526705D01*
X159960318Y-99542745D01*
X160061752Y-99682358D01*
X160061756Y-99682363D01*
X160217636Y-99838243D01*
X160217641Y-99838247D01*
X160357254Y-99939682D01*
X160399920Y-99995012D01*
X160405899Y-100064625D01*
X160373293Y-100126420D01*
X160357254Y-100140318D01*
X160217641Y-100241752D01*
X160217636Y-100241756D01*
X160061756Y-100397636D01*
X160061752Y-100397641D01*
X159932187Y-100575974D01*
X159832104Y-100772393D01*
X159832103Y-100772396D01*
X159763985Y-100982047D01*
X159729500Y-101199778D01*
X159729500Y-101420221D01*
X159763985Y-101637952D01*
X159832103Y-101847603D01*
X159832104Y-101847606D01*
X159900122Y-101981096D01*
X159927129Y-102034100D01*
X159932187Y-102044025D01*
X160061752Y-102222358D01*
X160061756Y-102222363D01*
X160217636Y-102378243D01*
X160217641Y-102378247D01*
X160354538Y-102477707D01*
X160395978Y-102507815D01*
X160524375Y-102573237D01*
X160592393Y-102607895D01*
X160592396Y-102607896D01*
X160682818Y-102637275D01*
X160802049Y-102676015D01*
X161019778Y-102710500D01*
X161019779Y-102710500D01*
X161240221Y-102710500D01*
X161240222Y-102710500D01*
X161457951Y-102676015D01*
X161667606Y-102607895D01*
X161864022Y-102507815D01*
X162042365Y-102378242D01*
X162198242Y-102222365D01*
X162208804Y-102207826D01*
X162299682Y-102082745D01*
X162355011Y-102040079D01*
X162424625Y-102034100D01*
X162486420Y-102066705D01*
X162500318Y-102082745D01*
X162601752Y-102222358D01*
X162601756Y-102222363D01*
X162757636Y-102378243D01*
X162757641Y-102378247D01*
X162894538Y-102477707D01*
X162935978Y-102507815D01*
X163064375Y-102573237D01*
X163132393Y-102607895D01*
X163132396Y-102607896D01*
X163222818Y-102637275D01*
X163342049Y-102676015D01*
X163559778Y-102710500D01*
X163559779Y-102710500D01*
X163780221Y-102710500D01*
X163780222Y-102710500D01*
X163997951Y-102676015D01*
X164207606Y-102607895D01*
X164404022Y-102507815D01*
X164582365Y-102378242D01*
X164738242Y-102222365D01*
X164748804Y-102207826D01*
X164839682Y-102082745D01*
X164895011Y-102040079D01*
X164964625Y-102034100D01*
X165026420Y-102066705D01*
X165040318Y-102082745D01*
X165141752Y-102222358D01*
X165141756Y-102222363D01*
X165297636Y-102378243D01*
X165297641Y-102378247D01*
X165434538Y-102477707D01*
X165475978Y-102507815D01*
X165604375Y-102573237D01*
X165672393Y-102607895D01*
X165672396Y-102607896D01*
X165762818Y-102637275D01*
X165882049Y-102676015D01*
X166099778Y-102710500D01*
X166099779Y-102710500D01*
X166320221Y-102710500D01*
X166320222Y-102710500D01*
X166537951Y-102676015D01*
X166747606Y-102607895D01*
X166944022Y-102507815D01*
X167122365Y-102378242D01*
X167278242Y-102222365D01*
X167288804Y-102207826D01*
X167379682Y-102082745D01*
X167435011Y-102040079D01*
X167504625Y-102034100D01*
X167566420Y-102066705D01*
X167580318Y-102082745D01*
X167681752Y-102222358D01*
X167681756Y-102222363D01*
X167837636Y-102378243D01*
X167837641Y-102378247D01*
X167974538Y-102477707D01*
X168015978Y-102507815D01*
X168144375Y-102573237D01*
X168212393Y-102607895D01*
X168212396Y-102607896D01*
X168302818Y-102637275D01*
X168422049Y-102676015D01*
X168639778Y-102710500D01*
X168639779Y-102710500D01*
X168860221Y-102710500D01*
X168860222Y-102710500D01*
X169077951Y-102676015D01*
X169287606Y-102607895D01*
X169484022Y-102507815D01*
X169662365Y-102378242D01*
X169818242Y-102222365D01*
X169828804Y-102207826D01*
X169919682Y-102082745D01*
X169975011Y-102040079D01*
X170044625Y-102034100D01*
X170106420Y-102066705D01*
X170120318Y-102082745D01*
X170221752Y-102222358D01*
X170221756Y-102222363D01*
X170377636Y-102378243D01*
X170377641Y-102378247D01*
X170514538Y-102477707D01*
X170555978Y-102507815D01*
X170684375Y-102573237D01*
X170752393Y-102607895D01*
X170752396Y-102607896D01*
X170842818Y-102637275D01*
X170962049Y-102676015D01*
X171179778Y-102710500D01*
X171179779Y-102710500D01*
X171400221Y-102710500D01*
X171400222Y-102710500D01*
X171617951Y-102676015D01*
X171827606Y-102607895D01*
X172024022Y-102507815D01*
X172202365Y-102378242D01*
X172358242Y-102222365D01*
X172368804Y-102207826D01*
X172459682Y-102082745D01*
X172515011Y-102040079D01*
X172584625Y-102034100D01*
X172646420Y-102066705D01*
X172660318Y-102082745D01*
X172761752Y-102222358D01*
X172761756Y-102222363D01*
X172917636Y-102378243D01*
X172917641Y-102378247D01*
X173054538Y-102477707D01*
X173095978Y-102507815D01*
X173224375Y-102573237D01*
X173292393Y-102607895D01*
X173292396Y-102607896D01*
X173382818Y-102637275D01*
X173502049Y-102676015D01*
X173719778Y-102710500D01*
X173719779Y-102710500D01*
X173940221Y-102710500D01*
X173940222Y-102710500D01*
X174157951Y-102676015D01*
X174367606Y-102607895D01*
X174564022Y-102507815D01*
X174742365Y-102378242D01*
X174898242Y-102222365D01*
X175027815Y-102044022D01*
X175127895Y-101847606D01*
X175196015Y-101637951D01*
X175230500Y-101420222D01*
X175230500Y-101199778D01*
X175196015Y-100982049D01*
X175127895Y-100772394D01*
X175127895Y-100772393D01*
X175093237Y-100704375D01*
X175027815Y-100575978D01*
X174999681Y-100537254D01*
X174898247Y-100397641D01*
X174898243Y-100397636D01*
X174742363Y-100241756D01*
X174742358Y-100241752D01*
X174602745Y-100140318D01*
X174560079Y-100084989D01*
X174554100Y-100015375D01*
X174586705Y-99953580D01*
X174602745Y-99939682D01*
X174742358Y-99838247D01*
X174742356Y-99838247D01*
X174742365Y-99838242D01*
X174898242Y-99682365D01*
X174908804Y-99667826D01*
X174999682Y-99542745D01*
X175055011Y-99500079D01*
X175124625Y-99494100D01*
X175186420Y-99526705D01*
X175200318Y-99542745D01*
X175301752Y-99682358D01*
X175301756Y-99682363D01*
X175457636Y-99838243D01*
X175457641Y-99838247D01*
X175555715Y-99909501D01*
X175635978Y-99967815D01*
X175729319Y-100015375D01*
X175832393Y-100067895D01*
X175832396Y-100067896D01*
X175898885Y-100089499D01*
X176042049Y-100136015D01*
X176259778Y-100170500D01*
X176259779Y-100170500D01*
X176480221Y-100170500D01*
X176480222Y-100170500D01*
X176697951Y-100136015D01*
X176907606Y-100067895D01*
X177104022Y-99967815D01*
X177282365Y-99838242D01*
X177438242Y-99682365D01*
X177567815Y-99504022D01*
X177667895Y-99307606D01*
X177736015Y-99097951D01*
X177770500Y-98880222D01*
X177770500Y-98659778D01*
X177736015Y-98442049D01*
X177667895Y-98232394D01*
X177667895Y-98232393D01*
X177633237Y-98164375D01*
X177567815Y-98035978D01*
X177539681Y-97997254D01*
X177438247Y-97857641D01*
X177438243Y-97857636D01*
X177282363Y-97701756D01*
X177282358Y-97701752D01*
X177104025Y-97572187D01*
X177104024Y-97572186D01*
X177104022Y-97572185D01*
X177041096Y-97540122D01*
X176907606Y-97472104D01*
X176907603Y-97472103D01*
X176697952Y-97403985D01*
X176589086Y-97386742D01*
X176480222Y-97369500D01*
X176259778Y-97369500D01*
X176187201Y-97380995D01*
X176042047Y-97403985D01*
X175832396Y-97472103D01*
X175832393Y-97472104D01*
X175635974Y-97572187D01*
X175457641Y-97701752D01*
X175457636Y-97701756D01*
X175301756Y-97857636D01*
X175301752Y-97857641D01*
X175200318Y-97997254D01*
X175144988Y-98039920D01*
X175075375Y-98045899D01*
X175013580Y-98013293D01*
X174999682Y-97997254D01*
X174898247Y-97857641D01*
X174898243Y-97857636D01*
X174742363Y-97701756D01*
X174742358Y-97701752D01*
X174564025Y-97572187D01*
X174564024Y-97572186D01*
X174564022Y-97572185D01*
X174501096Y-97540122D01*
X174367606Y-97472104D01*
X174367603Y-97472103D01*
X174157952Y-97403985D01*
X174049086Y-97386742D01*
X173940222Y-97369500D01*
X173719778Y-97369500D01*
X173647201Y-97380995D01*
X173502047Y-97403985D01*
X173292396Y-97472103D01*
X173292393Y-97472104D01*
X173095974Y-97572187D01*
X172917641Y-97701752D01*
X172917636Y-97701756D01*
X172761756Y-97857636D01*
X172761752Y-97857641D01*
X172660318Y-97997254D01*
X172604988Y-98039920D01*
X172535375Y-98045899D01*
X172473580Y-98013293D01*
X172459682Y-97997254D01*
X172358247Y-97857641D01*
X172358243Y-97857636D01*
X172202363Y-97701756D01*
X172202358Y-97701752D01*
X172024025Y-97572187D01*
X172024024Y-97572186D01*
X172024022Y-97572185D01*
X171961096Y-97540122D01*
X171827606Y-97472104D01*
X171827603Y-97472103D01*
X171617952Y-97403985D01*
X171509086Y-97386742D01*
X171400222Y-97369500D01*
X171179778Y-97369500D01*
X171107201Y-97380995D01*
X170962047Y-97403985D01*
X170752396Y-97472103D01*
X170752393Y-97472104D01*
X170555974Y-97572187D01*
X170377641Y-97701752D01*
X170377636Y-97701756D01*
X170221756Y-97857636D01*
X170221752Y-97857641D01*
X170120318Y-97997254D01*
X170064988Y-98039920D01*
X169995375Y-98045899D01*
X169933580Y-98013293D01*
X169919682Y-97997254D01*
X169818247Y-97857641D01*
X169818243Y-97857636D01*
X169662363Y-97701756D01*
X169662358Y-97701752D01*
X169484025Y-97572187D01*
X169484024Y-97572186D01*
X169484022Y-97572185D01*
X169421096Y-97540122D01*
X169287606Y-97472104D01*
X169287603Y-97472103D01*
X169077952Y-97403985D01*
X168969086Y-97386742D01*
X168860222Y-97369500D01*
X168639778Y-97369500D01*
X168567201Y-97380995D01*
X168422047Y-97403985D01*
X168212396Y-97472103D01*
X168212393Y-97472104D01*
X168015974Y-97572187D01*
X167837641Y-97701752D01*
X167837636Y-97701756D01*
X167681756Y-97857636D01*
X167681752Y-97857641D01*
X167580318Y-97997254D01*
X167524988Y-98039920D01*
X167455375Y-98045899D01*
X167393580Y-98013293D01*
X167379682Y-97997254D01*
X167278247Y-97857641D01*
X167278243Y-97857636D01*
X167122363Y-97701756D01*
X167122358Y-97701752D01*
X166944025Y-97572187D01*
X166944024Y-97572186D01*
X166944022Y-97572185D01*
X166881096Y-97540122D01*
X166747606Y-97472104D01*
X166747603Y-97472103D01*
X166537952Y-97403985D01*
X166429086Y-97386742D01*
X166320222Y-97369500D01*
X166099778Y-97369500D01*
X166027201Y-97380995D01*
X165882047Y-97403985D01*
X165672396Y-97472103D01*
X165672393Y-97472104D01*
X165475974Y-97572187D01*
X165297641Y-97701752D01*
X165297636Y-97701756D01*
X165141756Y-97857636D01*
X165141752Y-97857641D01*
X165040318Y-97997254D01*
X164984988Y-98039920D01*
X164915375Y-98045899D01*
X164853580Y-98013293D01*
X164839682Y-97997254D01*
X164738247Y-97857641D01*
X164738243Y-97857636D01*
X164582363Y-97701756D01*
X164582358Y-97701752D01*
X164404025Y-97572187D01*
X164404024Y-97572186D01*
X164404022Y-97572185D01*
X164341096Y-97540122D01*
X164207606Y-97472104D01*
X164207603Y-97472103D01*
X163997952Y-97403985D01*
X163889086Y-97386742D01*
X163780222Y-97369500D01*
X163559778Y-97369500D01*
X163487201Y-97380995D01*
X163342047Y-97403985D01*
X163132396Y-97472103D01*
X163132393Y-97472104D01*
X162935974Y-97572187D01*
X162757641Y-97701752D01*
X162757636Y-97701756D01*
X162601756Y-97857636D01*
X162601752Y-97857641D01*
X162500318Y-97997254D01*
X162444988Y-98039920D01*
X162375375Y-98045899D01*
X162313580Y-98013293D01*
X162299682Y-97997254D01*
X162198247Y-97857641D01*
X162198243Y-97857636D01*
X162042363Y-97701756D01*
X162042358Y-97701752D01*
X161864025Y-97572187D01*
X161864024Y-97572186D01*
X161864022Y-97572185D01*
X161801096Y-97540122D01*
X161667606Y-97472104D01*
X161667603Y-97472103D01*
X161457952Y-97403985D01*
X161349086Y-97386742D01*
X161240222Y-97369500D01*
X161019778Y-97369500D01*
X160947201Y-97380995D01*
X160802047Y-97403985D01*
X160592396Y-97472103D01*
X160592393Y-97472104D01*
X160395974Y-97572187D01*
X160217641Y-97701752D01*
X160217636Y-97701756D01*
X160061756Y-97857636D01*
X160061752Y-97857641D01*
X159960318Y-97997254D01*
X159904988Y-98039920D01*
X159835375Y-98045899D01*
X159773580Y-98013293D01*
X159759682Y-97997254D01*
X159658247Y-97857641D01*
X159658243Y-97857636D01*
X159502363Y-97701756D01*
X159502358Y-97701752D01*
X159324025Y-97572187D01*
X159324024Y-97572186D01*
X159324022Y-97572185D01*
X159261096Y-97540122D01*
X159127606Y-97472104D01*
X159127603Y-97472103D01*
X158917952Y-97403985D01*
X158809086Y-97386742D01*
X158700222Y-97369500D01*
X158479778Y-97369500D01*
X158407201Y-97380995D01*
X158262047Y-97403985D01*
X158052396Y-97472103D01*
X158052393Y-97472104D01*
X157855974Y-97572187D01*
X157677641Y-97701752D01*
X157677636Y-97701756D01*
X157521756Y-97857636D01*
X157521752Y-97857641D01*
X157420318Y-97997254D01*
X157364988Y-98039920D01*
X157295375Y-98045899D01*
X157233580Y-98013293D01*
X157219682Y-97997254D01*
X157118247Y-97857641D01*
X157118243Y-97857636D01*
X156962363Y-97701756D01*
X156962358Y-97701752D01*
X156784025Y-97572187D01*
X156784024Y-97572186D01*
X156784022Y-97572185D01*
X156721096Y-97540122D01*
X156587606Y-97472104D01*
X156587603Y-97472103D01*
X156377952Y-97403985D01*
X156269086Y-97386742D01*
X156160222Y-97369500D01*
X155939778Y-97369500D01*
X155867201Y-97380995D01*
X155722047Y-97403985D01*
X155512396Y-97472103D01*
X155512393Y-97472104D01*
X155315974Y-97572187D01*
X155137641Y-97701752D01*
X155137636Y-97701756D01*
X154981756Y-97857636D01*
X154981752Y-97857641D01*
X154880318Y-97997254D01*
X154824988Y-98039920D01*
X154755375Y-98045899D01*
X154693580Y-98013293D01*
X154679682Y-97997254D01*
X154578247Y-97857641D01*
X154578243Y-97857636D01*
X154422363Y-97701756D01*
X154422358Y-97701752D01*
X154244025Y-97572187D01*
X154244024Y-97572186D01*
X154244022Y-97572185D01*
X154181096Y-97540122D01*
X154047606Y-97472104D01*
X154047603Y-97472103D01*
X153837952Y-97403985D01*
X153729086Y-97386742D01*
X153620222Y-97369500D01*
X153399778Y-97369500D01*
X153327201Y-97380995D01*
X153182047Y-97403985D01*
X152972396Y-97472103D01*
X152972393Y-97472104D01*
X152775974Y-97572187D01*
X152597641Y-97701752D01*
X152597636Y-97701756D01*
X152441756Y-97857636D01*
X152441752Y-97857641D01*
X152340318Y-97997254D01*
X152284988Y-98039920D01*
X152215375Y-98045899D01*
X152153580Y-98013293D01*
X152139682Y-97997254D01*
X152038247Y-97857641D01*
X152038243Y-97857636D01*
X151882363Y-97701756D01*
X151882358Y-97701752D01*
X151704025Y-97572187D01*
X151704024Y-97572186D01*
X151704022Y-97572185D01*
X151641096Y-97540122D01*
X151507606Y-97472104D01*
X151507603Y-97472103D01*
X151297952Y-97403985D01*
X151189086Y-97386742D01*
X151080222Y-97369500D01*
X150859778Y-97369500D01*
X150787201Y-97380995D01*
X150642047Y-97403985D01*
X150432396Y-97472103D01*
X150432393Y-97472104D01*
X150235974Y-97572187D01*
X150057641Y-97701752D01*
X150057636Y-97701756D01*
X149901756Y-97857636D01*
X149901752Y-97857641D01*
X149800318Y-97997254D01*
X149744988Y-98039920D01*
X149675375Y-98045899D01*
X149613580Y-98013293D01*
X149599682Y-97997254D01*
X149498247Y-97857641D01*
X149498243Y-97857636D01*
X149342363Y-97701756D01*
X149342358Y-97701752D01*
X149164025Y-97572187D01*
X149164024Y-97572186D01*
X149164022Y-97572185D01*
X149101096Y-97540122D01*
X148967606Y-97472104D01*
X148967603Y-97472103D01*
X148757952Y-97403985D01*
X148649086Y-97386742D01*
X148540222Y-97369500D01*
X148319778Y-97369500D01*
X148247201Y-97380995D01*
X148102047Y-97403985D01*
X147892396Y-97472103D01*
X147892393Y-97472104D01*
X147695974Y-97572187D01*
X147517641Y-97701752D01*
X147517636Y-97701756D01*
X147361756Y-97857636D01*
X147361752Y-97857641D01*
X147260318Y-97997254D01*
X147204988Y-98039920D01*
X147135375Y-98045899D01*
X147073580Y-98013293D01*
X147059682Y-97997254D01*
X146958247Y-97857641D01*
X146958243Y-97857636D01*
X146802363Y-97701756D01*
X146802358Y-97701752D01*
X146624025Y-97572187D01*
X146624024Y-97572186D01*
X146624022Y-97572185D01*
X146561096Y-97540122D01*
X146427606Y-97472104D01*
X146427603Y-97472103D01*
X146217952Y-97403985D01*
X146109086Y-97386742D01*
X146000222Y-97369500D01*
X145779778Y-97369500D01*
X145707201Y-97380995D01*
X145562047Y-97403985D01*
X145352396Y-97472103D01*
X145352393Y-97472104D01*
X145155974Y-97572187D01*
X144977641Y-97701752D01*
X144977636Y-97701756D01*
X144821756Y-97857636D01*
X144821752Y-97857641D01*
X144692187Y-98035974D01*
X144592104Y-98232393D01*
X144592103Y-98232396D01*
X144523985Y-98442047D01*
X144489500Y-98659778D01*
X144489500Y-98880221D01*
X144523985Y-99097952D01*
X144592103Y-99307603D01*
X144592104Y-99307606D01*
X144660122Y-99441096D01*
X144687129Y-99494100D01*
X144692187Y-99504025D01*
X144821752Y-99682358D01*
X144821756Y-99682363D01*
X144977636Y-99838243D01*
X144977641Y-99838247D01*
X145117254Y-99939682D01*
X145159920Y-99995012D01*
X145165899Y-100064625D01*
X145133293Y-100126420D01*
X145117254Y-100140318D01*
X144977641Y-100241752D01*
X144977636Y-100241756D01*
X144821756Y-100397636D01*
X144821752Y-100397641D01*
X144720318Y-100537254D01*
X144664988Y-100579920D01*
X144595375Y-100585899D01*
X144533580Y-100553293D01*
X144519682Y-100537254D01*
X144418247Y-100397641D01*
X144418243Y-100397636D01*
X144262363Y-100241756D01*
X144262358Y-100241752D01*
X144084025Y-100112187D01*
X144084024Y-100112186D01*
X144084022Y-100112185D01*
X144021096Y-100080122D01*
X143887606Y-100012104D01*
X143887603Y-100012103D01*
X143677952Y-99943985D01*
X143569086Y-99926742D01*
X143460222Y-99909500D01*
X143239778Y-99909500D01*
X143167201Y-99920995D01*
X143022047Y-99943985D01*
X142812396Y-100012103D01*
X142812393Y-100012104D01*
X142615974Y-100112187D01*
X142437641Y-100241752D01*
X142437636Y-100241756D01*
X142281756Y-100397636D01*
X142281752Y-100397641D01*
X142180318Y-100537254D01*
X142124988Y-100579920D01*
X142055375Y-100585899D01*
X141993580Y-100553293D01*
X141979682Y-100537254D01*
X141878247Y-100397641D01*
X141878243Y-100397636D01*
X141722363Y-100241756D01*
X141722358Y-100241752D01*
X141582745Y-100140318D01*
X141540079Y-100084989D01*
X141534100Y-100015375D01*
X141566705Y-99953580D01*
X141582745Y-99939682D01*
X141722358Y-99838247D01*
X141722356Y-99838247D01*
X141722365Y-99838242D01*
X141878242Y-99682365D01*
X142007815Y-99504022D01*
X142107895Y-99307606D01*
X142176015Y-99097951D01*
X142210500Y-98880222D01*
X142210500Y-98659778D01*
X142176015Y-98442049D01*
X142107895Y-98232394D01*
X142107895Y-98232393D01*
X142073237Y-98164375D01*
X142007815Y-98035978D01*
X141979681Y-97997254D01*
X141878247Y-97857641D01*
X141878243Y-97857636D01*
X141722363Y-97701756D01*
X141722358Y-97701752D01*
X141544025Y-97572187D01*
X141544024Y-97572186D01*
X141544022Y-97572185D01*
X141481096Y-97540122D01*
X141347606Y-97472104D01*
X141347603Y-97472103D01*
X141137952Y-97403985D01*
X141029086Y-97386742D01*
X140920222Y-97369500D01*
X140699778Y-97369500D01*
X140627201Y-97380995D01*
X140482047Y-97403985D01*
X140272396Y-97472103D01*
X140272393Y-97472104D01*
X140075974Y-97572187D01*
X139897641Y-97701752D01*
X139897636Y-97701756D01*
X139741756Y-97857636D01*
X139741752Y-97857641D01*
X139640318Y-97997254D01*
X139584988Y-98039920D01*
X139515375Y-98045899D01*
X139453580Y-98013293D01*
X139439682Y-97997254D01*
X139338247Y-97857641D01*
X139338243Y-97857636D01*
X139182363Y-97701756D01*
X139182358Y-97701752D01*
X139004025Y-97572187D01*
X139004024Y-97572186D01*
X139004022Y-97572185D01*
X138941096Y-97540122D01*
X138807606Y-97472104D01*
X138807603Y-97472103D01*
X138597952Y-97403985D01*
X138489086Y-97386742D01*
X138380222Y-97369500D01*
X138159778Y-97369500D01*
X138087201Y-97380995D01*
X137942047Y-97403985D01*
X137732396Y-97472103D01*
X137732393Y-97472104D01*
X137535974Y-97572187D01*
X137357641Y-97701752D01*
X137357636Y-97701756D01*
X137201756Y-97857636D01*
X137201752Y-97857641D01*
X137100318Y-97997254D01*
X137044988Y-98039920D01*
X136975375Y-98045899D01*
X136913580Y-98013293D01*
X136899682Y-97997254D01*
X136798247Y-97857641D01*
X136798243Y-97857636D01*
X136642363Y-97701756D01*
X136642358Y-97701752D01*
X136464025Y-97572187D01*
X136464024Y-97572186D01*
X136464022Y-97572185D01*
X136401096Y-97540122D01*
X136267606Y-97472104D01*
X136267603Y-97472103D01*
X136057952Y-97403985D01*
X135949086Y-97386742D01*
X135840222Y-97369500D01*
X135619778Y-97369500D01*
X135547201Y-97380995D01*
X135402047Y-97403985D01*
X135192396Y-97472103D01*
X135192393Y-97472104D01*
X134995974Y-97572187D01*
X134817641Y-97701752D01*
X134817636Y-97701756D01*
X134661756Y-97857636D01*
X134661752Y-97857641D01*
X134560318Y-97997254D01*
X134504988Y-98039920D01*
X134435375Y-98045899D01*
X134373580Y-98013293D01*
X134359682Y-97997254D01*
X134258247Y-97857641D01*
X134258243Y-97857636D01*
X134102363Y-97701756D01*
X134102358Y-97701752D01*
X133924025Y-97572187D01*
X133924024Y-97572186D01*
X133924022Y-97572185D01*
X133861096Y-97540122D01*
X133727606Y-97472104D01*
X133727603Y-97472103D01*
X133517952Y-97403985D01*
X133409086Y-97386742D01*
X133300222Y-97369500D01*
X133079778Y-97369500D01*
X133007201Y-97380995D01*
X132862047Y-97403985D01*
X132652396Y-97472103D01*
X132652393Y-97472104D01*
X132455974Y-97572187D01*
X132277641Y-97701752D01*
X132277636Y-97701756D01*
X132121756Y-97857636D01*
X132121752Y-97857641D01*
X132020318Y-97997254D01*
X131964988Y-98039920D01*
X131895375Y-98045899D01*
X131833580Y-98013293D01*
X131819682Y-97997254D01*
X131718247Y-97857641D01*
X131718243Y-97857636D01*
X131562363Y-97701756D01*
X131562358Y-97701752D01*
X131384025Y-97572187D01*
X131384024Y-97572186D01*
X131384022Y-97572185D01*
X131321096Y-97540122D01*
X131187606Y-97472104D01*
X131187603Y-97472103D01*
X130977952Y-97403985D01*
X130869086Y-97386742D01*
X130760222Y-97369500D01*
X130539778Y-97369500D01*
X130467201Y-97380995D01*
X130322047Y-97403985D01*
X130112396Y-97472103D01*
X130112393Y-97472104D01*
X129915974Y-97572187D01*
X129737641Y-97701752D01*
X129737636Y-97701756D01*
X129581756Y-97857636D01*
X129581752Y-97857641D01*
X129480318Y-97997254D01*
X129424988Y-98039920D01*
X129355375Y-98045899D01*
X129293580Y-98013293D01*
X129279682Y-97997254D01*
X129178247Y-97857641D01*
X129178243Y-97857636D01*
X129022363Y-97701756D01*
X129022358Y-97701752D01*
X128844025Y-97572187D01*
X128844024Y-97572186D01*
X128844022Y-97572185D01*
X128781096Y-97540122D01*
X128647606Y-97472104D01*
X128647603Y-97472103D01*
X128437952Y-97403985D01*
X128329086Y-97386742D01*
X128220222Y-97369500D01*
X127999778Y-97369500D01*
X127927201Y-97380995D01*
X127782047Y-97403985D01*
X127572396Y-97472103D01*
X127572393Y-97472104D01*
X127375974Y-97572187D01*
X127197641Y-97701752D01*
X127197636Y-97701756D01*
X127041756Y-97857636D01*
X127041752Y-97857641D01*
X126912187Y-98035974D01*
X126812104Y-98232393D01*
X126812103Y-98232396D01*
X126743985Y-98442047D01*
X126709500Y-98659778D01*
X126709500Y-98880221D01*
X126743985Y-99097952D01*
X126812103Y-99307603D01*
X126812104Y-99307606D01*
X126880122Y-99441096D01*
X126907129Y-99494100D01*
X126912187Y-99504025D01*
X127041752Y-99682358D01*
X127041756Y-99682363D01*
X127122489Y-99763096D01*
X127155974Y-99824419D01*
X127150990Y-99894111D01*
X127109118Y-99950044D01*
X127087806Y-99961682D01*
X127087954Y-99961953D01*
X127080164Y-99966206D01*
X126964955Y-100052452D01*
X126964952Y-100052455D01*
X126878706Y-100167664D01*
X126878702Y-100167671D01*
X126828408Y-100302517D01*
X126822001Y-100362116D01*
X126822000Y-100362135D01*
X126822000Y-102257870D01*
X126822001Y-102257876D01*
X126828408Y-102317483D01*
X126878702Y-102452328D01*
X126878706Y-102452335D01*
X126964952Y-102567544D01*
X126964955Y-102567547D01*
X127080164Y-102653793D01*
X127080171Y-102653797D01*
X127215017Y-102704091D01*
X127215016Y-102704091D01*
X127221944Y-102704835D01*
X127274627Y-102710500D01*
X128524500Y-102710499D01*
X128591539Y-102730184D01*
X128637294Y-102782987D01*
X128648500Y-102834499D01*
X128648500Y-105600902D01*
X128628815Y-105667941D01*
X128612181Y-105688583D01*
X126595339Y-107705425D01*
X126534016Y-107738910D01*
X126531850Y-107739361D01*
X126376508Y-107770261D01*
X126376498Y-107770264D01*
X126230827Y-107830602D01*
X126230814Y-107830609D01*
X126099711Y-107918210D01*
X126099707Y-107918213D01*
X125988213Y-108029707D01*
X125988210Y-108029711D01*
X125900609Y-108160814D01*
X125900602Y-108160827D01*
X125840264Y-108306498D01*
X125840261Y-108306510D01*
X125809500Y-108461153D01*
X123000000Y-108461153D01*
X123000000Y-92982885D01*
X156600000Y-92982885D01*
X156600000Y-95125120D01*
X156600001Y-95125126D01*
X156606408Y-95184733D01*
X156656702Y-95319578D01*
X156656706Y-95319585D01*
X156742952Y-95434794D01*
X156742955Y-95434797D01*
X156858164Y-95521043D01*
X156858171Y-95521047D01*
X156993017Y-95571341D01*
X156993016Y-95571341D01*
X156999944Y-95572085D01*
X157052627Y-95577750D01*
X158768372Y-95577749D01*
X158827983Y-95571341D01*
X158962831Y-95521046D01*
X158963893Y-95520250D01*
X159050745Y-95455234D01*
X159116209Y-95430816D01*
X159125056Y-95430500D01*
X164228543Y-95430500D01*
X164358582Y-95404632D01*
X164421835Y-95392051D01*
X164596785Y-95319585D01*
X164603907Y-95316635D01*
X164603907Y-95316634D01*
X164603914Y-95316632D01*
X164767782Y-95207139D01*
X164907139Y-95067782D01*
X165016632Y-94903914D01*
X165092051Y-94721835D01*
X165130500Y-94528541D01*
X165130500Y-94331459D01*
X165130500Y-94331456D01*
X165092052Y-94138170D01*
X165092051Y-94138169D01*
X165092051Y-94138165D01*
X165092049Y-94138160D01*
X165016635Y-93956092D01*
X165016628Y-93956079D01*
X164907140Y-93792219D01*
X164907139Y-93792218D01*
X164827600Y-93712679D01*
X164794117Y-93651359D01*
X164799101Y-93581667D01*
X164827601Y-93537319D01*
X164857139Y-93507782D01*
X164966632Y-93343914D01*
X165042051Y-93161835D01*
X165077647Y-92982885D01*
X165080500Y-92968543D01*
X165080500Y-92771456D01*
X165042052Y-92578170D01*
X165042051Y-92578169D01*
X165042051Y-92578165D01*
X165024859Y-92536659D01*
X164966635Y-92396092D01*
X164966628Y-92396079D01*
X164857139Y-92232218D01*
X164857136Y-92232214D01*
X164717785Y-92092863D01*
X164717781Y-92092860D01*
X164553920Y-91983371D01*
X164553907Y-91983364D01*
X164371839Y-91907950D01*
X164371829Y-91907947D01*
X164178543Y-91869500D01*
X164178541Y-91869500D01*
X158995459Y-91869500D01*
X158995455Y-91869500D01*
X158898812Y-91888724D01*
X158802167Y-91907947D01*
X158802161Y-91907949D01*
X158748834Y-91930037D01*
X158748834Y-91930038D01*
X158707873Y-91947005D01*
X158620089Y-91983366D01*
X158620079Y-91983371D01*
X158456219Y-92092859D01*
X158409118Y-92139961D01*
X158316861Y-92232218D01*
X158316858Y-92232221D01*
X158055147Y-92493931D01*
X157993824Y-92527416D01*
X157967466Y-92530250D01*
X157052629Y-92530250D01*
X157052623Y-92530251D01*
X156993016Y-92536658D01*
X156858171Y-92586952D01*
X156858164Y-92586956D01*
X156742955Y-92673202D01*
X156742952Y-92673205D01*
X156656706Y-92788414D01*
X156656702Y-92788421D01*
X156606408Y-92923267D01*
X156600001Y-92982866D01*
X156600000Y-92982885D01*
X123000000Y-92982885D01*
X123000000Y-88174885D01*
X156619000Y-88174885D01*
X156619000Y-90317120D01*
X156619001Y-90317126D01*
X156625408Y-90376733D01*
X156675702Y-90511578D01*
X156675706Y-90511585D01*
X156761952Y-90626794D01*
X156761955Y-90626797D01*
X156877164Y-90713043D01*
X156877171Y-90713047D01*
X157012017Y-90763341D01*
X157012016Y-90763341D01*
X157018944Y-90764085D01*
X157071627Y-90769750D01*
X158787372Y-90769749D01*
X158846983Y-90763341D01*
X158981831Y-90713046D01*
X159097046Y-90626796D01*
X159183296Y-90511581D01*
X159233591Y-90376733D01*
X159235686Y-90357243D01*
X159262422Y-90292695D01*
X159319814Y-90252846D01*
X159358975Y-90246500D01*
X175020218Y-90246500D01*
X175087257Y-90266185D01*
X175107898Y-90282818D01*
X176662860Y-91837781D01*
X176662861Y-91837782D01*
X176732860Y-91907781D01*
X176802219Y-91977140D01*
X176966079Y-92086628D01*
X176966092Y-92086635D01*
X177094833Y-92139961D01*
X177135072Y-92156628D01*
X177148164Y-92162051D01*
X177244812Y-92181275D01*
X177293135Y-92190887D01*
X177341458Y-92200500D01*
X177341459Y-92200500D01*
X177538543Y-92200500D01*
X177668582Y-92174632D01*
X177731835Y-92162051D01*
X177913914Y-92086632D01*
X178077782Y-91977139D01*
X178077788Y-91977132D01*
X178081207Y-91974327D01*
X178145513Y-91947005D01*
X178214382Y-91958786D01*
X178247566Y-91982488D01*
X178312214Y-92047136D01*
X178312218Y-92047139D01*
X178476079Y-92156628D01*
X178476092Y-92156635D01*
X178658160Y-92232049D01*
X178658165Y-92232051D01*
X178658169Y-92232051D01*
X178658170Y-92232052D01*
X178851456Y-92270500D01*
X178851459Y-92270500D01*
X179048543Y-92270500D01*
X179178582Y-92244632D01*
X179241835Y-92232051D01*
X179423914Y-92156632D01*
X179587782Y-92047139D01*
X179727139Y-91907782D01*
X179836632Y-91743914D01*
X179912051Y-91561835D01*
X179950500Y-91368541D01*
X179950500Y-90081459D01*
X179950500Y-90081456D01*
X179912052Y-89888170D01*
X179912051Y-89888169D01*
X179912051Y-89888165D01*
X179912049Y-89888160D01*
X179836635Y-89706092D01*
X179836628Y-89706079D01*
X179727140Y-89542219D01*
X179727139Y-89542218D01*
X179587782Y-89402861D01*
X179587781Y-89402860D01*
X178800208Y-88615288D01*
X178800206Y-88615285D01*
X178800206Y-88615286D01*
X178793139Y-88608219D01*
X178793139Y-88608218D01*
X178653782Y-88468861D01*
X178653781Y-88468860D01*
X178653780Y-88468859D01*
X178489920Y-88359371D01*
X178489911Y-88359366D01*
X178417315Y-88329296D01*
X178361165Y-88306038D01*
X178307836Y-88283949D01*
X178307832Y-88283948D01*
X178307828Y-88283946D01*
X178211188Y-88264724D01*
X178114544Y-88245500D01*
X178114541Y-88245500D01*
X175584541Y-88245500D01*
X159358976Y-88245500D01*
X159291937Y-88225815D01*
X159246182Y-88173011D01*
X159235686Y-88134754D01*
X159233591Y-88115266D01*
X159183297Y-87980421D01*
X159183293Y-87980414D01*
X159097047Y-87865205D01*
X159097044Y-87865202D01*
X158981835Y-87778956D01*
X158981828Y-87778952D01*
X158846982Y-87728658D01*
X158846983Y-87728658D01*
X158787383Y-87722251D01*
X158787381Y-87722250D01*
X158787373Y-87722250D01*
X158787364Y-87722250D01*
X157071629Y-87722250D01*
X157071623Y-87722251D01*
X157012016Y-87728658D01*
X156877171Y-87778952D01*
X156877164Y-87778956D01*
X156761955Y-87865202D01*
X156761952Y-87865205D01*
X156675706Y-87980414D01*
X156675702Y-87980421D01*
X156625408Y-88115267D01*
X156619001Y-88174866D01*
X156619000Y-88174885D01*
X123000000Y-88174885D01*
X123000000Y-79565602D01*
X124189498Y-79565602D01*
X124189498Y-79834397D01*
X124224580Y-80100880D01*
X124224581Y-80100885D01*
X124224582Y-80100891D01*
X124224583Y-80100893D01*
X124294150Y-80360524D01*
X124397009Y-80608850D01*
X124397017Y-80608866D01*
X124452122Y-80704309D01*
X124531411Y-80841641D01*
X124531413Y-80841644D01*
X124531414Y-80841645D01*
X124695040Y-81054888D01*
X124695046Y-81054895D01*
X124885102Y-81244951D01*
X124885108Y-81244956D01*
X125098357Y-81408587D01*
X125247966Y-81494964D01*
X125331131Y-81542980D01*
X125331147Y-81542988D01*
X125486006Y-81607132D01*
X125579472Y-81645847D01*
X125839107Y-81715416D01*
X126027317Y-81740193D01*
X126105600Y-81750500D01*
X126105601Y-81750500D01*
X126374396Y-81750500D01*
X126434903Y-81742534D01*
X126640889Y-81715416D01*
X126900524Y-81645847D01*
X127087455Y-81568417D01*
X127148848Y-81542988D01*
X127148851Y-81542986D01*
X127148857Y-81542984D01*
X127381639Y-81408587D01*
X127594888Y-81244956D01*
X127784954Y-81054890D01*
X127948585Y-80841641D01*
X128082982Y-80608859D01*
X128185845Y-80360526D01*
X128255414Y-80100891D01*
X128290498Y-79834397D01*
X128290498Y-79565603D01*
X128290498Y-79565602D01*
X176189504Y-79565602D01*
X176189504Y-79834397D01*
X176224586Y-80100880D01*
X176224587Y-80100885D01*
X176224588Y-80100891D01*
X176224589Y-80100893D01*
X176294156Y-80360524D01*
X176397015Y-80608850D01*
X176397023Y-80608866D01*
X176452128Y-80704309D01*
X176531417Y-80841641D01*
X176531419Y-80841644D01*
X176531420Y-80841645D01*
X176695046Y-81054888D01*
X176695052Y-81054895D01*
X176885108Y-81244951D01*
X176885114Y-81244956D01*
X177098363Y-81408587D01*
X177247972Y-81494964D01*
X177331137Y-81542980D01*
X177331153Y-81542988D01*
X177486012Y-81607132D01*
X177579478Y-81645847D01*
X177839113Y-81715416D01*
X178027323Y-81740193D01*
X178105606Y-81750500D01*
X178105607Y-81750500D01*
X178374402Y-81750500D01*
X178434909Y-81742534D01*
X178640895Y-81715416D01*
X178900530Y-81645847D01*
X179087461Y-81568417D01*
X179148854Y-81542988D01*
X179148857Y-81542986D01*
X179148863Y-81542984D01*
X179381645Y-81408587D01*
X179594894Y-81244956D01*
X179784960Y-81054890D01*
X179948591Y-80841641D01*
X180082988Y-80608859D01*
X180185851Y-80360526D01*
X180255420Y-80100891D01*
X180290504Y-79834397D01*
X180290504Y-79565603D01*
X180255420Y-79299109D01*
X180185851Y-79039474D01*
X180123409Y-78888726D01*
X180082992Y-78791149D01*
X180082984Y-78791133D01*
X180027880Y-78695691D01*
X179948591Y-78558359D01*
X179784960Y-78345110D01*
X179784955Y-78345104D01*
X179594899Y-78155048D01*
X179594892Y-78155042D01*
X179381649Y-77991416D01*
X179381648Y-77991415D01*
X179381645Y-77991413D01*
X179288836Y-77937830D01*
X179148870Y-77857019D01*
X179148854Y-77857011D01*
X178900528Y-77754152D01*
X178770712Y-77719368D01*
X178640895Y-77684584D01*
X178640889Y-77684583D01*
X178640884Y-77684582D01*
X178374402Y-77649500D01*
X178374401Y-77649500D01*
X178105607Y-77649500D01*
X178105606Y-77649500D01*
X177839123Y-77684582D01*
X177839116Y-77684583D01*
X177839113Y-77684584D01*
X177784243Y-77699286D01*
X177579479Y-77754152D01*
X177331153Y-77857011D01*
X177331137Y-77857019D01*
X177098358Y-77991416D01*
X176885115Y-78155042D01*
X176885108Y-78155048D01*
X176695052Y-78345104D01*
X176695046Y-78345111D01*
X176531420Y-78558354D01*
X176397023Y-78791133D01*
X176397015Y-78791149D01*
X176294156Y-79039475D01*
X176224589Y-79299106D01*
X176224586Y-79299119D01*
X176189504Y-79565602D01*
X128290498Y-79565602D01*
X128255414Y-79299109D01*
X128185845Y-79039474D01*
X128123403Y-78888726D01*
X128082986Y-78791149D01*
X128082978Y-78791133D01*
X128027874Y-78695691D01*
X127948585Y-78558359D01*
X127784954Y-78345110D01*
X127784949Y-78345104D01*
X127594893Y-78155048D01*
X127594886Y-78155042D01*
X127381643Y-77991416D01*
X127381642Y-77991415D01*
X127381639Y-77991413D01*
X127288830Y-77937830D01*
X127148864Y-77857019D01*
X127148848Y-77857011D01*
X126900522Y-77754152D01*
X126770706Y-77719368D01*
X126640889Y-77684584D01*
X126640883Y-77684583D01*
X126640878Y-77684582D01*
X126374396Y-77649500D01*
X126374395Y-77649500D01*
X126105601Y-77649500D01*
X126105600Y-77649500D01*
X125839117Y-77684582D01*
X125839110Y-77684583D01*
X125839107Y-77684584D01*
X125784237Y-77699286D01*
X125579473Y-77754152D01*
X125331147Y-77857011D01*
X125331131Y-77857019D01*
X125098352Y-77991416D01*
X124885109Y-78155042D01*
X124885102Y-78155048D01*
X124695046Y-78345104D01*
X124695040Y-78345111D01*
X124531414Y-78558354D01*
X124397017Y-78791133D01*
X124397009Y-78791149D01*
X124294150Y-79039475D01*
X124224583Y-79299106D01*
X124224580Y-79299119D01*
X124189498Y-79565602D01*
X123000000Y-79565602D01*
X123000000Y-77811362D01*
X123019685Y-77744323D01*
X123036319Y-77723681D01*
X124633681Y-76126319D01*
X124695004Y-76092834D01*
X124721362Y-76090000D01*
X179538638Y-76090000D01*
X179605677Y-76109685D01*
G37*
%TD.AperFunction*%
%TD*%
M02*
