%TF.GenerationSoftware,KiCad,Pcbnew,9.0.2*%
%TF.CreationDate,2025-09-10T19:31:46+05:30*%
%TF.ProjectId,ProDoc_Board1_2025-09-03,50726f44-6f63-45f4-926f-617264315f32,rev?*%
%TF.SameCoordinates,Original*%
%TF.FileFunction,Soldermask,Bot*%
%TF.FilePolarity,Negative*%
%FSLAX46Y46*%
G04 Gerber Fmt 4.6, Leading zero omitted, Abs format (unit mm)*
G04 Created by KiCad (PCBNEW 9.0.2) date 2025-09-10 19:31:46*
%MOMM*%
%LPD*%
G01*
G04 APERTURE LIST*
%ADD10R,1.575000X1.800000*%
%ADD11C,1.800000*%
%ADD12R,1.620000X2.046500*%
G04 APERTURE END LIST*
D10*
%TO.C,H1*%
X128110000Y-101310000D03*
D11*
X128110000Y-98770000D03*
X130650000Y-101310000D03*
X130650000Y-98770000D03*
X133190000Y-101310000D03*
X133190000Y-98770000D03*
X135730000Y-101310000D03*
X135730000Y-98770000D03*
X138270000Y-101310000D03*
X138270000Y-98770000D03*
X140810000Y-101310000D03*
X140810000Y-98770000D03*
X143350000Y-101310000D03*
X143350000Y-98770000D03*
X145890000Y-101310000D03*
X145890000Y-98770000D03*
X148430000Y-101310000D03*
X148430000Y-98770000D03*
X150970000Y-101310000D03*
X150970000Y-98770000D03*
X153510000Y-101310000D03*
X153510000Y-98770000D03*
X156050000Y-101310000D03*
X156050000Y-98770000D03*
X158590000Y-101310000D03*
X158590000Y-98770000D03*
X161130000Y-101310000D03*
X161130000Y-98770000D03*
X163670000Y-101310000D03*
X163670000Y-98770000D03*
X166210000Y-101310000D03*
X166210000Y-98770000D03*
X168750000Y-101310000D03*
X168750000Y-98770000D03*
X171290000Y-101310000D03*
X171290000Y-98770000D03*
X173830000Y-101310000D03*
X173830000Y-98770000D03*
X176370000Y-101310000D03*
X176370000Y-98770000D03*
%TD*%
D12*
%TO.C,D2*%
X157929500Y-89246000D03*
X157910500Y-94054000D03*
%TD*%
M02*
